<?xml version="1.0" encoding="UTF-8" standalone="no"?>
<svg
   xmlns:dc="http://purl.org/dc/elements/1.1/"
   xmlns:cc="http://creativecommons.org/ns#"
   xmlns:rdf="http://www.w3.org/1999/02/22-rdf-syntax-ns#"
   xmlns:svg="http://www.w3.org/2000/svg"
   xmlns="http://www.w3.org/2000/svg"
   xmlns:sodipodi="http://sodipodi.sourceforge.net/DTD/sodipodi-0.dtd"
   xmlns:inkscape="http://www.inkscape.org/namespaces/inkscape"
   inkscape:version="1.0 (4035a4fb49, 2020-05-01)"
   sodipodi:docname="csharp.svg"
   id="svg492"
   version="1.1"
   width="56"
   viewBox="204.925 153.577 16.97062 22.029901"
   height="64"
   fill="none">
  <metadata
     id="metadata498">
    <rdf:RDF>
      <cc:Work
         rdf:about="">
        <dc:format>image/svg+xml</dc:format>
        <dc:type
           rdf:resource="http://purl.org/dc/dcmitype/StillImage" />
        <dc:title></dc:title>
      </cc:Work>
    </rdf:RDF>
  </metadata>
  <defs
     id="defs496" />
  <sodipodi:namedview
     inkscape:current-layer="g490"
     inkscape:window-maximized="1"
     inkscape:window-y="-8"
     inkscape:window-x="-8"
     inkscape:cy="57.574892"
     inkscape:cx="108.94934"
     inkscape:zoom="5.4138765"
     showgrid="false"
     id="namedview494"
     inkscape:window-height="1027"
     inkscape:window-width="1920"
     inkscape:pageshadow="2"
     inkscape:pageopacity="0"
     guidetolerance="10"
     gridtolerance="10"
     objecttolerance="10"
     borderopacity="1"
     bordercolor="#666666"
     pagecolor="#ffffff"
     inkscape:document-rotation="0" />
  <path
     style="stroke-width:0.0253085"
     id="path478"
     fill="#9a4993"
     d="m 223.13378,160.07092 c 0,-0.36032 -0.0768,-0.6852 -0.23628,-0.95693 -0.15357,-0.27172 -0.38395,-0.49618 -0.6911,-0.67339 -2.55182,-1.47084 -5.10955,-2.94167 -7.66138,-4.41253 -0.69111,-0.39577 -1.3527,-0.38395 -2.03791,0.0178 -1.016,0.59661 -6.10783,3.51466 -7.62001,4.3948 -0.62615,0.36032 -0.9274,0.91559 -0.9274,1.63624 v 8.88411 c 0,0.35441 0.0768,0.66749 0.22446,0.93922 0.1536,0.27763 0.38988,0.51391 0.70294,0.69702 1.5181,0.88015 6.60401,3.79229 7.62001,4.39481 0.68521,0.40159 1.3527,0.41931 2.03791,0.0177 2.55183,-1.47675 5.10956,-2.94168 7.66138,-4.41253 0.31896,-0.18311 0.54935,-0.41349 0.70292,-0.69702 0.14767,-0.27173 0.22446,-0.5848 0.22446,-0.93922 z" />
  <path
     style="stroke-width:0.0253085"
     id="path480"
     fill="#6a1577"
     d="m 213.57038,164.48345 -9.39804,5.41078 c 0.1536,0.27764 0.38988,0.51392 0.70294,0.69705 1.5181,0.88012 6.60401,3.79227 7.62002,4.39479 0.6852,0.4017 1.35271,0.41941 2.03791,0.0177 2.55182,-1.47675 5.10955,-2.94167 7.66137,-4.41251 0.31897,-0.18313 0.54935,-0.41348 0.70292,-0.69705 z" />
  <path
     style="stroke-width:0.0253085"
     id="path482"
     fill="#6a1577"
     d="m 210.78817,166.08423 c 0.54937,0.95694 1.57717,1.60081 2.75267,1.60081 1.18729,0 2.22103,-0.64976 2.76446,-1.61852 l -2.73492,-1.58307 z" />
  <path
     style="stroke-width:0.0253085"
     id="path484"
     fill="#813084"
     d="m 223.1338,160.07092 c 0,-0.36032 -0.0768,-0.6852 -0.23627,-0.95693 l -9.32715,5.36946 9.33894,5.41082 c 0.14767,-0.27174 0.22448,-0.58481 0.22448,-0.93923 z" />
  <g
     transform="matrix(0.02530844,0,0,0.02530844,198.45546,149.87267)"
     id="g490"
     fill="#ffffff">
    <path
       id="path486"
       d="m 705.29213,639.85955 c -21.472,38.044 -62.317,63.952 -109.231,63.952 -46.68,0 -87.291,-25.441 -108.764,-63.252 -10.503,-18.438 -16.572,-39.444 -16.572,-62.084 0,-69.32 56.016,-125.336 125.336,-125.336 46.213,0 86.592,25.207 108.298,62.551 l 109.464,-63.018 c -43.645,-75.154 -124.869,-125.802 -217.995,-125.802 -139.107,0 -251.605,112.732 -251.605,251.605 0,45.513 12.136,88.459 33.376,125.336 43.412,75.388 125.102,126.269 218.462,126.269 93.594,0 175.284,-51.114 218.696,-126.969 z m 138.406,-120.901 h -24.974 v 120.668 h 24.974 z m 55.316,0 h -24.974 v 120.668 h 24.974 z" />
    <path
       id="path488"
       d="m 919.32013,539.26455 h -120.668 v 24.974 h 120.668 z m 0,55.082 h -120.668 v 24.974 h 120.668 z" />
  </g>
</svg>
