<?xml version="1.0" encoding="UTF-8" standalone="no"?>
<svg
   xmlns:dc="http://purl.org/dc/elements/1.1/"
   xmlns:cc="http://creativecommons.org/ns#"
   xmlns:rdf="http://www.w3.org/1999/02/22-rdf-syntax-ns#"
   xmlns:svg="http://www.w3.org/2000/svg"
   xmlns="http://www.w3.org/2000/svg"
   xmlns:sodipodi="http://sodipodi.sourceforge.net/DTD/sodipodi-0.dtd"
   xmlns:inkscape="http://www.inkscape.org/namespaces/inkscape"
   inkscape:version="1.0 (4035a4fb49, 2020-05-01)"
   sodipodi:docname="csharp.svg"
   id="svg492"
   version="1.1"
   width="115"
   viewBox="204.925 153.577 34.850382 39.584978"
   height="115"
   fill="none">
  <metadata
     id="metadata498">
    <rdf:RDF>
      <cc:Work
         rdf:about="">
        <dc:format>image/svg+xml</dc:format>
        <dc:type
           rdf:resource="http://purl.org/dc/dcmitype/StillImage" />
        <dc:title></dc:title>
      </cc:Work>
    </rdf:RDF>
  </metadata>
  <defs
     id="defs496" />
  <sodipodi:namedview
     inkscape:current-layer="svg492"
     inkscape:window-maximized="1"
     inkscape:window-y="-8"
     inkscape:window-x="-8"
     inkscape:cy="58.498445"
     inkscape:cx="108.94934"
     inkscape:zoom="5.4138765"
     showgrid="false"
     id="namedview494"
     inkscape:window-height="1027"
     inkscape:window-width="1920"
     inkscape:pageshadow="2"
     inkscape:pageopacity="0"
     guidetolerance="10"
     gridtolerance="10"
     objecttolerance="10"
     borderopacity="1"
     bordercolor="#666666"
     pagecolor="#ffffff" />
  <path
     style="stroke-width:0.046011"
     id="path478"
     fill="#9a4993"
     d="m 240.0264,165.31506 c 0,-0.65506 -0.1396,-1.2457 -0.42956,-1.73972 -0.27919,-0.49398 -0.69803,-0.90205 -1.25642,-1.22422 -4.63925,-2.67401 -9.28921,-5.34799 -13.92846,-8.02202 -1.25646,-0.71952 -2.45923,-0.69802 -3.70494,0.0323 -1.8471,1.08465 -11.10411,6.38968 -13.85327,7.9898 -1.13835,0.65506 -1.68602,1.66455 -1.68602,2.9747 v 16.15139 c 0,0.64433 0.1396,1.2135 0.40807,1.70751 0.27924,0.50474 0.7088,0.9343 1.27795,1.26719 2.75993,1.60012 12.00617,6.89443 13.85327,7.98981 1.24571,0.7301 2.45921,0.76231 3.70494,0.0322 4.63925,-2.68475 9.28921,-5.348 13.92846,-8.02202 0.57987,-0.3329 0.99871,-0.75173 1.27791,-1.26719 0.26847,-0.49402 0.40807,-1.06318 0.40807,-1.70751 z" />
  <path
     style="stroke-width:0.046011"
     id="path480"
     fill="#6a1577"
     d="m 222.64004,173.33708 -17.08573,9.83687 c 0.27924,0.50474 0.7088,0.9343 1.27796,1.26723 2.75992,1.60008 12.00615,6.89438 13.85327,7.98978 1.24569,0.73028 2.45924,0.76249 3.70494,0.0322 4.63924,-2.68475 9.28921,-5.34799 13.92845,-8.02198 0.57988,-0.33293 0.99872,-0.75172 1.27791,-1.26723 z" />
  <path
     style="stroke-width:0.046011"
     id="path482"
     fill="#6a1577"
     d="m 217.58196,176.24732 c 0.99876,1.73972 2.86731,2.91029 5.00438,2.91029 2.15852,0 4.03784,-1.18128 5.02583,-2.9425 l -4.97213,-2.87803 z" />
  <path
     style="stroke-width:0.046011"
     id="path484"
     fill="#813084"
     d="m 240.02644,165.31506 c 0,-0.65506 -0.13964,-1.2457 -0.42955,-1.73972 l -16.95685,9.76174 16.97829,9.83692 c 0.26847,-0.49402 0.40811,-1.06318 0.40811,-1.70752 z" />
  <g
     transform="matrix(0.046011,0,0,0.046011,195.73892,146.54336)"
     id="g490"
     fill="#ffffff">
    <path
       id="path486"
       d="m 692.731,644.884 c -21.472,38.044 -62.317,63.952 -109.231,63.952 -46.68,0 -87.291,-25.441 -108.764,-63.252 -10.503,-18.438 -16.572,-39.444 -16.572,-62.084 0,-69.32 56.016,-125.336 125.336,-125.336 46.213,0 86.592,25.207 108.298,62.551 L 801.262,457.697 C 757.617,382.543 676.393,331.895 583.267,331.895 c -139.107,0 -251.605,112.732 -251.605,251.605 0,45.513 12.136,88.459 33.376,125.336 43.412,75.388 125.102,126.269 218.462,126.269 93.594,0 175.284,-51.114 218.696,-126.969 z M 831.137,523.983 h -24.974 v 120.668 h 24.974 z m 55.316,0 h -24.974 v 120.668 h 24.974 z" />
    <path
       id="path488"
       d="M 906.759,544.289 H 786.091 v 24.974 h 120.668 z m 0,55.082 H 786.091 v 24.974 h 120.668 z" />
  </g>
</svg>
