<?xml version="1.0" encoding="UTF-8" standalone="no"?>
<svg
   xmlns:dc="http://purl.org/dc/elements/1.1/"
   xmlns:cc="http://creativecommons.org/ns#"
   xmlns:rdf="http://www.w3.org/1999/02/22-rdf-syntax-ns#"
   xmlns:svg="http://www.w3.org/2000/svg"
   xmlns="http://www.w3.org/2000/svg"
   xmlns:sodipodi="http://sodipodi.sourceforge.net/DTD/sodipodi-0.dtd"
   xmlns:inkscape="http://www.inkscape.org/namespaces/inkscape"
   fill="none"
   height="80"
   viewBox="204.925 153.577 21.213276 27.537376"
   width="70"
   version="1.1"
   id="svg492"
   sodipodi:docname="csharp.svg"
   inkscape:version="1.0 (4035a4fb49, 2020-05-01)">
  <metadata
     id="metadata498">
    <rdf:RDF>
      <cc:Work
         rdf:about="">
        <dc:format>image/svg+xml</dc:format>
        <dc:type
           rdf:resource="http://purl.org/dc/dcmitype/StillImage" />
        <dc:title></dc:title>
      </cc:Work>
    </rdf:RDF>
  </metadata>
  <defs
     id="defs496" />
  <sodipodi:namedview
     inkscape:document-rotation="0"
     pagecolor="#ffffff"
     bordercolor="#666666"
     borderopacity="1"
     objecttolerance="10"
     gridtolerance="10"
     guidetolerance="10"
     inkscape:pageopacity="0"
     inkscape:pageshadow="2"
     inkscape:window-width="1920"
     inkscape:window-height="1027"
     id="namedview494"
     showgrid="false"
     inkscape:zoom="5.4138765"
     inkscape:cx="108.94934"
     inkscape:cy="57.574892"
     inkscape:window-x="-8"
     inkscape:window-y="-8"
     inkscape:window-maximized="1"
     inkscape:current-layer="svg492" />
  <path
     d="m 227.56463,161.76657 c 0,-0.44955 -0.0958,-0.8549 -0.2948,-1.19393 -0.1916,-0.33901 -0.47904,-0.61906 -0.86226,-0.84016 -3.18382,-1.83512 -6.375,-3.67022 -9.55883,-5.50536 -0.86228,-0.49379 -1.68772,-0.47904 -2.54263,0.0222 -1.26763,0.74437 -7.62053,4.38511 -9.50723,5.48324 -0.78122,0.44956 -1.15708,1.14235 -1.15708,2.04148 v 11.08439 c 0,0.44219 0.0958,0.8328 0.28005,1.17183 0.19164,0.34639 0.48644,0.64119 0.87703,0.86965 1.89409,1.09813 8.2396,4.73151 9.50723,5.48325 0.85491,0.50105 1.68771,0.52316 2.54263,0.0221 3.18383,-1.84249 6.37501,-3.67023 9.55883,-5.50536 0.39796,-0.22846 0.6854,-0.5159 0.87701,-0.86965 0.18424,-0.33903 0.28005,-0.72964 0.28005,-1.17183 z"
     fill="#9a4993"
     id="path478"
     style="stroke-width:0.0315765" />
  <path
     d="m 215.63271,167.27193 -11.72561,6.75085 c 0.19164,0.3464 0.48644,0.6412 0.87704,0.86968 1.89408,1.0981 8.23959,4.73148 9.50723,5.48323 0.8549,0.50118 1.68773,0.52328 2.54263,0.0221 3.18382,-1.84249 6.37501,-3.67022 9.55883,-5.50533 0.39796,-0.22848 0.6854,-0.51589 0.877,-0.86968 z"
     fill="#6a1577"
     id="path480"
     style="stroke-width:0.0315765" />
  <path
     d="m 212.16145,169.26917 c 0.68542,1.19394 1.96777,1.99728 3.4344,1.99728 1.48135,0 2.7711,-0.81069 3.44913,-2.01938 l -3.41227,-1.97514 z"
     fill="#6a1577"
     id="path482"
     style="stroke-width:0.0315765" />
  <path
     d="m 227.56466,161.76657 c 0,-0.44955 -0.0958,-0.8549 -0.29479,-1.19393 l -11.63716,6.69929 11.65187,6.75089 c 0.18424,-0.33904 0.28008,-0.72964 0.28008,-1.17184 z"
     fill="#813084"
     id="path484"
     style="stroke-width:0.0315765" />
  <g
     fill="#ffffff"
     id="g490"
     transform="matrix(0.03157646,0,0,0.03157646,197.17099,148.88392)">
    <path
       d="m 692.731,644.884 c -21.472,38.044 -62.317,63.952 -109.231,63.952 -46.68,0 -87.291,-25.441 -108.764,-63.252 -10.503,-18.438 -16.572,-39.444 -16.572,-62.084 0,-69.32 56.016,-125.336 125.336,-125.336 46.213,0 86.592,25.207 108.298,62.551 L 801.262,457.697 C 757.617,382.543 676.393,331.895 583.267,331.895 c -139.107,0 -251.605,112.732 -251.605,251.605 0,45.513 12.136,88.459 33.376,125.336 43.412,75.388 125.102,126.269 218.462,126.269 93.594,0 175.284,-51.114 218.696,-126.969 z M 831.137,523.983 h -24.974 v 120.668 h 24.974 z m 55.316,0 h -24.974 v 120.668 h 24.974 z"
       id="path486" />
    <path
       d="M 906.759,544.289 H 786.091 v 24.974 h 120.668 z m 0,55.082 H 786.091 v 24.974 h 120.668 z"
       id="path488" />
  </g>
</svg>
