<?xml version="1.0" encoding="UTF-8" standalone="no"?>
<svg
   xmlns:dc="http://purl.org/dc/elements/1.1/"
   xmlns:cc="http://creativecommons.org/ns#"
   xmlns:rdf="http://www.w3.org/1999/02/22-rdf-syntax-ns#"
   xmlns:svg="http://www.w3.org/2000/svg"
   xmlns="http://www.w3.org/2000/svg"
   xmlns:sodipodi="http://sodipodi.sourceforge.net/DTD/sodipodi-0.dtd"
   xmlns:inkscape="http://www.inkscape.org/namespaces/inkscape"
   inkscape:version="1.0 (4035a4fb49, 2020-05-01)"
   height="115"
   width="115"
   sodipodi:docname="dotnetcore.svg"
   version="1.1"
   viewBox="0 0 115 115"
   data-name="Layer 1"
   id="Layer_1">
  <metadata
     id="metadata70">
    <rdf:RDF>
      <cc:Work
         rdf:about="">
        <dc:format>image/svg+xml</dc:format>
        <dc:type
           rdf:resource="http://purl.org/dc/dcmitype/StillImage" />
        <dc:title>logo_NETcore</dc:title>
      </cc:Work>
    </rdf:RDF>
  </metadata>
  <sodipodi:namedview
     inkscape:current-layer="Layer_1"
     inkscape:window-maximized="1"
     inkscape:window-y="-8"
     inkscape:window-x="-8"
     inkscape:cy="57.524514"
     inkscape:cx="13.297297"
     inkscape:zoom="3.4623801"
     showgrid="false"
     id="namedview68"
     inkscape:window-height="1027"
     inkscape:window-width="1920"
     inkscape:pageshadow="2"
     inkscape:pageopacity="0"
     guidetolerance="10"
     gridtolerance="10"
     objecttolerance="10"
     borderopacity="1"
     bordercolor="#666666"
     pagecolor="#ffffff" />
  <defs
     id="defs43">
    <style
       id="style41">.cls-1{fill:#5c2d91;}.cls-2,.cls-3{fill:#fff;}.cls-2{opacity:0.1;}.cls-4{fill:#f2f2f2;}</style>
  </defs>
  <title
     id="title45">logo_NETcore</title>
  <circle
     style="stroke-width:1.7789"
     id="circle47"
     r="56.92474"
     cy="56.92474"
     cx="57.618526"
     class="cls-1" />
  <path
     style="stroke-width:1.7789"
     id="path49"
     d="M 18.162568,16.010083 A 56.924739,56.924739 0 1 0 98.533183,96.380698 Z"
     class="cls-2" />
  <path
     style="stroke-width:1.7789"
     id="path51"
     d="m 13.857634,66.263954 a 2.4015124,2.4015124 0 0 1 -1.778898,-0.747137 2.4548794,2.4548794 0 0 1 -0.729348,-1.778899 2.4904573,2.4904573 0 0 1 0.729348,-1.778898 2.3837234,2.3837234 0 0 1 1.778898,-0.764926 2.4370904,2.4370904 0 0 1 1.778898,0.764926 2.4726683,2.4726683 0 0 1 0.747137,1.778898 2.4370904,2.4370904 0 0 1 -0.747137,1.778899 2.4548794,2.4548794 0 0 1 -1.778898,0.747137 z"
     class="cls-3" />
  <path
     style="stroke-width:1.7789"
     id="path53"
     d="M 49.204339,65.819229 H 44.543626 L 27.875351,39.954051 A 10.673389,10.673389 0 0 1 26.84359,37.926107 h -0.142312 a 33.300972,33.300972 0 0 1 0.17789,4.447245 V 65.819229 H 23.090115 V 33.389917 h 4.927548 l 16.22355,25.402665 q 1.013972,1.583219 1.316385,2.170255 h 0.08895 A 34.297155,34.297155 0 0 1 45.415286,56.195391 V 33.389917 h 3.789053 z"
     class="cls-3" />
  <path
     style="stroke-width:1.7789"
     id="path55"
     d="M 74.85605,65.819229 H 57.618527 V 33.389917 h 16.437018 v 3.433273 h -12.55902 v 10.780123 h 11.705149 v 3.415484 H 61.496525 v 11.242636 h 13.377314 z"
     class="cls-3" />
  <path
     style="stroke-width:1.7789"
     id="path57"
     d="M 100.31208,36.82319 H 90.883921 V 65.819229 H 87.094868 V 36.82319 h -9.321426 v -3.433273 h 22.538638 z"
     class="cls-3" />
  <path
     style="stroke-width:1.7789"
     id="path59"
     d="m 47.158606,87.877565 a 8.7699676,8.7699676 0 0 1 -4.127043,0.871661 6.6530788,6.6530788 0 0 1 -5.105438,-2.045733 7.5781058,7.5781058 0 0 1 -1.92121,-5.336695 7.9338855,7.9338855 0 0 1 2.152467,-5.799207 7.3290601,7.3290601 0 0 1 5.479006,-2.205834 8.7699676,8.7699676 0 0 1 3.557796,0.622614 v 1.778898 a 7.1155923,7.1155923 0 0 0 -3.557796,-0.889449 5.4434281,5.4434281 0 0 0 -4.18041,1.778899 6.475189,6.475189 0 0 0 -1.601009,4.589557 6.1727764,6.1727764 0 0 0 1.494275,4.3583 5.0876485,5.0876485 0 0 0 3.931365,1.618797 7.3646381,7.3646381 0 0 0 3.895786,-0.996183 z"
     class="cls-4" />
  <path
     style="stroke-width:1.7789"
     id="path61"
     d="m 54.4343,88.749226 a 4.9453367,4.9453367 0 0 1 -3.789053,-1.58322 5.532373,5.532373 0 0 1 -1.40533,-3.966943 5.7636298,5.7636298 0 0 1 1.476486,-4.198199 5.3366943,5.3366943 0 0 1 3.966942,-1.512063 4.7852359,4.7852359 0 0 1 3.717897,1.476485 5.8347857,5.8347857 0 0 1 1.334174,4.073677 5.7280518,5.7280518 0 0 1 -1.440908,4.091465 5.0520706,5.0520706 0 0 1 -3.860208,1.618798 z m 0.124522,-9.730573 a 3.2553835,3.2553835 0 0 0 -2.597191,1.120706 4.607346,4.607346 0 0 0 -0.960605,3.095282 4.3583003,4.3583003 0 0 0 0.960605,2.988549 3.2909615,3.2909615 0 0 0 2.597191,1.102917 3.1308606,3.1308606 0 0 0 2.543825,-1.067339 4.660713,4.660713 0 0 0 0.889449,-3.059705 4.7318689,4.7318689 0 0 0 -0.889449,-3.077493 3.1130717,3.1130717 0 0 0 -2.543825,-1.102917 z"
     class="cls-4" />
  <path
     style="stroke-width:1.7789"
     id="path63"
     d="m 68.04287,79.552322 a 2.0990997,2.0990997 0 0 0 -1.298596,-0.33799 2.1880446,2.1880446 0 0 0 -1.778898,1.031761 4.7674469,4.7674469 0 0 0 -0.729348,2.810659 V 88.50018 H 62.45713 V 77.826791 h 1.778898 v 2.223623 0 a 3.735686,3.735686 0 0 1 1.120706,-1.778898 2.5438243,2.5438243 0 0 1 1.672164,-0.622615 2.79287,2.79287 0 0 1 1.013972,0.142312 z"
     class="cls-4" />
  <path
     style="stroke-width:1.7789"
     id="path65"
     d="m 78.467213,83.60821 h -7.524739 a 3.9847317,3.9847317 0 0 0 0.907238,2.739503 3.3087504,3.3087504 0 0 0 2.526035,0.960605 5.3366943,5.3366943 0 0 0 3.308751,-1.191862 v 1.601009 a 6.1905653,6.1905653 0 0 1 -3.717897,1.013972 4.5184011,4.5184011 0 0 1 -3.557797,-1.458697 5.9593086,5.9593086 0 0 1 -1.298595,-4.091465 5.8347857,5.8347857 0 0 1 1.405329,-4.055888 4.5361901,4.5361901 0 0 1 3.557796,-1.56543 4.0203097,4.0203097 0 0 1 3.237595,1.351962 5.6568959,5.6568959 0 0 1 1.138495,3.771264 z m -1.778898,-1.440907 a 3.5577962,3.5577962 0 0 0 -0.71156,-2.294779 2.4370904,2.4370904 0 0 0 -1.956788,-0.818293 2.757292,2.757292 0 0 0 -2.045732,0.87166 3.9313648,3.9313648 0 0 0 -1.04955,2.259201 z"
     class="cls-4" />
</svg>
