<?xml version="1.0" encoding="UTF-8" standalone="no"?>
<svg
   xmlns:dc="http://purl.org/dc/elements/1.1/"
   xmlns:cc="http://creativecommons.org/ns#"
   xmlns:rdf="http://www.w3.org/1999/02/22-rdf-syntax-ns#"
   xmlns:svg="http://www.w3.org/2000/svg"
   xmlns="http://www.w3.org/2000/svg"
   xmlns:sodipodi="http://sodipodi.sourceforge.net/DTD/sodipodi-0.dtd"
   xmlns:inkscape="http://www.inkscape.org/namespaces/inkscape"
   id="Layer_1"
   data-name="Layer 1"
   viewBox="0 0 64 64"
   version="1.1"
   sodipodi:docname="dotnetcore.svg"
   width="64"
   height="64"
   inkscape:version="1.0 (4035a4fb49, 2020-05-01)">
  <metadata
     id="metadata70">
    <rdf:RDF>
      <cc:Work
         rdf:about="">
        <dc:format>image/svg+xml</dc:format>
        <dc:type
           rdf:resource="http://purl.org/dc/dcmitype/StillImage" />
        <dc:title>logo_NETcore</dc:title>
      </cc:Work>
    </rdf:RDF>
  </metadata>
  <sodipodi:namedview
     inkscape:document-rotation="0"
     pagecolor="#ffffff"
     bordercolor="#666666"
     borderopacity="1"
     objecttolerance="10"
     gridtolerance="10"
     guidetolerance="10"
     inkscape:pageopacity="0"
     inkscape:pageshadow="2"
     inkscape:window-width="1920"
     inkscape:window-height="1027"
     id="namedview68"
     showgrid="false"
     inkscape:zoom="3.4623801"
     inkscape:cx="-35.946285"
     inkscape:cy="57.524514"
     inkscape:window-x="-8"
     inkscape:window-y="-8"
     inkscape:window-maximized="1"
     inkscape:current-layer="Layer_1" />
  <defs
     id="defs43">
    <style
       id="style41">.cls-1{fill:#5c2d91;}.cls-2,.cls-3{fill:#fff;}.cls-2{opacity:0.1;}.cls-4{fill:#f2f2f2;}</style>
  </defs>
  <title
     id="title45">logo_NETcore</title>
  <circle
     class="cls-1"
     cx="31.707214"
     cy="31.715147"
     r="31.715147"
     id="circle47"
     style="stroke-width:0.991099" />
  <path
     class="cls-2"
     d="M 9.7246537,8.9198853 A 31.715147,31.715147 0 1 0 54.502477,53.697708 Z"
     id="path49"
     style="stroke-width:0.991099" />
  <path
     class="cls-3"
     d="M 7.3261953,36.918414 A 1.3379828,1.3379828 0 0 1 6.335097,36.502153 1.3677157,1.3677157 0 0 1 5.9287468,35.511054 1.3875377,1.3875377 0 0 1 6.335097,34.519955 a 1.3280718,1.3280718 0 0 1 0.9910983,-0.426172 1.3578048,1.3578048 0 0 1 0.9910983,0.426172 1.3776267,1.3776267 0 0 1 0.4162612,0.991099 1.3578048,1.3578048 0 0 1 -0.4162612,0.991099 1.3677157,1.3677157 0 0 1 -0.9910983,0.416261 z"
     id="path51"
     style="stroke-width:0.991099" />
  <path
     class="cls-3"
     d="M 27.01932,36.670639 H 24.422642 L 15.13605,22.260069 a 5.9465904,5.9465904 0 0 1 -0.574837,-1.129852 h -0.07929 a 18.553361,18.553361 0 0 1 0.09911,2.477745 V 36.670639 H 12.469996 V 18.602916 h 2.745342 l 9.038817,14.152885 q 0.564926,0.882077 0.733413,1.209139 h 0.04956 A 19.108376,19.108376 0 0 1 24.90828,31.308797 V 18.602916 h 2.11104 z"
     id="path53"
     style="stroke-width:0.991099" />
  <path
     class="cls-3"
     d="M 41.310958,36.670639 H 31.707215 V 18.602916 h 9.157748 v 1.91282 h -6.997154 v 6.006056 h 6.521427 v 1.902909 h -6.521427 v 6.263741 h 7.45306 z"
     id="path55"
     style="stroke-width:0.991099" />
  <path
     class="cls-3"
     d="m 55.493575,20.515736 h -5.252821 v 16.154903 h -2.11104 V 20.515736 h -5.193355 v -1.91282 h 12.557216 z"
     id="path57"
     style="stroke-width:0.991099" />
  <path
     class="cls-4"
     d="m 25.879556,48.960258 a 4.8861149,4.8861149 0 0 1 -2.299347,0.485639 3.7067078,3.7067078 0 0 1 -2.844453,-1.139763 4.222079,4.222079 0 0 1 -1.070386,-2.973296 4.4202987,4.4202987 0 0 1 1.199229,-3.23098 4.0833252,4.0833252 0 0 1 3.052583,-1.228962 4.8861149,4.8861149 0 0 1 1.982196,0.346884 v 0.991099 a 3.9643934,3.9643934 0 0 0 -1.982196,-0.49555 3.0327609,3.0327609 0 0 0 -2.329081,0.991099 3.607598,3.607598 0 0 0 -0.891989,2.557034 3.4391113,3.4391113 0 0 0 0.832523,2.428191 2.8345413,2.8345413 0 0 0 2.190327,0.901899 4.1031472,4.1031472 0 0 0 2.170505,-0.555015 z"
     id="path59"
     style="stroke-width:0.991099" />
  <path
     class="cls-4"
     d="m 29.933149,49.445897 a 2.7552534,2.7552534 0 0 1 -2.111039,-0.882078 3.0823158,3.0823158 0 0 1 -0.782968,-2.210149 3.2111587,3.2111587 0 0 1 0.822612,-2.338992 2.9732951,2.9732951 0 0 1 2.210148,-0.842434 2.6660546,2.6660546 0 0 1 2.071396,0.822612 3.2508026,3.2508026 0 0 1 0.743324,2.269615 3.1913367,3.1913367 0 0 1 -0.80279,2.279526 2.8147193,2.8147193 0 0 1 -2.150683,0.9019 z m 0.06938,-5.421308 a 1.81371,1.81371 0 0 0 -1.447004,0.624392 2.5669447,2.5669447 0 0 0 -0.535193,1.724511 2.428191,2.428191 0 0 0 0.535193,1.665045 1.833532,1.833532 0 0 0 1.447004,0.614481 1.7443331,1.7443331 0 0 0 1.417271,-0.594659 2.5966777,2.5966777 0 0 0 0.495549,-1.704689 2.6363216,2.6363216 0 0 0 -0.495549,-1.7146 1.7344221,1.7344221 0 0 0 -1.417271,-0.614481 z"
     id="path61"
     style="stroke-width:0.991099" />
  <path
     class="cls-4"
     d="m 37.515051,44.321918 a 1.169496,1.169496 0 0 0 -0.723502,-0.188308 1.2190509,1.2190509 0 0 0 -0.991098,0.574837 2.6561436,2.6561436 0 0 0 -0.40635,1.565935 v 3.032761 h -0.991099 v -5.94659 h 0.991099 v 1.238873 0 a 2.0813065,2.0813065 0 0 1 0.624392,-0.991098 1.4172707,1.4172707 0 0 1 0.931632,-0.346885 1.5560244,1.5560244 0 0 1 0.564926,0.07929 z"
     id="path63"
     style="stroke-width:0.991099" />
  <path
     class="cls-4"
     d="m 43.322888,46.581622 h -4.192346 a 2.2200603,2.2200603 0 0 0 0.50546,1.526292 1.8434429,1.8434429 0 0 0 1.407359,0.535193 2.9732951,2.9732951 0 0 0 1.843444,-0.664036 v 0.891989 a 3.4490222,3.4490222 0 0 1 -2.071396,0.564926 2.5173898,2.5173898 0 0 1 -1.982197,-0.812701 3.3201795,3.3201795 0 0 1 -0.723502,-2.279526 3.2508026,3.2508026 0 0 1 0.782968,-2.259704 2.5273008,2.5273008 0 0 1 1.982196,-0.872167 2.2398823,2.2398823 0 0 1 1.8038,0.753235 3.1516927,3.1516927 0 0 1 0.634303,2.101128 z m -0.991099,-0.802789 a 1.9821967,1.9821967 0 0 0 -0.396439,-1.278517 1.3578048,1.3578048 0 0 0 -1.090209,-0.455905 1.5362024,1.5362024 0 0 0 -1.139762,0.485638 2.1903274,2.1903274 0 0 0 -0.584748,1.258695 z"
     id="path65"
     style="stroke-width:0.991099" />
</svg>
