<?xml version="1.0" encoding="UTF-8" standalone="no"?>
<svg
   xmlns:dc="http://purl.org/dc/elements/1.1/"
   xmlns:cc="http://creativecommons.org/ns#"
   xmlns:rdf="http://www.w3.org/1999/02/22-rdf-syntax-ns#"
   xmlns:svg="http://www.w3.org/2000/svg"
   xmlns="http://www.w3.org/2000/svg"
   xmlns:sodipodi="http://sodipodi.sourceforge.net/DTD/sodipodi-0.dtd"
   xmlns:inkscape="http://www.inkscape.org/namespaces/inkscape"
   inkscape:version="1.0 (4035a4fb49, 2020-05-01)"
   sodipodi:docname="dotnetcoreshow.svg"
   xml:space="preserve"
   enable-background="new 0 0 1080 1080"
   viewBox="0 0 115 115"
   height="115"
   width="115"
   y="0px"
   x="0px"
   id="Layer_1"
   version="1.1"><metadata
   id="metadata454"><rdf:RDF><cc:Work
       rdf:about=""><dc:format>image/svg+xml</dc:format><dc:type
         rdf:resource="http://purl.org/dc/dcmitype/StillImage" /><dc:title></dc:title></cc:Work></rdf:RDF></metadata><defs
   id="defs452" /><sodipodi:namedview
   inkscape:current-layer="Layer_1"
   inkscape:window-maximized="1"
   inkscape:window-y="-8"
   inkscape:window-x="-8"
   inkscape:cy="53.030231"
   inkscape:cx="122.45408"
   inkscape:zoom="5.7243157"
   inkscape:lockguides="true"
   showgrid="false"
   id="namedview450"
   inkscape:window-height="1027"
   inkscape:window-width="1920"
   inkscape:pageshadow="2"
   inkscape:pageopacity="0"
   guidetolerance="10"
   gridtolerance="10"
   objecttolerance="10"
   borderopacity="1"
   bordercolor="#666666"
   pagecolor="#ffffff" />
<g
   transform="matrix(0.10786419,0,0,0.10786419,-1.9636099,-0.86458666)"
   id="g447">
	<path
   id="path233"
   d="m 275.418,467.329 c -1.832,-1.9 -3.574,-3.876 -5.22,-5.925 0.028,3.056 0.172,6.167 0.475,9.356 1.484,-1.145 3.078,-2.308 4.745,-3.431 z"
   fill="none" />
	<path
   id="path235"
   d="m 332.187,260.204 c -4.36,8.464 -8.958,16.805 -13.518,25.163 -1.746,3.2 -3.494,6.399 -5.244,9.597 5.586,-2.632 11.377,-4.656 17.311,-6.047 8.484,-10.428 17.662,-19.892 27.48,-28.356 -6.639,-1.168 -13.285,-2.301 -19.946,-3.363 -3.086,-0.495 -4.666,0.248 -6.083,3.006 z"
   fill="none" />
	<path
   id="path237"
   d="m 240.133,552.977 c -0.183,4.339 -0.432,8.715 -0.679,12.973 l -0.008,0.146 c -0.818,14.07 -1.663,28.594 0.052,41.731 0.555,4.251 1.176,8.533 1.823,12.822 2.946,-0.638 5.807,-1.053 8.538,-1.217 l 10.108,-8.486 1.078,0.097 8.5,-7.317 c -1.593,-8.229 -3.158,-23.781 4.547,-34.234 -2.03,-4.629 -3.943,-9.398 -5.743,-14.283 -8.065,2.773 -15.823,5.812 -23.157,9.09 z"
   fill="none" />
	<path
   id="path239"
   d="m 463.725,196.517 c 9.076,4.016 18.179,8.007 26.805,12.913 l 2.508,-0.173 c -0.867,-3.191 -1.818,-6.365 -2.884,-9.516 -0.406,-1.195 -0.837,-2.379 -1.287,-3.556 -8.444,-0.046 -16.845,0.064 -25.142,0.332 z"
   fill="none" />
	<path
   id="path241"
   d="m 930.814,768.389 c -4.05,9.892 -8.523,20.254 -13.333,30.875 l 30.123,13.641 c 5.758,-12.717 11.067,-25.102 15.772,-36.805 l -29.101,-11.7 c -0.904,1.302 -2.04,2.663 -3.461,3.989 z"
   fill="#ad8bba" />
	<path
   id="path243"
   d="m 538.542,879.241 25.809,20.675 c 7.04,-8.791 14.706,-19.002 24.13,-32.133 l -26.869,-19.279 c -9.075,12.646 -16.405,22.415 -23.07,30.737 z"
   fill="#ad8bba" />
	<path
   id="path245"
   d="m 451.14,936.682 c -8.69,0.188 -18.743,-0.985 -29.942,-3.479 l -7.188,32.274 c 12.785,2.852 24.672,4.295 35.322,4.295 0.859,0 1.708,-0.01 2.49,-0.029 2.031,-0.038 4.037,-0.136 6.023,-0.284 l -2.474,-32.978 c -1.373,0.104 -2.766,0.175 -4.231,0.201 z"
   fill="#ad8bba" />
	<path
   id="path247"
   d="m 486.087,927.442 15.468,29.226 c 11.861,-6.278 23.326,-14.768 35.042,-25.954 l -22.838,-23.917 c -9.484,9.058 -18.536,15.811 -27.672,20.645 z"
   fill="#ad8bba" />
	<path
   id="path249"
   d="m 905.31,611.146 c 12.998,-2.174 24.04,-2.268 32.478,-0.269 l 7.641,-32.171 c -12.836,-3.052 -28.104,-3.103 -45.588,-0.171 z"
   fill="#ad8bba" />
	<path
   id="path251"
   d="m 179.911,761.632 -27.708,18.052 c 7.166,11 15.49,22.141 24.737,33.107 l 25.283,-21.313 c -8.377,-9.937 -15.884,-19.977 -22.312,-29.846 z"
   fill="#ad8bba" />
	<path
   id="path253"
   d="m 852.771,499.998 14.713,29.613 c 15.311,-7.605 27.45,-17.735 36.085,-30.114 L 876.446,480.58 c -5.5,7.883 -13.243,14.235 -23.675,19.418 z"
   fill="#ad8bba" />
	<path
   id="path255"
   d="m 728.148,206.771 c -12.223,-4.918 -25.085,-9.51 -38.223,-13.641 l -9.92,31.544 c 12.323,3.875 24.365,8.173 35.801,12.775 z"
   fill="#ad8bba" />
	<path
   id="path257"
   d="m 650.968,182.335 c -12.82,-3.094 -26.106,-5.865 -39.482,-8.235 l -5.773,32.559 c 12.717,2.254 25.334,4.886 37.499,7.821 z"
   fill="#ad8bba" />
	<path
   id="path259"
   d="m 800.806,244.234 c -11.08,-7.269 -23.032,-14.193 -35.52,-20.587 l -15.068,29.432 c 11.438,5.858 22.356,12.185 32.452,18.805 z"
   fill="#ad8bba" />
	<path
   id="path261"
   d="m 885.036,419.93 c 1.237,7.783 1.863,15.139 1.863,21.859 0,3.452 -0.165,6.798 -0.49,9.943 l 32.894,3.403 c 0.442,-4.272 0.665,-8.764 0.665,-13.347 0,-8.451 -0.766,-17.551 -2.273,-27.068 -0.171,-1.065 -0.349,-2.125 -0.529,-3.184 l -32.597,5.574 z"
   fill="#ad8bba" />
	<path
   id="path263"
   d="m 875.261,382.159 31.041,-11.393 c -4.835,-13.169 -10.948,-26.006 -18.175,-38.151 l -28.418,16.909 c 6.187,10.398 11.419,21.378 15.552,32.635 z"
   fill="#ad8bba" />
	<path
   id="path265"
   d="m 838.44,320.05 25.079,-21.559 c -8.839,-10.279 -18.792,-20.184 -29.591,-29.445 l -21.526,25.105 c 9.53,8.169 18.291,16.886 26.038,25.899 z"
   fill="#ad8bba" />
	<path
   id="path267"
   d="m 956.708,625.267 c 3.197,6.53 4.818,15.362 4.818,26.216 -0.003,1.411 -0.029,2.846 -0.081,4.302 l 33.049,1.169 c 0.065,-1.824 0.098,-3.627 0.101,-5.438 0,-15.969 -2.755,-29.69 -8.184,-40.786 z"
   fill="#ad8bba" />
	<path
   id="path269"
   d="m 945.964,727.824 31.376,10.443 c 4.657,-13.986 8.419,-27.229 11.184,-39.358 l -32.241,-7.351 c -2.53,11.09 -6.002,23.291 -10.319,36.266 z"
   fill="#ad8bba" />
	<path
   id="path271"
   d="m 689.765,692.256 0.032,0.065 c 0.929,2.217 2.153,5.073 3.437,7.994 l 15.92,16.807 c 9.278,-8.79 18.882,-17.174 28.551,-24.921 l -20.681,-25.802 c -9.351,7.49 -18.635,15.535 -27.65,23.94 0.014,0.063 0.03,0.129 0.043,0.192 z"
   fill="#ad8bba" />
	<path
   id="path273"
   d="m 883.215,868.981 29.265,15.397 c 6.326,-12.025 12.406,-23.948 18.067,-35.436 l -29.664,-14.615 c -5.532,11.226 -11.478,22.887 -17.668,34.654 z"
   fill="#ad8bba" />
	<path
   id="path275"
   d="m 866.246,949.301 7.714,4.493 c 6.723,-11.542 13.327,-23.148 19.621,-34.489 l -28.909,-16.05 c -3.527,6.353 -7.158,12.791 -10.848,19.254 v 0.413 c 5.158,7.822 9.222,16.89 12.422,26.379 z"
   fill="#ad8bba" />
	<path
   id="path277"
   d="m 240.242,550.289 c -0.031,0.893 -0.07,1.79 -0.108,2.688 l 5.059,11.32 c 7.334,-3.278 15.092,-6.316 23.157,-9.09 -3.699,-10.044 -6.857,-20.636 -9.33,-31.759 -3.469,1.176 -6.889,2.399 -10.257,3.665 -1.545,7.198 -4.383,14.103 -8.596,20.915 0.077,0.747 0.102,1.501 0.075,2.261 z"
   fill="#ad8bba" />
	<path
   id="path279"
   d="m 134.432,614.626 c -7.6,13.321 -12.682,27.553 -15.107,42.302 l 32.629,5.367 c 1.61,-9.791 4.846,-19.305 9.603,-28.338 0.286,-1.137 0.658,-2.212 1.101,-3.229 z"
   fill="#ad8bba" />
	<path
   id="path281"
   d="m 555.565,199.729 c 4.08,0.412 8.149,0.846 12.186,1.326 l 2.2,-18.494 c -0.582,0.978 -1.194,1.94 -1.828,2.89 -3.564,5.328 -7.8,10.055 -12.558,14.278 z"
   fill="#ad8bba" />
	<path
   id="path283"
   d="m 784.778,621.347 c -11.894,6.445 -23.636,13.515 -34.899,21.013 l 18.323,27.527 c 10.434,-6.946 21.311,-13.495 32.329,-19.463 z"
   fill="#ad8bba" />
	<path
   id="path285"
   d="m 152.256,695.941 -32.613,5.477 c 2.259,13.45 6.465,27.346 12.501,41.307 l 30.352,-13.127 c -4.979,-11.513 -8.423,-22.835 -10.24,-33.657 z"
   fill="#ad8bba" />
	<path
   id="path287"
   d="m 809.386,541.792 c 2.412,0.675 4.354,1.569 5.794,2.383 l 1.455,0.599 c 3.232,-0.519 6.382,-1.085 9.46,-1.699 l -6.472,-32.429 c -10.719,2.138 -23.106,3.678 -36.814,4.576 l 0.146,2.23 c 2.585,5.322 4.037,10.823 4.649,15.376 z"
   fill="#ad8bba" />
	<path
   id="path289"
   d="m 607.427,784.306 c -8.445,11.415 -16.457,22.686 -23.181,32.202 l 27.011,19.079 c 6.244,-8.839 13.613,-19.203 21.356,-29.717 -0.443,-1.244 -0.861,-2.529 -1.247,-3.854 z"
   fill="#ad8bba" />
	<path
   id="path291"
   d="m 256.197,844.451 c -9.93,-8.234 -19.436,-16.775 -28.249,-25.385 l -23.109,23.651 c 9.454,9.235 19.629,18.384 30.248,27.188 z"
   fill="#ad8bba" />
	<path
   id="path293"
   d="m 860.113,591.347 -0.75,-2.245 c -0.07,0.023 -0.141,0.049 -0.211,0.073 -0.029,0.266 -0.059,0.522 -0.087,0.741 0.422,0.541 0.769,1.023 1.048,1.431 z"
   fill="#ad8bba" />
	<path
   id="path295"
   d="m 377.133,205.776 c 11.855,-2.312 24.491,-4.243 37.557,-5.738 l -2.641,-23.047 -1.124,-9.808 c -7.353,0.843 -14.583,1.82 -21.645,2.917 -6.309,0.979 -12.484,2.053 -18.477,3.222 z"
   fill="#ad8bba" />
	<path
   id="path297"
   d="m 463.725,196.517 c 8.297,-0.268 16.698,-0.377 25.143,-0.332 -1.32,-3.453 -2.807,-6.836 -4.319,-10.21 -3.174,-7.075 -5.373,-14.432 -6.449,-22.137 -0.032,-0.229 -0.053,-0.457 -0.081,-0.685 -9.043,0.093 -18.028,0.338 -26.859,0.771 l 1.371,27.828 0.256,5.202 c 3.619,-0.179 7.271,-0.319 10.938,-0.437 z"
   fill="#ad8bba" />
	<path
   id="path299"
   d="m 340.002,215.054 -9.92,-31.544 c -6.998,2.202 -13.699,4.589 -19.916,7.098 l 12.381,30.666 c 5.413,-2.186 11.284,-4.279 17.455,-6.22 z"
   fill="#ad8bba" />
	<path
   id="path301"
   d="m 241.075,350.274 c -7.155,18.409 -2.955,38.006 9.134,49.029 0.35,-13.476 3.19,-27.655 8.79,-42.063 5.59,-14.382 12.999,-26.761 21.736,-36.958 -16.297,0.054 -32.532,11.653 -39.66,29.992 z"
   fill="#ad8bba" />
	<path
   id="path303"
   d="m 290.116,410.687 c -1.456,0.57 -2.911,1.121 -4.364,1.6 -4.998,1.646 -10.036,3.184 -15.084,4.641 5.727,-7.208 13.953,-13.216 23.247,-17.631 0.479,-1.225 0.969,-2.449 1.496,-3.67 -2.306,-1.55 -4.575,-3.146 -6.801,-4.792 l -6.491,-4.805 1.932,-7.838 c 0.366,-1.484 8.922,-35.395 34.292,-72.645 -21.223,10.412 -39.534,29.882 -49.5,55.521 -8.164,21.004 -9.385,42.731 -4.827,62.004 7.986,-0.956 15.909,-1.882 23.797,-2.733 0.633,-3.199 1.398,-6.421 2.303,-9.652 z"
   fill="#ad8bba" />
	<path
   id="path305"
   d="m 271.531,443.564 c 3.536,6.859 7.958,13.11 13.175,18.564 0.312,-0.135 0.624,-0.273 0.936,-0.398 -0.8,-10.129 -0.796,-21.717 0.9,-33.85 -8.737,3.043 -13.618,8.146 -15.011,15.684 z"
   fill="#ad8bba" />
	<path
   id="path307"
   d="m 934.275,764.4 c 0.288,-0.416 0.563,-0.828 0.806,-1.228 2.784,-4.566 3.669,-9.269 3.769,-13.228 l 0.623,-0.814 c 9.149,-11.961 3.627,-26.822 -6.629,-35.528 -6.518,-6.323 -9.879,-10.192 -11.555,-12.33 l -0.494,-13.841 c -0.081,-9.526 -3.417,-20.636 -10.021,-33.165 -2.335,-4.935 -11.559,-22.854 -25.712,-30.481 l -4.496,-5.735 -2.573,-3.281 -6.249,-7.964 -2.202,-3.643 -0.701,-0.064 -7.014,-8.933 -0.976,-1.673 c -0.114,-0.195 -0.364,-0.602 -0.738,-1.146 -0.279,-0.407 -0.626,-0.89 -1.048,-1.431 0.028,-0.219 0.058,-0.476 0.087,-0.741 0.517,-4.754 0.855,-16.776 -6.945,-27.051 -4.257,-5.606 -12.521,-12.55 -27.724,-14.119 l -7.849,-3.231 -1.455,-0.599 c -1.44,-0.813 -3.382,-1.708 -5.794,-2.383 l -21.782,-8.965 c -0.612,-4.554 -2.064,-10.055 -4.649,-15.376 -3.442,-7.088 -8.899,-13.856 -17.116,-17.634 1.324,-7.501 2.329,-14.807 3.067,-21.911 29.69,-7.537 50.211,-29.929 56.346,-59.795 16.546,-7.839 26.297,-28.13 21.483,-49.433 -4.797,-21.221 -22.501,-35.255 -40.807,-35.31 -18.477,-24.117 -46.738,-35.455 -76.569,-29.786 -23.927,-34.787 -59.26,-61.703 -104.058,-78.91 -34.25,-13.162 -64.583,-17.118 -77.527,-18.272 1.596,-1.429 3.215,-2.836 4.889,-4.193 0.991,-0.803 1.954,-1.633 2.903,-2.476 4.758,-4.223 8.993,-8.95 12.558,-14.278 0.634,-0.95 1.246,-1.913 1.828,-2.89 1.523,-2.559 2.815,-5.233 3.574,-8.145 2.508,-9.607 2.078,-19.134 -1.154,-28.509 -6.83,-19.834 -25.229,-32.997 -46.093,-33.023 -18.239,-0.026 -35.438,10.634 -43.735,27.072 -3.698,7.333 -5.513,14.974 -4.524,23.196 0.027,0.229 0.049,0.456 0.081,0.685 1.076,7.705 3.275,15.062 6.449,22.137 1.513,3.374 2.999,6.758 4.319,10.21 0.45,1.177 0.881,2.361 1.287,3.556 1.066,3.15 2.017,6.325 2.884,9.516 l -2.508,0.173 c -8.626,-4.906 -17.729,-8.897 -26.805,-12.913 -3.667,0.119 -7.319,0.258 -10.938,0.438 l -0.256,-5.202 c -13.294,-5.479 -26.805,-10.354 -40.481,-14.762 l 2.641,23.047 c -13.066,1.495 -25.702,3.426 -37.557,5.738 l -6.33,-32.455 c 5.993,-1.169 12.168,-2.243 18.477,-3.222 -0.784,-0.223 -1.564,-0.456 -2.349,-0.676 -6.3,-1.767 -6.388,-1.828 -3.384,-7.821 12.633,-25.225 25.334,-50.413 37.993,-75.625 6.649,-13.247 12.094,-27.039 18.278,-40.496 0.604,-1.311 0.708,-3.058 2.48,-3.598 -0.469,-0.817 -0.934,-1.634 -1.398,-2.448 -5.251,-1.479 -10.13,-3.875 -14.991,-6.268 -1.447,-0.717 -1.385,-2.413 -1.13,-3.801 0.4,-2.189 0.827,-4.402 1.576,-6.485 0.972,-2.693 0.368,-4.208 -2.513,-4.889 -8.002,-1.879 -16.014,-3.601 -24.275,-3.888 -3.568,-0.126 -6.494,0.662 -9.045,3.526 -2.861,3.22 -6.003,6.297 -9.901,8.364 -3.09,1.637 -4.392,1.017 -4.444,-2.444 -0.045,-3.026 -1.253,-3.969 -4.224,-4.111 -3.533,-0.168 -7.24,0.714 -10.605,-1.13 -3.471,1.986 -6.943,3.972 -10.411,5.958 0.995,1.498 -0.174,2.7 -0.652,3.92 -14.222,36.084 -29.032,71.92 -44.752,107.382 -1.382,3.116 -2.758,6.249 -3.84,9.472 -0.843,2.509 -2.173,3.071 -4.741,2.732 -16.209,-2.135 -32.18,-5.639 -48.32,-8.161 -14.648,-2.287 -29.361,-3.817 -44.186,-4.24 -4.09,-0.116 -7.476,0.985 -10.319,4.208 -5.262,5.971 -9.405,12.617 -12.756,19.773 -1.373,2.926 -3.226,4.647 -6.61,4.864 -3.626,0.236 -7.214,1.079 -10.841,1.308 -3.653,0.233 -6.436,1.718 -8.865,4.389 -4.087,4.492 -6.916,9.746 -9.67,15.078 -0.54,1.046 -0.494,1.825 0.499,2.371 2.865,1.576 2.042,3.429 0.58,5.48 -3.544,4.977 -7.067,9.969 -10.532,14.997 -4.382,6.365 -7.09,13.224 -6.118,21.162 0.218,1.77 0.769,2.748 2.797,2.78 30.611,0.536 60.891,4.773 91.237,8.273 9.456,1.088 18.898,2.325 28.342,3.514 4.011,0.5 4.002,0.52 2.304,4.221 -20.817,45.311 -43.974,89.411 -68.67,132.713 -3.959,6.939 -7.923,13.879 -11.847,20.839 -0.822,1.459 -2.266,2.942 -0.257,4.641 0.267,0.223 0.393,0.995 0.215,1.298 -1.876,3.213 -2.056,7.16 -4.402,10.156 0.467,0.817 0.933,1.634 1.402,2.451 3.916,-0.823 7.669,0.465 11.271,1.453 5.185,1.418 9.11,0.32 12.971,-3.313 4.24,-3.992 9.9,-2.671 15.046,-2.887 1.829,-0.074 1.264,1.615 0.933,2.684 -0.714,2.306 0.229,3.21 2.479,3.42 6.321,0.588 12.622,-0.11 18.935,-0.188 1.198,-0.016 2.556,-0.833 3.554,0.536 1.836,-1.049 3.674,-2.102 5.511,-3.152 -0.605,-1.095 0.284,-1.766 0.767,-2.502 1.95,-2.97 3.879,-5.951 5.798,-8.939 0.708,0.549 1.429,1.083 2.172,1.587 0.331,5.438 1.075,10.737 2.222,15.861 -0.963,0.116 -1.926,0.232 -2.892,0.349 -1.466,3.752 -2.795,6.901 -3.862,10.079 -0.256,0.762 -0.262,2.038 0.692,2.409 13.245,5.161 11.237,13.085 11.854,21.117 0.462,6.048 1.61,12.481 4.467,19.512 l -4.015,8.845 -1.905,26.377 c 0.62,3.494 1.333,6.919 2.088,10.313 2.473,11.123 5.631,21.715 9.33,31.759 1.8,4.885 3.712,9.654 5.743,14.283 -7.705,10.453 -6.14,26.006 -4.547,34.234 l -8.5,7.317 -1.078,-0.097 -10.108,8.486 c -2.731,0.164 -5.592,0.579 -8.538,1.217 -0.646,-4.289 -1.268,-8.571 -1.823,-12.822 -1.714,-13.138 -0.87,-27.661 -0.052,-41.731 l 0.008,-0.146 c 0.247,-4.258 0.496,-8.634 0.679,-12.973 0.038,-0.897 0.077,-1.795 0.108,-2.688 0.027,-0.76 0.002,-1.514 -0.076,-2.261 4.213,-6.813 7.051,-13.717 8.596,-20.915 0.597,-2.781 1.007,-5.604 1.219,-8.486 0.151,-2.075 -0.016,-4.05 -0.497,-5.9 0.474,-2.103 0.45,-4.306 -0.091,-6.413 -1.926,-7.519 -4.802,-13.979 -8.789,-19.745 -1.542,-2.233 -3.17,-4.294 -4.594,-6.099 l -0.348,-0.442 c -0.492,-0.625 -0.965,-1.228 -1.434,-1.839 -0.645,-0.84 -1.39,-1.606 -2.215,-2.279 l -8.044,-6.553 c -0.936,-0.758 -1.961,-1.389 -3.009,-1.855 -0.342,-0.155 -0.688,-0.303 -1.032,-0.449 l -0.118,-0.05 c -0.217,-0.091 -0.426,-0.176 -0.591,-0.252 -10.083,-5.501 -20.45,-8.332 -30.811,-8.414 l -0.468,-0.001 c -10.344,0 -20.624,2.735 -30.557,8.13 -8.285,4.504 -15.174,10.475 -20.475,17.746 -5.127,7.029 -8.764,15.27 -10.809,24.49 -1.451,6.538 -1.777,12.583 -0.997,18.494 0.208,1.558 0.688,3.071 1.411,4.469 0.118,1.138 0.379,2.253 0.78,3.331 4.256,11.47 10.476,20.426 18.994,27.364 0.169,0.139 0.338,0.274 0.452,0.363 0.285,0.228 0.578,0.443 0.877,0.646 0.014,0.044 0.029,0.089 0.044,0.133 3.264,9.688 7.421,18.887 11.442,27.782 l 0.063,0.14 c 2.969,6.563 6.039,13.35 8.553,19.97 1.291,3.393 2.335,7.07 3.223,10.908 -0.397,0.194 -0.806,0.393 -1.178,0.578 -2.835,1.459 -5.152,3.854 -6.701,6.924 -0.149,0.296 -0.27,0.617 -0.404,0.927 -0.442,1.017 -0.814,2.092 -1.101,3.229 -2.365,9.401 0.504,22.307 7.007,28.96 1.255,1.284 2.635,2.316 4.092,3.085 -2.875,3.517 -4.129,8.934 -3.407,15.449 0.963,8.688 5.31,18.111 12.891,20.474 -1.627,1.551 -2.934,3.478 -3.852,5.793 -3.806,9.595 -0.599,23.566 6.729,29.313 1.829,1.434 3.831,2.327 5.961,2.661 0.216,0.062 0.418,0.111 0.633,0.171 0.373,2.404 0.777,4.812 1.216,7.141 2.535,13.429 5.309,19.913 10.235,23.925 1.526,1.243 3.22,2.18 5.029,2.781 4.42,1.477 7.224,1.495 17.663,1.563 l 1.074,0.006 c 0.968,0.007 1.752,0.085 2.695,0.179 1.062,0.106 2.331,0.216 3.689,0.216 0,0 0,0 0,0 4.351,0 8.224,-1.137 12.558,-3.686 5.871,-3.454 11.37,-7.097 14.143,-13.655 2.527,-5.981 1.659,-11.379 0.652,-17.638 -0.101,-0.623 -0.208,-1.281 -0.317,-1.979 -0.721,-4.6 -1.42,-9.062 -2.103,-13.413 1.181,-2.083 2.048,-4.339 2.566,-6.762 0.373,-1.741 0.555,-3.581 0.577,-5.485 0.93,0.065 1.877,0.106 2.853,0.106 0.002,0 0.003,0 0.005,0 2.682,0 5.507,-0.258 8.397,-0.768 l 0.204,-0.04 c 0.522,-0.11 12.833,-2.842 17.006,-14.041 2.954,-7.928 0.907,-17.52 -6.042,-28.569 1.474,-4.043 2.457,-8.749 2.786,-14.204 l 4.883,-6.11 3.701,-2.486 2.9,-5.593 c 2.089,0.426 4.311,0.646 6.665,0.646 5.635,0 10.999,-1.247 14.222,-2.184 16.089,18.659 31.705,32.223 42.298,40.522 l -4.392,10.379 -0.068,0.013 -2.65,5.878 c -2.907,6.426 -4.803,11.219 -6.053,14.861 l -0.283,0.652 h 0.061 c -0.946,2.835 -1.488,4.94 -1.779,6.51 l -0.581,0.2 -4.67,11.678 c -6.02,2.661 -11.283,6.433 -15.717,11.335 -17.103,18.924 -14.438,47.381 -14.315,48.588 l 0.193,1.938 c -4.973,5.181 -10.082,11.742 -15.172,20.055 -1.973,2.894 -26.836,38.797 -62.364,66.557 l -3.171,2.48 -0.947,0.626 c -0.545,0.368 -1.333,0.962 -2.23,1.854 l -6.298,8.241 -0.962,6.77 c -0.704,3.616 -1.047,7.931 -0.824,13.072 -31.725,28.786 -38.716,71.303 -39.407,76.037 -5.681,30.582 11.528,38.326 15.934,39.779 l -0.007,0.013 c 35.029,11.315 59.582,18.085 73.262,20.21 l 5.677,0.458 80.991,-29.265 4.58,0.686 3.248,0.839 6.875,0.679 10.463,-4.986 30.586,-14.59 0.316,-7.285 c 0.223,-5.09 5.128,-121.229 -5.231,-167.784 l 2.044,-2.983 c 1.053,-1.544 23.539,-35.064 9.62,-66.989 l 6.13,-23.484 -0.439,-0.503 4.94,-15.547 c 23.349,7.551 49.138,11.394 77.227,11.394 55.754,0 101.155,-15.433 104.117,-16.47 l 0.517,-0.193 c 2.005,-0.82 3.965,-1.66 5.906,-2.506 0.442,1.388 0.875,2.557 1.221,3.429 l 0.316,2.073 c 0.575,3.733 4.144,17.4 5.654,23.104 l 1.702,6.426 c 0.746,7.221 3.235,15.353 5.658,21.889 l 0.71,1.925 c -4.059,12.38 -2.987,24.033 -0.187,33.644 0.386,1.325 0.804,2.61 1.247,3.854 3.915,10.981 9.706,18.66 11.275,20.616 -23.07,70.31 -15.646,139.075 -14.936,145.043 0.491,5.91 3.934,14.486 23.6,35.587 10.141,10.89 20.029,20.196 20.442,20.591 l 0.997,0.93 4.302,4.043 7.321,1.021 8.267,-1.149 c 4.689,-0.51 7.957,-1.479 9.682,-2.1 18.136,7.441 50.865,25.938 63.779,33.521 l 8.297,4.889 5.173,-0.717 6.481,-0.62 c 8.584,-1.26 22.337,-3.927 31.731,-9.029 17.92,-3.901 47.094,-11.412 55.723,-20.493 l 3.319,-3.488 0.016,-4.817 c 0.022,-7.103 -0.387,-46.45 -11.837,-80.396 -3.2,-9.489 -7.264,-18.557 -12.422,-26.379 v -0.413 -21.037 l -0.013,-0.29 -3.226,-10.218 -6.827,-13.053 c -8.464,-7.887 -22.728,-18.679 -23.338,-19.138 l -0.834,-0.626 -0.93,-0.484 c -33.892,-17.413 -67.583,-44.61 -83.304,-58.024 0.833,-4.748 4.854,-32.203 -9.736,-50.766 -3.892,-4.947 -8.771,-8.784 -14.475,-11.438 l -0.455,-1.11 2.058,0.433 -13.363,-23.387 c -1.338,-2.345 -3.841,-7.805 -6.148,-13.055 -1.283,-2.921 -2.508,-5.777 -3.437,-7.994 l -0.032,-0.065 -0.349,-1.724 c -0.013,-0.063 -0.029,-0.129 -0.043,-0.192 -1.837,-8.756 -6.506,-18.584 -9.254,-23.873 31.76,-31.408 45.847,-65.83 51.214,-82.48 3.378,1.166 7.104,1.844 11.212,1.844 h 0.007 c 5.768,0 11.864,-1.365 18.155,-4.046 1.928,1.851 4.208,3.813 6.604,5.441 1.295,2.993 3.701,7.14 8.025,10.873 l 1.611,1.389 c 0.039,0.458 0.064,0.897 0.113,1.356 l 0.164,1.634 0.591,1.53 c 3.598,9.308 14.907,25.047 34.454,25.047 h 0.007 c 0.791,0 1.595,-0.032 2.402,-0.084 l 4.814,12.521 1.519,-2.138 1.437,4.204 c -0.552,0.886 -0.998,1.705 -1.379,2.455 l -2.27,1.214 c -2.633,1.401 -9.453,3.571 -13.444,4.656 l -0.284,0.078 c -14.313,4.269 -22.932,11.257 -25.631,20.784 -2.577,9.087 1.35,17.735 5.493,22.372 l 0.284,0.311 c 8.899,9.294 18.213,11.251 24.462,11.251 6.64,0 12.536,-2.118 17.374,-4.779 6.897,12.077 15.865,19.977 19.87,23.135 0.507,6.943 1.743,12.161 2.002,13.195 l 0.151,0.555 c 9.821,32.636 23.652,39.482 33.53,39.482 0.931,0 1.771,-0.064 2.49,-0.161 6.662,-0.388 11.609,-2.164 15.288,-4.438 3.307,1.666 6.865,2.57 10.453,2.57 1.94,0 3.517,-0.258 4.602,-0.517 7.156,-1.347 12.044,-4.23 15.374,-7.333 1.42,-1.335 2.556,-2.696 3.46,-3.998 z M 899.92,659.679 c 18.191,34.373 2.422,42.453 2.422,42.453 -15.361,2.021 -29.516,-23.045 -29.516,-23.045 -16.173,-27.494 -8.09,-44.48 -8.09,-44.48 18.204,-11.32 35.184,25.072 35.184,25.072 z m -5.121,44.882 -5.525,3.507 -5.532,-9.979 z m -60.586,-64.09 -3.035,-8.891 c 7.889,-19.214 31.137,-16.935 31.137,-16.935 l 7.68,12.685 c -14.959,-2.422 -35.782,13.141 -35.782,13.141 z m 26.48,-28.099 c -22.438,-0.808 -30.727,14.958 -30.727,14.958 -3.033,-4.243 -5.458,-8.893 -5.458,-8.893 8.894,-18.802 28.102,-16.38 28.102,-16.38 z M 840.268,370.138 c 4.633,20.497 -5.88,40.338 -23.481,44.315 -7.012,1.584 -16.451,-13.748 -21.082,-34.244 -4.633,-20.497 -2.704,-38.397 4.308,-39.982 17.6,-3.977 35.623,9.415 40.255,29.911 z m -44.96,-34.46 c -5.988,5.361 -7.016,23.728 -2.182,45.114 4.767,21.097 13.71,37.024 21.422,39.61 -7.044,24.883 -24.94,44.405 -49.13,49.872 -14.958,3.38 -35.094,-29.329 -44.976,-73.056 -9.882,-43.727 -5.768,-81.915 9.19,-85.295 24.132,-5.454 48.622,4.413 65.676,23.755 z m -72.09,144.879 -25.066,-6.471 c 5.658,-31.941 -12.536,-113.621 -12.536,-113.621 7.279,-3.636 20.622,-4.447 20.622,-4.447 1.063,1.383 2.06,3.132 2.995,5.176 0.804,11.283 2.671,23.821 5.709,37.267 1.541,6.819 3.271,13.287 5.147,19.389 2.886,31.582 3.129,62.707 3.129,62.707 z m -449.761,3.612 c 2.013,-1.734 15.343,-12.986 21.567,-12.241 0,0 2.426,14.29 5.93,20.219 h -5.93 c 0,0 18.143,20.369 58.041,38.074 -5.182,0.006 -10.444,-0.529 -15.694,-1.641 -8.341,-2.244 -16.786,-4.495 -24.94,-7.828 -20.914,-8.549 -33.785,-22.476 -38.974,-36.583 z m 12.186,-22.439 c -0.312,0.125 -0.624,0.264 -0.936,0.398 -5.218,-5.454 -9.639,-11.705 -13.175,-18.564 1.393,-7.538 6.273,-12.642 15.011,-15.684 -1.696,12.134 -1.701,23.722 -0.9,33.85 z m 18.275,32.171 c 0,0 -11.033,-32.593 -4.686,-68.746 0.364,-0.043 0.709,-0.096 1.081,-0.136 19.447,-2.089 38.923,-3.271 58.112,-3.058 13.543,0.152 27.355,2.047 40.24,5.732 18.946,5.425 25.247,16.359 21.553,34.809 -1.944,9.717 -4.625,19.467 -8.539,28.699 -8.893,22.795 -28.173,35.781 -50.006,38.488 -4.384,-1.82 -38.849,-16.501 -57.755,-35.788 z m 0.539,-87.974 c 5.584,-0.86 11.159,-1.589 16.728,-2.214 8.633,3.674 21.445,8.324 38.308,12.317 -19.852,-0.131 -39.375,1.124 -59.021,3.013 1.001,-4.353 2.271,-8.732 3.862,-13.091 0.041,-0.007 0.082,-0.018 0.123,-0.025 z m 125.372,19.774 c -2.034,-0.392 -4.057,-0.811 -6.076,-1.239 17.041,0.639 35.898,0.191 56.53,-1.857 -16.09,4.521 -33.366,6.388 -50.454,3.096 z m -7.408,60.301 c 2.823,-8.164 4.428,-16.638 6.543,-24.979 2.034,-7.999 7.974,-12.591 16.547,-12.756 8.583,-0.165 14.938,4.085 17.335,12.094 1.443,4.84 2.199,9.92 3.326,14.8 8.852,38.229 37.422,60.632 71.974,72.366 -13.34,2.182 -27.682,3.899 -43.109,4.999 0,0 -63.363,0.607 -88.436,-8.286 0,0 -11.318,-0.009 -37.814,-11.406 24.076,-4.638 44.923,-20.53 53.634,-46.832 z m 58.571,4.046 c -4.034,-10.146 -6.775,-20.781 -8.058,-31.257 -1.977,-16.188 4.075,-25.948 20.499,-30.346 15.802,-4.233 32.549,-5.348 48.744,-8.141 2.822,-0.484 5.839,-0.161 8.765,-0.219 0.006,-0.465 0.006,-0.94 0.013,-1.402 15.22,1.699 30.598,2.161 45.879,6.162 15.698,4.117 23.639,16.508 25.186,38.013 1.522,21.169 2.033,42.135 0.541,60.575 -19.979,8.73 -44.861,16.854 -75.369,22.519 -28.403,-9.404 -54.628,-25.324 -66.2,-55.904 z m 141.187,37.565 c -3.801,34.711 -26.888,30.836 -57.114,23.434 -3.13,-0.767 -6.265,-1.592 -9.389,-2.483 19.467,-4.078 42.974,-10.595 66.503,-20.951 z m 11.644,-32.469 c 0.119,-15.426 1.343,-30.301 13.072,-34.214 -1.602,-14.116 -3.136,-27.656 -4.841,-42.66 -24.537,-3.036 -48.553,-5.29 -72.146,-6.246 -8.632,-0.348 -17.327,-0.386 -26.019,-0.053 40.046,-9.298 84.927,-24.441 134.45,-47.864 0,0 19.404,72.779 13.744,111.6 0,0 -16.623,22.22 -59.225,42.974 0.665,-7.381 0.899,-15.327 0.965,-23.537 z m 84.696,-186.01 c -6.71,7.583 -10.153,22.883 -9.702,43.264 -4.506,-2.487 -12.629,-2.974 -27.241,4.431 0,0 -208.963,102.796 -347.611,45.651 7.917,-0.637 15.818,-1.052 23.699,-1.219 16.848,-0.358 33.602,0.895 50.475,1.799 -21.569,-5.942 -42.614,-11.348 -63.967,-12.991 -9.767,-0.748 -20.236,0.2 -30.535,2.553 -6.128,-3.459 -12.075,-7.289 -17.805,-11.534 0,0 35.045,-142.33 180.067,-158.502 0,0 8.754,-0.787 19.871,-1.708 1.387,7.001 2.354,14.086 2.953,21.246 0.904,10.783 1.014,21.559 -0.594,32.3 -0.158,1.034 -0.343,2.067 -0.521,3.126 1.282,0.297 2.493,0.575 3.791,0.875 0.13,-0.417 0.255,-0.778 0.358,-1.15 1.457,-5.267 3.469,-10.331 5.748,-15.291 5.1,-11.093 11.371,-21.5 18.578,-31.344 3.191,-4.359 6.559,-8.554 10.118,-12.571 2.051,-0.066 3.618,-0.074 4.523,-0.005 10e-4,0 117.171,4.223 177.795,91.07 z M 498.57,204.831 c -0.555,-2.138 -1.288,-4.27 -1.94,-6.469 -0.185,-0.581 -0.362,-1.166 -0.546,-1.75 l -0.601,-1.608 c -0.4,-1.079 -0.804,-2.16 -1.214,-3.262 -0.75,-2.192 -1.838,-4.424 -2.81,-6.681 l -0.756,-1.702 -0.672,-1.611 c -0.465,-1.133 -0.93,-2.277 -1.431,-3.417 -0.471,-1.134 -0.804,-2.229 -1.224,-3.358 -0.391,-1.13 -0.827,-2.248 -1.108,-3.446 -0.332,-1.182 -0.668,-2.371 -1.004,-3.565 -0.31,-1.198 -0.484,-2.432 -0.739,-3.665 l -0.362,-1.857 -0.041,-0.229 c -0.02,-0.109 -0.01,0.013 -0.014,-0.045 l -0.016,-0.123 -0.059,-0.491 -0.119,-0.982 c -0.207,-1.362 -0.197,-2.496 -0.277,-3.733 -0.017,-0.61 0.051,-1.227 0.067,-1.85 0.022,-0.62 0.036,-1.25 0.168,-1.848 l 0.297,-1.84 0.02,-0.117 c -0.042,0.117 0.007,-0.035 0.01,-0.042 l 0.064,-0.249 0.132,-0.485 0.275,-0.981 c 0.375,-1.301 0.691,-2.667 1.201,-3.833 l 0.701,-1.831 0.352,-0.917 0.445,-0.897 0.885,-1.799 c 0.294,-0.607 0.595,-1.211 0.976,-1.764 0.753,-1.117 1.408,-2.312 2.241,-3.384 0.859,-1.046 1.646,-2.174 2.574,-3.178 0.981,-0.956 1.921,-1.967 2.936,-2.897 1.071,-0.872 2.141,-1.75 3.209,-2.632 1.15,-0.785 2.313,-1.547 3.481,-2.312 1.169,-0.646 2.474,-1.415 3.714,-1.999 1.266,-0.559 2.496,-1.188 3.836,-1.618 2.616,-1.007 5.374,-1.563 8.125,-2.038 2.784,-0.262 5.584,-0.429 8.364,-0.129 l 1.044,0.087 0.478,0.039 0.536,0.081 2.147,0.313 c 1.396,0.275 2.709,0.498 4.065,0.885 5.389,1.414 10.459,3.797 14.729,7.14 2.168,1.625 4.143,3.481 5.904,5.525 1.795,2.006 3.402,4.172 4.799,6.478 0.729,1.127 1.352,2.329 2.002,3.504 l 0.121,0.22 c -0.002,-0.003 0.01,0.019 0.023,0.036 l 0.039,0.094 0.229,0.481 0.453,0.962 c 0.283,0.633 0.639,1.308 0.82,1.876 0.93,2.271 1.643,4.867 2.15,7.379 0.426,2.558 0.732,5.119 0.727,7.702 0.061,1.282 -0.043,2.577 -0.084,3.856 l -0.006,0.242 -0.004,0.084 c 0,0.019 0,0.029 0,0.026 l -0.059,0.507 -0.109,1.021 -0.109,1.014 -0.168,0.849 c -0.127,0.568 -0.188,1.111 -0.355,1.692 l -0.475,1.75 c -0.406,1.13 -0.75,2.283 -1.26,3.372 -0.918,2.219 -2.119,4.314 -3.498,6.294 l -0.506,0.74 -0.129,0.187 -0.064,0.09 c 0.002,-0.003 -0.018,0.029 -0.037,0.049 l -0.258,0.333 -1.201,1.524 c -0.797,0.988 -1.588,2.096 -2.383,2.929 -0.781,0.891 -1.563,1.783 -2.336,2.664 -0.816,0.869 -1.688,1.706 -2.521,2.548 -0.42,0.423 -0.832,0.853 -1.262,1.259 l -1.328,1.172 c -0.91,0.811 -1.818,1.611 -2.719,2.406 -1.803,1.608 -3.578,3.197 -5.322,4.757 -1.711,1.689 -3.377,3.423 -5.018,5.086 -1.647,1.664 -3.049,3.411 -4.537,5.057 -1.492,1.644 -2.797,3.368 -4.099,5.031 -0.652,0.83 -1.292,1.654 -1.925,2.467 l -0.475,0.607 c -0.242,0.303 -0.319,0.439 -0.484,0.662 -0.291,0.41 -0.578,0.814 -0.865,1.221 -2.286,3.233 -4.47,6.262 -6.336,9.375 -0.949,1.518 -1.867,2.987 -2.755,4.411 -0.882,1.428 -1.595,2.864 -2.351,4.211 -1.473,2.713 -2.887,5.157 -3.904,7.512 -1.085,2.309 -2.047,4.376 -2.887,6.168 -0.756,1.825 -1.398,3.381 -1.916,4.641 -0.277,0.701 -0.516,1.305 -0.723,1.821 0.042,-0.552 0.097,-1.208 0.161,-1.96 0.094,-1.36 0.214,-3.029 0.353,-5.002 0.039,-1.979 0.077,-4.253 0.129,-6.801 -0.068,-5.115 -0.213,-11.357 -1.092,-18.439 -0.784,-7.099 -2.173,-15.082 -4.489,-23.601 z m -140.353,55.73 c -9.818,8.464 -18.996,17.928 -27.48,28.356 -5.934,1.391 -11.725,3.415 -17.311,6.047 1.75,-3.198 3.498,-6.397 5.244,-9.597 4.56,-8.358 9.158,-16.699 13.518,-25.163 1.417,-2.758 2.997,-3.5 6.084,-3.006 6.66,1.061 13.306,2.195 19.945,3.363 z M 250.209,399.303 c -12.089,-11.023 -16.289,-30.621 -9.134,-49.029 7.128,-18.339 23.363,-29.938 39.66,-29.992 -8.738,10.197 -16.146,22.576 -21.736,36.958 -5.6,14.408 -8.44,28.588 -8.79,42.063 z m 79.873,-215.793 9.92,31.544 c -6.171,1.941 -12.042,4.034 -17.455,6.22 l -12.381,-30.666 c 6.217,-2.509 12.917,-4.896 19.916,-7.098 z m -61.238,177.557 c 9.966,-25.64 28.277,-45.11 49.5,-55.521 -25.37,37.25 -33.927,71.161 -34.292,72.645 l -1.932,7.838 6.491,4.805 c 2.226,1.647 4.495,3.242 6.801,4.792 -0.527,1.221 -1.017,2.445 -1.496,3.67 -9.294,4.415 -17.521,10.422 -23.247,17.631 5.048,-1.457 10.086,-2.994 15.084,-4.641 1.453,-0.479 2.908,-1.029 4.364,-1.6 -0.905,3.232 -1.67,6.453 -2.302,9.651 -7.888,0.852 -15.811,1.777 -23.797,2.733 -4.56,-19.272 -3.338,-40.999 4.826,-62.003 z m 6.574,106.262 c -1.667,1.123 -3.261,2.286 -4.746,3.431 -0.303,-3.189 -0.447,-6.3 -0.475,-9.356 1.647,2.049 3.389,4.025 5.221,5.925 z m -4.311,25.442 c 13.45,19.04 35.662,32.048 59.665,38.313 10.298,2.888 20.809,3.784 30.924,2.78 34.336,13.773 82.738,24.822 147.09,21.362 0,0 15.396,-0.719 38.163,-4.938 28.311,9.218 55.819,21.097 72.9,5.165 7.417,-6.914 10.933,-18.553 12.581,-32.604 22.958,-11.263 45.365,-26.398 63.431,-46.74 0,0 5.665,4.45 25.605,6.336 0,0 -52.561,118.607 -270.369,111.057 0,0 -139.094,-6.465 -182.225,-97.042 l 1.635,-4.567 c 0.203,0.293 0.391,0.582 0.6,0.878 z m -7.22,130.723 c 19.615,1.814 19.615,16.369 19.615,16.369 l -5.664,7.079 c -1.415,-11.929 -19.002,-19.205 -19.002,-19.205 z m 10.514,31.134 c -0.041,0.718 -0.105,1.397 -0.171,2.073 -0.072,-0.098 -0.142,-0.192 -0.214,-0.291 -1.365,-2.128 -2.887,-4.273 -4.359,-6.351 -1.914,-2.699 -3.892,-5.489 -5.464,-8.158 l -0.914,-1.552 -1.618,-0.792 c -1.176,-0.575 -2.809,-1.871 -4.388,-3.125 -2.179,-1.729 -4.53,-3.589 -7.137,-4.841 24.588,-1.748 24.265,23.037 24.265,23.037 z M 138.471,524.742 c -0.612,-4.607 -0.207,-9.218 0.79,-13.716 3.245,-14.627 11.277,-26.004 24.449,-33.16 16.163,-8.782 32.564,-8.561 48.771,0.3 0.839,0.458 1.748,0.793 2.623,1.187 2.677,2.181 5.356,4.36 8.034,6.542 1.999,2.602 4.105,5.127 5.969,7.823 3.176,4.593 5.333,9.672 6.788,15.355 -34.553,-7.156 -66.494,0.673 -97.424,15.669 z m 16.604,26.63 c -0.275,-0.222 -0.542,-0.449 -0.812,-0.676 -0.207,-0.173 -0.416,-0.344 -0.617,-0.521 -0.212,-0.182 -0.417,-0.371 -0.624,-0.557 -0.196,-0.179 -0.398,-0.357 -0.593,-0.539 -0.203,-0.191 -0.4,-0.386 -0.601,-0.58 -0.19,-0.185 -0.381,-0.369 -0.568,-0.557 -0.196,-0.199 -0.389,-0.401 -0.58,-0.603 -0.182,-0.192 -0.366,-0.38 -0.545,-0.573 -0.188,-0.207 -0.374,-0.418 -0.559,-0.628 -0.173,-0.196 -0.351,-0.388 -0.52,-0.588 -0.182,-0.214 -0.359,-0.435 -0.54,-0.651 -0.165,-0.2 -0.332,-0.399 -0.496,-0.604 -0.175,-0.223 -0.346,-0.451 -0.519,-0.677 -0.157,-0.206 -0.317,-0.41 -0.471,-0.619 -0.173,-0.229 -0.339,-0.469 -0.504,-0.703 -0.149,-0.211 -0.301,-0.416 -0.447,-0.63 -0.164,-0.242 -0.326,-0.49 -0.488,-0.735 -0.14,-0.213 -0.282,-0.422 -0.418,-0.64 -0.162,-0.251 -0.315,-0.509 -0.47,-0.764 -0.135,-0.216 -0.269,-0.431 -0.398,-0.649 -0.156,-0.261 -0.304,-0.529 -0.455,-0.797 -0.123,-0.219 -0.249,-0.433 -0.372,-0.655 -0.153,-0.275 -0.297,-0.561 -0.447,-0.84 -0.112,-0.219 -0.229,-0.432 -0.339,-0.649 -0.149,-0.295 -0.294,-0.596 -0.438,-0.896 -0.103,-0.211 -0.209,-0.421 -0.312,-0.635 -0.149,-0.32 -0.293,-0.646 -0.44,-0.972 -0.088,-0.198 -0.181,-0.395 -0.27,-0.597 -0.16,-0.367 -0.311,-0.74 -0.464,-1.111 -0.293,-0.705 -0.577,-1.418 -0.846,-2.147 5.112,-2.229 10.011,-4.647 15.105,-6.536 12.792,-4.741 25.767,-8.958 39.221,-11.425 13.389,-2.455 26.679,-2.245 39.727,2.188 1.524,0.518 2.133,1.129 2.134,2.657 -0.001,0.04 0,0.076 -0.002,0.114 -0.002,0.129 -0.007,0.261 -0.018,0.403 -0.625,8.497 -3.438,16.185 -7.899,23.352 -13.609,-4.869 -27.224,-3.032 -40.701,-0.352 -7.599,1.51 -15.031,3.99 -22.41,6.422 -3.367,1.113 -6.427,3.157 -10.004,4.97 z m 25.236,54.507 c -6.069,-15.973 -14.422,-31.196 -19.881,-47.397 4.823,-3.126 9.998,-5.808 15.381,-7.978 4.361,-1.357 8.752,-2.592 13.087,-3.453 11.711,-2.331 24.144,-4.247 36.206,-0.156 0.026,0.02 0.049,0.041 0.077,0.062 0.034,0.028 0.07,0.058 0.103,0.086 0.047,0.039 0.093,0.08 0.136,0.12 0.038,0.035 0.074,0.071 0.11,0.107 0.04,0.041 0.079,0.082 0.117,0.122 0.034,0.037 0.065,0.077 0.098,0.113 0.034,0.044 0.066,0.087 0.097,0.128 0.029,0.041 0.057,0.079 0.084,0.119 0.029,0.046 0.056,0.091 0.083,0.137 0.022,0.04 0.046,0.08 0.067,0.123 0.024,0.047 0.043,0.096 0.065,0.145 0.017,0.042 0.034,0.082 0.05,0.125 0.019,0.052 0.034,0.106 0.05,0.161 0.01,0.039 0.023,0.079 0.031,0.119 0.015,0.063 0.023,0.126 0.03,0.188 0.005,0.035 0.014,0.069 0.017,0.105 0.009,0.1 0.012,0.202 0.008,0.307 -0.683,19.605 -3.182,40.29 -0.637,59.794 0.114,0.876 0.242,1.75 0.36,2.626 -3.47,-1.101 -7.327,-1.685 -11.559,-1.685 -10.271,0 -21.505,3.234 -30.854,6.845 -0.923,-3.729 -2,-7.374 -3.326,-10.863 z m -11.445,26.85 c 0.898,-1.78 2.174,-3.198 3.872,-4.072 18.717,-9.333 56.997,-23.795 65.249,3.585 l 0.704,4.124 c 0.065,1.46 0.014,2.833 -0.142,4.122 -0.669,5.989 -3.479,9.98 -7.419,12.674 -0.985,0.674 -2.041,1.265 -3.146,1.781 -13.561,3.51 -28.021,2.659 -41.504,5.825 -1.628,0.06 -3.138,0.089 -4.573,0.128 -1.426,0.022 -2.786,0.056 -4.062,0.109 -1.701,-0.283 -3.261,-1.229 -4.631,-2.631 -5.482,-5.607 -7.94,-18.524 -4.348,-25.645 z m 7.161,40.905 c 0.274,-1.098 0.669,-2.08 1.211,-2.924 3.342,-2.852 6.964,-4.725 10.771,-5.986 1.27,-0.421 2.554,-0.777 3.826,-1.087 12.379,-2.631 25.139,-1.78 36.861,-4.754 1.281,-0.175 2.539,-0.337 3.795,-0.491 1.251,-0.155 2.5,-0.302 3.746,-0.438 1.112,0.516 2.164,1.14 3.146,1.872 2.94,2.203 5.26,5.385 6.71,9.799 l 0.676,3.897 c 1.68,29.165 -42.554,25.762 -62.119,22.359 -6.513,-1.302 -10.532,-14.571 -8.623,-22.247 z m 13.001,58.281 c -4.985,-3.909 -7.405,-14.975 -4.697,-21.801 0.325,-0.818 0.724,-1.577 1.2,-2.254 5.596,-7.187 13.959,-7 22.597,-6.801 1.439,0.033 2.884,0.066 4.319,0.11 12.184,0.667 23.242,-4.438 35.146,-6.131 1.279,-0.008 2.184,0.471 2.858,1.253 2.017,2.347 1.952,7.429 3.603,10.527 l 0.674,3.861 c 0.186,2.382 0.048,4.542 -0.371,6.499 -0.698,3.262 -2.18,5.958 -4.256,8.18 -1.038,1.109 -2.225,2.103 -3.537,3.042 -15.128,13.415 -36.394,10.013 -54.258,4.909 -1.181,-0.117 -2.281,-0.613 -3.278,-1.394 z m 57.46,8.278 c 1.831,11.688 2.817,13.039 -7.887,19.336 -4.952,2.912 -6.189,1.437 -11.901,1.4 -10.416,-0.069 -12.054,-0.049 -14.485,-0.86 -0.111,-0.038 -0.219,-0.09 -0.329,-0.151 -0.036,-0.019 -0.067,-0.042 -0.101,-0.062 -0.078,-0.048 -0.155,-0.101 -0.229,-0.159 -0.042,-0.031 -0.083,-0.066 -0.126,-0.102 -0.043,-0.037 -0.083,-0.075 -0.128,-0.116 -0.046,-0.045 -0.094,-0.091 -0.141,-0.142 -0.042,-0.045 -0.085,-0.091 -0.126,-0.138 -0.047,-0.054 -0.093,-0.108 -0.14,-0.165 -0.04,-0.054 -0.084,-0.105 -0.125,-0.158 -0.045,-0.064 -0.09,-0.125 -0.135,-0.188 -0.041,-0.06 -0.083,-0.12 -0.125,-0.184 -0.042,-0.065 -0.086,-0.136 -0.129,-0.205 -0.042,-0.068 -0.083,-0.135 -0.125,-0.205 -0.042,-0.073 -0.083,-0.148 -0.126,-0.223 -0.043,-0.078 -0.085,-0.151 -0.126,-0.23 -0.039,-0.077 -0.079,-0.158 -0.12,-0.238 -0.043,-0.083 -0.085,-0.165 -0.126,-0.253 -0.04,-0.081 -0.078,-0.167 -0.117,-0.251 -0.043,-0.091 -0.084,-0.184 -0.127,-0.279 -0.037,-0.083 -0.072,-0.17 -0.108,-0.254 -0.042,-0.104 -0.086,-0.204 -0.132,-0.313 -0.033,-0.08 -0.064,-0.163 -0.098,-0.247 -0.044,-0.116 -0.091,-0.234 -0.137,-0.354 -0.028,-0.072 -0.055,-0.148 -0.082,-0.224 -0.051,-0.137 -0.102,-0.271 -0.148,-0.411 -0.019,-0.051 -0.037,-0.106 -0.058,-0.156 -0.348,-1.014 -0.687,-2.137 -1.009,-3.346 -0.002,-0.015 -0.006,-0.029 -0.012,-0.045 -0.059,-0.226 -0.119,-0.453 -0.176,-0.686 -0.009,-0.036 -0.02,-0.071 -0.029,-0.106 -0.055,-0.222 -0.112,-0.447 -0.165,-0.675 -0.014,-0.046 -0.026,-0.093 -0.037,-0.143 -0.055,-0.223 -0.108,-0.449 -0.16,-0.678 -0.011,-0.052 -0.025,-0.104 -0.037,-0.156 -0.053,-0.224 -0.104,-0.453 -0.157,-0.682 -0.012,-0.06 -0.025,-0.116 -0.036,-0.176 -0.053,-0.229 -0.103,-0.461 -0.157,-0.695 -0.01,-0.059 -0.021,-0.114 -0.034,-0.171 -0.052,-0.234 -0.103,-0.473 -0.149,-0.715 -0.015,-0.056 -0.025,-0.116 -0.037,-0.174 -0.052,-0.245 -0.099,-0.488 -0.149,-0.736 -0.01,-0.055 -0.022,-0.105 -0.032,-0.16 -0.051,-0.253 -0.1,-0.505 -0.151,-0.762 -0.007,-0.05 -0.02,-0.098 -0.028,-0.149 -0.05,-0.259 -0.1,-0.517 -0.149,-0.779 -0.007,-0.047 -0.019,-0.097 -0.027,-0.145 -0.021,-0.117 -0.043,-0.235 -0.065,-0.354 4.776,0.794 9.168,1.183 13.336,1.183 10.318,0 19.269,-2.461 26.698,-7.317 0.163,1.068 0.332,2.133 0.499,3.199 z m 25.019,-31.761 c -3.851,0.679 -7.338,0.817 -10.504,0.531 l -0.725,-4.284 -0.488,-0.917 c -0.319,-0.599 -0.648,-2.072 -0.912,-3.256 -0.726,-3.256 -2.355,-10.464 -9.107,-11.755 2.657,-4.438 3.829,-9.663 3.487,-15.603 l -0.842,-5.102 -0.148,-0.451 c -1.721,-5.237 -5.106,-11.099 -11.736,-14.782 3.375,-4.606 4.942,-10.219 4.652,-16.737 l -0.844,-5.241 c 4.763,1.798 10.304,6.56 14.688,8.872 l 2.455,3.288 C 265,647 267,653 270.616,656.71 c 0.899,1.216 1.741,2.325 2.466,3.263 1.449,1.876 2.433,3.068 2.433,3.068 26.431,34.894 -4.008,45.391 -4.008,45.391 z m 13.409,-72.004 c -3.442,-12.333 -17.387,-14.962 -17.387,-14.962 l 7.275,-6.265 c 14.354,4.043 16.576,12.536 16.576,12.536 z m 7.479,-10.918 c -5.053,-9.501 -14.557,-11.322 -14.557,-11.322 8.086,-9.501 14.557,-4.65 14.557,-4.65 6.052,3.997 0,15.972 0,15.972 z m 3.166,1.956 c 0,0 14.286,-22.102 -13.209,-22.102 0,0 -5.393,-19.683 1.621,-28.844 0,0 22.373,38.552 33.691,50.945 0,10e-4 -14.554,5.397 -22.103,10e-4 z m 75.75,110.789 c 0,0 -24.53,13.751 -23.99,42.86 0,0 -13.48,-1.88 -24.531,8.086 -0.001,0 -5.665,-55.797 48.521,-50.946 z m -172.118,278.052 c 0,0 -12.129,-2.828 -7.683,-26.286 0,0 6.046,-45.379 39.469,-72.376 0,0 83.853,3.236 105.69,11.729 0,0 -34.773,17.794 -57.818,106.749 10e-4,-10e-4 -0.807,5.657 -79.658,-19.816 z m 149.202,-7.279 -64.693,27.094 c 0,0 16.98,-78.854 57.418,-104.327 -10e-4,0 10.507,21.03 7.275,77.233 z m 20.619,0 -16.172,-2.422 c 3.236,-69.547 -8.894,-78.854 -8.894,-78.854 -30.323,-11.723 -112.813,-14.551 -112.813,-14.551 -1.208,-16.986 4.854,-21.029 4.854,-21.029 36.795,0.807 125.347,14.558 125.347,14.558 13.75,30.73 7.678,102.298 7.678,102.298 z m 30.327,-14.965 -26.283,12.536 c 3.64,-52.153 -6.065,-100.678 -6.065,-100.678 -5.254,-7.272 -126.15,-17.387 -126.15,-17.387 38.816,-30.323 65.098,-69.547 65.098,-69.547 24.665,-40.438 47.038,-32.693 47.038,-32.693 39.76,2.073 40.435,39.165 40.435,39.165 11.459,41.646 5.927,168.604 5.927,168.604 z m -1.078,-177.096 c -9.97,-37.731 -48.518,-35.852 -48.518,-35.852 1.347,-31.545 26.684,-41.781 26.684,-41.781 19.408,3.771 26.688,15.63 26.688,15.63 18.6,27.765 -4.854,62.003 -4.854,62.003 z m 8.36,-64.961 c 0,0 -13.479,-21.023 -53.646,-19.415 l 1.618,-4.043 3.229,-1.072 6.211,-6.472 c 0,0 28.838,-4.851 46.631,15.501 z m 4.309,-19.415 c -35.581,-26.409 -53.101,-10.509 -53.101,-10.509 -0.271,-3.771 7.276,-20.486 7.276,-20.486 33.158,-5.658 50.681,15.739 50.681,15.739 z m 5.664,-18.33 c 0,0 -18.059,-20.216 -49.604,-16.572 l 7.015,-16.58 c 0,0 24.259,16.45 45.821,25.608 z m 209.448,-16.444 c 0,0 15.364,-7.272 41.513,-29.109 0,0 7.812,13.751 9.973,24.259 0,0 -29.109,-4.308 -48.247,16.715 -10e-4,0 -2.564,-5.709 -3.239,-11.865 z m 19.676,67.933 c 0,0 13.208,-21.837 41.514,-20.48 0,0 14.558,11.586 12.129,44.203 0,0 -28.573,-2.429 -45.821,29.651 -10e-4,0 -21.841,-25.88 -7.822,-53.374 z m 56.878,251.364 c 0,0 6.476,-66.311 14.555,-88.548 0,0 52.164,57.011 57.015,125.344 -10e-4,0 -50.043,-29.484 -71.57,-36.796 z m 163.353,12.536 c -7.677,8.087 -51.347,17.387 -51.347,17.387 -10.922,6.879 -35.587,9.295 -35.587,9.295 -4.447,-71.162 -58.219,-132.616 -58.219,-132.616 21.83,-19.008 97.438,-13.344 97.438,-13.344 48.121,10.108 47.715,119.278 47.715,119.278 z M 841.692,901.479 v 16.166 c 0,0 -4.854,-18.459 -63.351,-12.529 0,0 -60.107,-0.808 -65.771,23.987 0,0 -9.165,42.052 -12.669,89.769 0,0 -4.847,2.15 -14.286,1.88 0,0 -8.083,-120.08 29.52,-125.337 0,0 44.878,-11.729 100.681,-7.279 -10e-4,-10e-4 24.665,0.806 25.876,13.343 z m -28.583,-33.024 c 0,0 14.28,10.779 22.373,18.33 0,0 -99.187,-11.858 -135.846,12.943 0,0 -21.565,18.859 -18.336,119.143 0,0 -39.579,-37.201 -40.273,-48.523 0,0 -9.594,-77.355 18.308,-151.217 0,0 21.427,-41.252 58.628,-18.602 0,0 46.893,43.125 95.146,67.926 z M 723.354,797.83 c -9.701,-8.894 -21.563,-8.357 -21.563,-8.357 2.965,-27.76 -9.168,-44.203 -9.168,-44.203 40.166,2.15 30.731,52.56 30.731,52.56 z M 642.22,762.249 c 0,0 -6.682,-18.078 -4.854,-24.536 0,0 21.023,-24.253 53.914,-13.474 0,0 4.851,8.629 8.083,16.444 -0.001,10e-4 -39.892,-8.628 -57.143,21.566 z m 46.631,-42.866 c 0,0 -32.348,-6.736 -53.639,15.643 0,0 -4.857,-18.329 -5.394,-21.837 0,0 17.255,-22.915 48.792,-16.179 0,0 7.005,16.715 10.241,22.373 z m -83.027,-18.595 c 0,0 -132.619,46.903 -224.813,-21.022 0,0 -92.725,-59.307 -112.139,-168.749 0,0 60.11,104.592 250.153,85.184 0,0 147.181,-5.665 206.216,-112.41 0,0 1.492,-22.266 0.44,-49.919 9.131,23.065 20.426,38.494 31.119,43.302 -0.909,8.642 -2.233,17.595 -4.065,26.836 0,0 -30.459,-1.079 -41.241,33.963 0,0 0.003,22.641 10.782,33.42 0.001,-10e-4 -19.41,90.043 -116.452,129.395 z M 716.346,548.083 c 0,-35.588 35.674,-39.224 35.674,-39.224 21.928,0.807 23.765,27.494 23.765,27.494 -40.03,-3.232 -17.383,33.156 -17.383,33.156 -33.961,16.577 -42.056,-21.426 -42.056,-21.426 z m 40.434,-2.629 c 10.915,-10.312 19.001,-1.415 19.001,-1.415 -13.744,4.851 -14.555,19.405 -14.555,19.405 -9.096,-8.896 -4.446,-17.99 -4.446,-17.99 z m 19.001,32.752 c -5.047,-2.629 -11.115,-9.907 -11.115,-9.907 -2.829,-18.602 18.798,-24.059 18.798,-24.059 l 13.754,5.66 c -24.872,11.12 -21.437,28.306 -21.437,28.306 z m 7.48,10.715 c -4.444,-3.843 -5.454,-8.293 -5.454,-8.293 0.406,-22.444 18.904,-27.288 18.904,-27.288 8.783,-1.837 13.443,2.019 13.443,2.019 -23.248,10.111 -26.893,33.562 -26.893,33.562 z m 34.976,27.288 c -20.819,4.856 -29.109,-16.573 -29.109,-16.573 -4.04,-40.438 33.563,-39.627 33.563,-39.627 29.109,2.629 24.259,28.912 24.259,28.912 -39.02,-8.293 -28.713,27.288 -28.713,27.288 z m 8.093,-22.366 c 15.969,-9.017 24.052,4.779 24.052,4.779 -16.376,1.414 -27.694,17.387 -27.694,17.387 -6.065,-15.766 3.642,-22.166 3.642,-22.166 z m -32.345,93.201 c 0,0 -13.482,-15.101 14.551,-23.458 0,0 10.919,-2.964 15.97,-5.664 0,0 19.347,1.35 6.675,25.338 0,0 -19.144,22.643 -37.196,3.784 z m 61.855,15.204 v 14.318 c 0,0 -15.769,-10.792 -22.641,-30.2 0,0 14.965,-15.365 -2.021,-33.159 0,0 3.643,-13.26 29.519,-20.784 0,0 -10.918,26.849 19.81,62.437 -10e-4,-10e-4 -14.146,-3.818 -24.667,7.388 z m 27.904,63.773 c 0,0 -12.668,3.772 -23.051,-30.73 0,0 -4.176,-16.708 0,-29.651 0,0 6.823,-11.69 18.466,-7.55 0,0 7.55,5.128 11.861,31.809 0,0 0.271,6.472 7.818,15.907 0.001,-0.001 6.469,19.408 -15.094,20.215 z m 29.116,-2.158 c 0,0 -5.128,1.615 -10.519,-3.507 0,0 4.854,-12.394 -5.929,-25.337 0,0 -7.932,-11.949 -5.933,-23.452 0,0 5.129,-9.972 10.515,-2.15 0,0 5.394,16.709 25.073,34.767 10e-4,0 5.122,16.444 -13.207,19.679 z m 3.914,-35.045 c 0,0 -9.582,-11.586 -11.732,-20.751 l -3.507,-3.236 6.904,-1.75 c 0,0 -0.707,3.101 16.279,19.544 0,0 12.129,9.973 5.121,19.131 10e-4,0 -9.951,-10.244 -13.065,-12.938 z"
   fill="#793a8a" />
	<path
   id="path309"
   d="m 536.201,218.069 c -3.559,4.017 -6.926,8.211 -10.118,12.571 -7.207,9.843 -13.479,20.251 -18.578,31.344 -2.279,4.96 -4.291,10.024 -5.748,15.291 -0.104,0.372 -0.229,0.733 -0.358,1.15 -1.298,-0.3 -2.509,-0.578 -3.791,-0.875 0.178,-1.059 0.362,-2.092 0.521,-3.126 1.607,-10.741 1.498,-21.517 0.594,-32.3 -0.598,-7.159 -1.566,-14.245 -2.953,-21.246 -11.117,0.92 -19.871,1.708 -19.871,1.708 -145.022,16.173 -180.067,158.502 -180.067,158.502 5.729,4.245 11.677,8.075 17.805,11.534 10.299,-2.353 20.769,-3.301 30.535,-2.553 21.353,1.644 42.397,7.049 63.967,12.991 -16.873,-0.904 -33.627,-2.157 -50.475,-1.799 -7.881,0.167 -15.782,0.582 -23.699,1.219 138.648,57.145 347.611,-45.651 347.611,-45.651 14.612,-7.405 22.735,-6.917 27.241,-4.431 -0.451,-20.381 2.992,-35.681 9.702,-43.264 -60.624,-86.847 -177.794,-91.07 -177.794,-91.07 -0.906,-0.069 -2.473,-0.062 -4.524,0.005 z m -2.63,130.719 c 15.686,-14.606 32.062,-28.997 50.188,-45.378 10.631,-9.604 19.411,-14.816 26.864,-1.486 2.213,3.956 5.329,6.465 9.928,12.255 -5.303,2.183 -8.329,4.453 -10.887,4.075 -22.473,-3.323 -40.247,16.796 -58.78,30.711 -18.808,14.119 -38.061,24.233 -57.844,33.127 -0.652,0.294 -1.582,0 -2.377,-0.026 -0.739,-0.75 -1.463,-1.508 -2.198,-2.261 1.301,-0.323 2.786,-0.355 3.881,-1.03 14.151,-8.729 28.199,-17.858 41.225,-29.987 z"
   fill="#ad8bba" />
	<path
   id="path311"
   d="m 711.495,537.972 c 10.782,-35.042 41.241,-33.963 41.241,-33.963 1.832,-9.241 3.156,-18.194 4.065,-26.836 -10.693,-4.808 -21.988,-20.237 -31.119,-43.302 1.052,27.654 -0.44,49.919 -0.44,49.919 C 666.207,590.535 519.026,596.2 519.026,596.2 328.983,615.608 268.873,511.016 268.873,511.016 c 19.414,109.442 112.139,168.749 112.139,168.749 92.193,67.926 224.813,21.022 224.813,21.022 97.042,-39.353 116.453,-129.396 116.453,-129.396 -10.78,-10.779 -10.783,-33.419 -10.783,-33.419 z"
   fill="#ad8bba" />
	<path
   id="path313"
   d="m 495.036,552.526 c 15.427,-1.1 29.769,-2.817 43.109,-4.999 -34.551,-11.734 -63.122,-34.138 -71.974,-72.366 -1.127,-4.88 -1.883,-9.959 -3.326,-14.8 -2.396,-8.009 -8.752,-12.259 -17.335,-12.094 -8.573,0.165 -14.513,4.757 -16.547,12.756 -2.115,8.341 -3.72,16.815 -6.543,24.979 -8.71,26.302 -29.558,42.194 -53.635,46.833 26.496,11.397 37.814,11.406 37.814,11.406 25.074,8.893 88.437,8.285 88.437,8.285 z"
   fill="#ffffff" />
	<path
   id="path315"
   d="m 692.084,475.707 c 5.66,-38.82 -13.744,-111.6 -13.744,-111.6 -49.523,23.423 -94.404,38.566 -134.45,47.864 8.691,-0.333 17.387,-0.295 26.019,0.053 23.594,0.956 47.609,3.21 72.146,6.246 1.705,15.003 3.239,28.544 4.841,42.66 -11.729,3.914 -12.953,18.788 -13.072,34.214 -0.066,8.21 -0.3,16.156 -0.964,23.537 42.601,-20.754 59.224,-42.974 59.224,-42.974 z"
   fill="#ffffff" />
	<path
   id="path317"
   d="m 423.753,424.461 c 2.019,0.428 4.042,0.847 6.076,1.239 17.087,3.292 34.364,1.426 50.454,-3.096 -20.632,2.049 -39.489,2.496 -56.53,1.857 z"
   fill="#ffffff" />
	<path
   id="path319"
   d="m 411.68,491.201 c 3.914,-9.232 6.595,-18.982 8.539,-28.699 3.694,-18.449 -2.606,-29.384 -21.553,-34.809 -12.885,-3.685 -26.697,-5.581 -40.24,-5.732 -19.189,-0.213 -38.665,0.969 -58.112,3.058 -0.372,0.04 -0.717,0.092 -1.081,0.136 -6.347,36.153 4.686,68.746 4.686,68.746 18.906,19.288 53.371,33.968 57.755,35.788 21.833,-2.707 41.113,-15.692 50.006,-38.488 z m -58.838,-7.008 c -2.422,-4.043 3.236,-4.447 3.236,-4.447 -11.322,-33.963 7.278,-38.813 7.278,-38.813 16.979,-3.243 10.512,30.724 10.512,30.724 -1.618,15.368 -21.026,12.536 -21.026,12.536 z"
   fill="#ffffff" />
	<path
   id="path321"
   d="m 622.561,523.433 c 1.492,-18.44 0.981,-39.406 -0.541,-60.575 -1.547,-21.504 -9.487,-33.896 -25.186,-38.013 -15.281,-4.001 -30.659,-4.463 -45.879,-6.162 -0.007,0.462 -0.007,0.937 -0.013,1.402 -2.926,0.058 -5.942,-0.265 -8.765,0.219 -16.195,2.793 -32.942,3.908 -48.744,8.141 -16.424,4.398 -22.476,14.158 -20.499,30.346 1.282,10.476 4.023,21.11 8.058,31.257 11.572,30.58 37.797,46.5 66.199,55.903 30.508,-5.665 55.391,-13.788 75.37,-22.518 z m -46.524,-39.033 -23.451,4.644 c 0,0 -12.533,-2.357 -11.322,-28.874 0,0 0.814,-19.676 14.562,-19.457 0,0 21.229,6.278 9.097,42.876 z"
   fill="#ffffff" />
	<path
   id="path323"
   d="m 359.493,416.03 c -16.862,-3.994 -29.675,-8.644 -38.308,-12.317 -5.569,0.625 -11.144,1.354 -16.728,2.214 -0.041,0.006 -0.083,0.018 -0.124,0.025 -1.59,4.358 -2.86,8.738 -3.862,13.091 19.646,-1.889 39.17,-3.144 59.022,-3.013 z"
   fill="#ffffff" />
	<path
   id="path325"
   d="m 363.356,440.934 c 0,0 -18.601,4.85 -7.278,38.813 0,0 -5.658,0.404 -3.236,4.447 0,0 19.408,2.832 21.026,-12.536 0,-0.001 6.468,-33.967 -10.512,-30.724 z m -5.657,35.173 c -5.122,-7.563 -2.832,-20.62 -2.832,-20.62 7.275,-21.433 15.361,-5.661 15.361,-5.661 -15.361,1.615 -12.529,26.281 -12.529,26.281 z"
   fill="#793a8a" />
	<path
   id="path327"
   d="m 354.867,455.488 c 0,0 -2.29,13.056 2.832,20.62 0,0 -2.832,-24.666 12.529,-26.28 10e-4,-10e-4 -8.085,-15.773 -15.361,5.66 z"
   fill="#ffffff" />
	<path
   id="path329"
   d="m 555.825,440.714 c -13.747,-0.22 -14.562,19.457 -14.562,19.457 -1.211,26.516 11.322,28.874 11.322,28.874 l 23.451,-4.644 -11.115,-0.811 c 12.134,-36.598 -9.096,-42.876 -9.096,-42.876 z m -5.665,39.843 c -8.764,-7.237 -5.454,-25.473 -5.454,-25.473 7.279,-23.658 17.584,-5.461 17.584,-5.461 -17.584,3.437 -12.13,30.934 -12.13,30.934 z"
   fill="#793a8a" />
	<path
   id="path331"
   d="m 544.706,455.084 c 0,0 -3.31,18.236 5.454,25.473 0,0 -5.454,-27.498 12.13,-30.934 0,0.001 -10.305,-18.197 -17.584,5.461 z"
   fill="#ffffff" />
	<path
   id="path333"
   d="m 622.179,527.613 c -23.528,10.356 -47.036,16.873 -66.503,20.95 3.124,0.892 6.259,1.717 9.389,2.483 30.226,7.403 53.313,11.278 57.114,-23.433 z"
   fill="#9564a2" />
	<path
   id="path335"
   d="m 451.098,593.5 c 217.809,7.551 270.369,-111.057 270.369,-111.057 -19.94,-1.886 -25.605,-6.336 -25.605,-6.336 -18.065,20.342 -40.473,35.477 -63.431,46.74 -1.648,14.052 -5.164,25.69 -12.581,32.604 -17.081,15.932 -44.59,4.053 -72.9,-5.165 -22.767,4.22 -38.163,4.938 -38.163,4.938 -64.352,3.46 -112.754,-7.589 -147.09,-21.362 -10.115,1.004 -20.626,0.108 -30.924,-2.78 -24.003,-6.265 -46.215,-19.273 -59.665,-38.313 -0.209,-0.296 -0.397,-0.585 -0.599,-0.879 l -1.635,4.567 c 43.13,90.578 182.224,97.043 182.224,97.043 z"
   fill="#9564a2" />
	<path
   id="path337"
   d="m 353.064,530.222 c -39.898,-17.705 -58.041,-38.074 -58.041,-38.074 h 5.93 c -3.504,-5.929 -5.93,-20.219 -5.93,-20.219 -6.224,-0.746 -19.554,10.506 -21.567,12.241 5.189,14.107 18.06,28.034 38.973,36.583 8.154,3.333 16.6,5.583 24.94,7.828 5.251,1.111 10.513,1.647 15.695,1.641 z"
   fill="#9564a2" />
	<path
   id="path339"
   d="m 709.232,361.194 c -0.936,-2.044 -1.932,-3.793 -2.995,-5.176 0,0 -13.343,0.811 -20.622,4.447 0,0 18.194,81.68 12.536,113.621 l 25.066,6.471 c 0,0 -0.243,-31.125 -3.129,-62.707 -1.876,-6.102 -3.606,-12.57 -5.147,-19.389 -3.038,-13.446 -4.905,-25.984 -5.709,-37.267 z"
   fill="#9564a2" />
	<path
   id="path341"
   d="m 775.784,536.354 c 0,0 -1.837,-26.687 -23.765,-27.494 0,0 -35.674,3.636 -35.674,39.224 0,0 8.096,38.003 42.056,21.427 0,-10e-4 -22.647,-36.39 17.383,-33.157 z"
   fill="#ad8bba" />
	<path
   id="path343"
   d="m 775.781,544.039 c 0,0 -8.086,-8.896 -19.001,1.415 0,0 -4.65,9.094 4.446,17.99 10e-4,0 0.811,-14.554 14.555,-19.405 z"
   fill="#ebe0eb" />
	<path
   id="path345"
   d="m 797.218,549.9 -13.754,-5.66 c 0,0 -21.627,5.457 -18.798,24.059 0,0 6.068,7.278 11.115,9.907 0,0 -3.435,-17.186 21.437,-28.306 z"
   fill="#ebe0eb" />
	<path
   id="path347"
   d="m 810.154,555.358 c 0,0 -4.66,-3.855 -13.443,-2.019 0,0 -18.498,4.844 -18.904,27.288 0,0 1.01,4.45 5.454,8.293 0,0.001 3.645,-23.45 26.893,-33.562 z"
   fill="#ebe0eb" />
	<path
   id="path349"
   d="m 846.949,588.921 c 0,0 4.851,-26.283 -24.259,-28.912 0,0 -37.603,-0.811 -33.563,39.627 0,0 8.29,21.43 29.109,16.573 10e-4,0 -10.306,-35.581 28.713,-27.288 z"
   fill="#ad8bba" />
	<path
   id="path351"
   d="m 850.382,598.622 c 0,0 -8.083,-13.796 -24.052,-4.779 0,0 -9.707,6.4 -3.643,22.166 10e-4,0 11.319,-15.973 27.695,-17.387 z"
   fill="#ebe0eb" />
	<path
   id="path353"
   d="m 824.509,618.438 c 0,0 2.425,4.649 5.458,8.893 0,0 8.289,-15.766 30.727,-14.958 l -8.083,-10.314 c -10e-4,-10e-4 -19.209,-2.423 -28.102,16.379 z"
   fill="#ebe0eb" />
	<path
   id="path355"
   d="m 862.314,614.646 c 0,0 -23.248,-2.279 -31.137,16.935 l 3.035,8.891 c 0,0 20.823,-15.563 35.781,-13.141 z"
   fill="#ebe0eb" />
	<path
   id="path357"
   d="m 872.826,679.087 c 0,0 14.154,25.066 29.516,23.045 0,0 15.77,-8.08 -2.422,-42.453 0,0 -16.979,-36.392 -35.184,-25.072 0,-10e-4 -8.083,16.986 8.09,44.48 z"
   fill="#ad8bba" />
	<path
   id="path359"
   d="m 880.506,694.859 c -30.728,-35.588 -19.81,-62.437 -19.81,-62.437 -25.876,7.524 -29.519,20.784 -29.519,20.784 16.986,17.794 2.021,33.159 2.021,33.159 6.872,19.408 22.641,30.2 22.641,30.2 v -14.318 c 10.522,-11.205 24.667,-7.388 24.667,-7.388 z"
   fill="#ad8bba" />
	<polygon
   id="polygon361"
   points="894.799,704.561 883.741,698.089 889.273,708.067 "
   fill="#ebe0eb" />
	<path
   id="path363"
   d="m 824.506,657.922 c -5.051,2.7 -15.97,5.664 -15.97,5.664 -28.033,8.357 -14.551,23.458 -14.551,23.458 18.052,18.859 37.195,-3.784 37.195,-3.784 12.673,-23.989 -6.674,-25.338 -6.674,-25.338 z"
   fill="#ebe0eb" />
	<path
   id="path365"
   d="m 891.021,729.897 c -4.312,-26.681 -11.861,-31.809 -11.861,-31.809 -11.643,-4.141 -18.466,7.55 -18.466,7.55 -4.176,12.943 0,29.651 0,29.651 10.383,34.503 23.051,30.73 23.051,30.73 21.563,-0.807 15.095,-20.216 15.095,-20.216 -7.549,-9.434 -7.819,-15.906 -7.819,-15.906 z"
   fill="#ebe0eb" />
	<path
   id="path367"
   d="m 900.995,709.417 c -5.386,-7.821 -10.515,2.15 -10.515,2.15 -1.999,11.503 5.933,23.452 5.933,23.452 10.783,12.943 5.929,25.337 5.929,25.337 5.391,5.122 10.519,3.507 10.519,3.507 18.329,-3.235 13.208,-19.68 13.208,-19.68 -19.68,-18.057 -25.074,-34.766 -25.074,-34.766 z"
   fill="#ebe0eb" />
	<path
   id="path369"
   d="M 924.719,722.625 C 907.733,706.182 908.44,703.081 908.44,703.081 l -6.904,1.75 3.507,3.236 c 2.15,9.165 11.732,20.751 11.732,20.751 3.113,2.693 13.065,12.938 13.065,12.938 7.008,-9.158 -5.121,-19.131 -5.121,-19.131 z"
   fill="#ebe0eb" />
	<path
   id="path371"
   d="m 282.352,605.364 c 27.495,0 13.209,22.102 13.209,22.102 7.55,5.396 22.104,0 22.104,0 -11.318,-12.394 -33.691,-50.945 -33.691,-50.945 -7.015,9.161 -1.622,28.843 -1.622,28.843 z"
   fill="#ad8bba" />
	<path
   id="path373"
   d="m 292.395,609.537 c 0,0 -6.471,-4.851 -14.557,4.65 0,0 9.504,1.821 14.557,11.322 0,10e-4 6.052,-11.974 0,-15.972 z"
   fill="#ebe0eb" />
	<path
   id="path375"
   d="m 274.805,615.201 -7.275,6.265 c 0,0 13.944,2.629 17.387,14.962 l 6.465,-8.69 c -0.001,-0.001 -2.223,-8.494 -16.577,-12.537 z"
   fill="#ebe0eb" />
	<path
   id="path377"
   d="m 277.838,646.942 5.664,-7.079 c 0,0 0,-14.555 -19.615,-16.369 l -5.051,4.243 c 0,0 17.587,7.277 19.002,19.205 z"
   fill="#ebe0eb" />
	<path
   id="path379"
   d="m 257.273,636.433 c 1.579,1.254 3.211,2.55 4.388,3.125 l 1.618,0.792 0.914,1.552 c 1.572,2.669 3.551,5.459 5.464,8.158 1.473,2.077 2.995,4.223 4.359,6.351 0.072,0.099 0.142,0.193 0.214,0.291 0.066,-0.676 0.13,-1.355 0.171,-2.073 0,0 0.322,-24.785 -24.266,-23.036 2.608,1.251 4.959,3.11 7.138,4.84 z"
   fill="#ad8bba" />
	<path
   id="path381"
   d="m 366.992,697.688 c 31.545,-3.644 49.604,16.572 49.604,16.572 l 3.232,-7.544 c -21.563,-9.158 -45.821,-25.608 -45.821,-25.608 z"
   fill="#ebe0eb" />
	<path
   id="path383"
   d="m 365.107,701.596 c 0,0 -7.547,16.715 -7.276,20.486 0,0 17.52,-15.9 53.101,10.509 l 4.856,-15.256 c 0,0 -17.522,-21.397 -50.681,-15.739 z"
   fill="#ebe0eb" />
	<path
   id="path385"
   d="m 364.035,721.004 -6.211,6.472 -3.229,1.072 -1.618,4.043 c 40.167,-1.608 53.646,19.415 53.646,19.415 l 4.043,-15.501 c -17.793,-20.352 -46.631,-15.501 -46.631,-15.501 z"
   fill="#ebe0eb" />
	<path
   id="path387"
   d="m 347.32,781.115 c -0.54,-29.109 23.99,-42.86 23.99,-42.86 -54.186,-4.851 -48.521,50.946 -48.521,50.946 11.051,-9.966 24.531,-8.086 24.531,-8.086 z"
   fill="#ad8bba" />
	<path
   id="path389"
   d="m 376.429,739.334 c 0,0 -25.337,10.236 -26.684,41.781 0,0 38.548,-1.88 48.518,35.852 0,0 23.454,-34.237 4.854,-62.003 -0.001,0 -7.28,-11.859 -26.688,-15.63 z"
   fill="#ad8bba" />
	<path
   id="path391"
   d="m 352.978,786.295 c 0,0 -22.373,-7.744 -47.038,32.693 0,0 -26.281,39.224 -65.098,69.547 0,0 120.896,10.114 126.15,17.387 0,0 9.705,48.524 6.065,100.678 l 26.283,-12.536 c 0,0 5.532,-126.958 -5.929,-168.604 10e-4,0 -0.674,-37.092 -40.433,-39.165 z"
   fill="#ad8bba" />
	<path
   id="path393"
   d="m 361.335,906.729 c 0,0 -88.552,-13.751 -125.347,-14.558 0,0 -6.062,4.043 -4.854,21.029 0,0 82.49,2.828 112.813,14.551 0,0 12.13,9.308 8.894,78.854 l 16.172,2.422 c 0.001,10e-4 6.073,-71.567 -7.678,-102.298 z"
   fill="#9564a2" />
	<path
   id="path395"
   d="m 341.119,931.795 c -40.438,25.474 -57.418,104.327 -57.418,104.327 l 64.693,-27.094 c 3.233,-56.203 -7.275,-77.233 -7.275,-77.233 z"
   fill="#a882b4" />
	<path
   id="path397"
   d="m 336.67,929.373 c -21.838,-8.492 -105.69,-11.729 -105.69,-11.729 -33.423,26.997 -39.469,72.376 -39.469,72.376 -4.446,23.458 7.683,26.286 7.683,26.286 78.851,25.474 79.658,19.815 79.658,19.815 23.044,-88.954 57.818,-106.748 57.818,-106.748 z"
   fill="#ebe0eb" />
	<path
   id="path399"
   d="m 677.529,692.967 c -2.161,-10.508 -9.973,-24.259 -9.973,-24.259 -26.148,21.837 -41.513,29.109 -41.513,29.109 0.675,6.155 3.238,11.864 3.238,11.864 19.139,-21.022 48.248,-16.714 48.248,-16.714 z"
   fill="#ebe0eb" />
	<path
   id="path401"
   d="m 629.818,713.188 c 0.536,3.508 5.394,21.837 5.394,21.837 21.291,-22.379 53.639,-15.643 53.639,-15.643 -3.235,-5.658 -10.24,-22.373 -10.24,-22.373 -31.538,-6.736 -48.793,16.179 -48.793,16.179 z"
   fill="#ebe0eb" />
	<path
   id="path403"
   d="m 637.365,737.713 c -1.827,6.458 4.854,24.536 4.854,24.536 17.251,-30.194 57.143,-21.565 57.143,-21.565 -3.232,-7.815 -8.083,-16.444 -8.083,-16.444 -32.89,-10.78 -53.914,13.473 -53.914,13.473 z"
   fill="#ebe0eb" />
	<path
   id="path405"
   d="m 701.791,789.473 c 0,0 11.861,-0.536 21.563,8.357 0,0 9.436,-50.41 -30.73,-52.561 -10e-4,10e-4 12.132,16.444 9.167,44.204 z"
   fill="#ad8bba" />
	<path
   id="path407"
   d="m 699.362,789.473 c 2.429,-32.617 -12.129,-44.203 -12.129,-44.203 -28.306,-1.356 -41.514,20.48 -41.514,20.48 -14.019,27.494 7.821,53.374 7.821,53.374 17.249,-32.08 45.822,-29.651 45.822,-29.651 z"
   fill="#ad8bba" />
	<path
   id="path409"
   d="m 659.335,819.131 c -27.901,73.861 -18.308,151.217 -18.308,151.217 0.694,11.322 40.273,48.523 40.273,48.523 -3.229,-100.283 18.336,-119.143 18.336,-119.143 36.659,-24.802 135.846,-12.943 135.846,-12.943 -8.093,-7.551 -22.373,-18.33 -22.373,-18.33 -48.253,-24.801 -95.146,-67.926 -95.146,-67.926 -37.201,-22.65 -58.628,18.602 -58.628,18.602 z"
   fill="#ad8bba" />
	<path
   id="path411"
   d="m 715.135,895.414 c -37.603,5.257 -29.52,125.337 -29.52,125.337 9.439,0.271 14.286,-1.88 14.286,-1.88 3.504,-47.717 12.669,-89.769 12.669,-89.769 5.664,-24.795 65.771,-23.987 65.771,-23.987 58.497,-5.93 63.351,12.529 63.351,12.529 v -16.166 c -1.211,-12.536 -25.877,-13.344 -25.877,-13.344 -55.802,-4.449 -100.68,7.28 -100.68,7.28 z"
   fill="#9564a2" />
	<path
   id="path413"
   d="m 702.598,1017.114 c 21.527,7.312 71.569,36.796 71.569,36.796 -4.851,-68.333 -57.015,-125.344 -57.015,-125.344 -8.079,22.238 -14.554,88.548 -14.554,88.548 z"
   fill="#a882b4" />
	<path
   id="path415"
   d="m 818.237,910.372 c 0,0 -75.608,-5.664 -97.438,13.344 0,0 53.771,61.454 58.219,132.616 0,0 24.665,-2.416 35.587,-9.295 0,0 43.67,-9.3 51.347,-17.387 -10e-4,0 0.405,-109.17 -47.715,-119.278 z"
   fill="#ebe0eb" />
	<path
   id="path417"
   d="m 488.465,379.805 c 0.735,0.752 1.459,1.511 2.198,2.261 0.795,0.026 1.725,0.32 2.377,0.026 19.783,-8.894 39.036,-19.008 57.844,-33.127 18.533,-13.915 36.308,-34.034 58.78,-30.711 2.558,0.378 5.584,-1.892 10.887,-4.075 -4.599,-5.79 -7.715,-8.299 -9.928,-12.255 -7.453,-13.331 -16.233,-8.119 -26.864,1.486 -18.126,16.382 -34.502,30.772 -50.188,45.378 -13.026,12.129 -27.074,21.259 -41.226,29.988 -1.094,0.674 -2.579,0.706 -3.88,1.029 z"
   fill="#793a8a" />
	<path
   id="path419"
   d="m 720.442,397.217 c 9.882,43.728 30.018,76.437 44.976,73.056 24.189,-5.467 42.086,-24.988 49.13,-49.872 -7.712,-2.585 -16.655,-18.513 -21.422,-39.61 -4.834,-21.386 -3.807,-39.753 2.182,-45.114 -17.054,-19.342 -41.544,-29.209 -65.675,-23.756 -14.958,3.381 -19.072,41.57 -9.191,85.296 z"
   fill="#ad8bba" />
	<path
   id="path421"
   d="m 800.012,340.228 c -7.012,1.584 -8.94,19.485 -4.308,39.982 4.631,20.497 14.07,35.829 21.082,34.244 17.602,-3.978 28.114,-23.818 23.481,-44.315 -4.631,-20.497 -22.654,-33.889 -40.255,-29.911 z"
   fill="#ad8bba" />
	<path
   id="path423"
   d="m 503.062,228.431 c 0.879,7.082 1.023,13.324 1.092,18.439 -0.052,2.548 -0.09,4.822 -0.129,6.801 -0.139,1.973 -0.259,3.643 -0.353,5.002 -0.064,0.752 -0.119,1.408 -0.161,1.96 0.207,-0.517 0.445,-1.121 0.723,-1.821 0.518,-1.26 1.16,-2.816 1.916,-4.641 0.84,-1.792 1.802,-3.859 2.887,-6.168 1.018,-2.354 2.432,-4.799 3.904,-7.512 0.756,-1.347 1.469,-2.783 2.351,-4.211 0.888,-1.424 1.806,-2.894 2.755,-4.411 1.866,-3.113 4.05,-6.142 6.336,-9.375 0.287,-0.407 0.574,-0.811 0.865,-1.221 0.165,-0.223 0.242,-0.358 0.484,-0.662 l 0.475,-0.607 c 0.633,-0.813 1.272,-1.637 1.925,-2.467 1.302,-1.663 2.606,-3.387 4.099,-5.031 1.488,-1.646 2.89,-3.394 4.537,-5.057 1.641,-1.663 3.307,-3.397 5.018,-5.086 1.744,-1.56 3.52,-3.149 5.322,-4.757 0.9,-0.794 1.809,-1.595 2.719,-2.406 l 1.328,-1.172 c 0.43,-0.407 0.842,-0.836 1.262,-1.259 0.834,-0.843 1.705,-1.68 2.521,-2.548 0.773,-0.881 1.555,-1.773 2.336,-2.664 0.795,-0.833 1.586,-1.941 2.383,-2.929 l 1.201,-1.524 0.258,-0.333 c 0.02,-0.02 0.039,-0.052 0.037,-0.049 l 0.064,-0.09 0.129,-0.187 0.506,-0.74 c 1.379,-1.979 2.58,-4.075 3.498,-6.294 0.51,-1.088 0.854,-2.241 1.26,-3.372 l 0.475,-1.75 c 0.168,-0.582 0.229,-1.124 0.355,-1.692 l 0.168,-0.849 0.109,-1.014 0.109,-1.021 0.059,-0.507 c 0,0.003 0,-0.007 0,-0.026 l 0.004,-0.084 0.006,-0.242 c 0.041,-1.279 0.145,-2.574 0.084,-3.856 0.006,-2.583 -0.301,-5.145 -0.727,-7.702 -0.508,-2.512 -1.221,-5.108 -2.15,-7.379 -0.182,-0.568 -0.537,-1.243 -0.82,-1.876 l -0.453,-0.962 -0.229,-0.481 -0.039,-0.094 c -0.014,-0.017 -0.025,-0.039 -0.023,-0.036 l -0.121,-0.22 c -0.65,-1.175 -1.273,-2.376 -2.002,-3.504 -1.396,-2.306 -3.004,-4.472 -4.799,-6.478 -1.762,-2.044 -3.736,-3.901 -5.904,-5.525 -4.27,-3.342 -9.34,-5.726 -14.729,-7.14 -1.356,-0.388 -2.67,-0.61 -4.065,-0.885 l -2.147,-0.313 -0.536,-0.081 -0.478,-0.039 -1.044,-0.087 c -2.78,-0.3 -5.58,-0.132 -8.364,0.129 -2.751,0.475 -5.509,1.03 -8.125,2.038 -1.34,0.43 -2.57,1.06 -3.836,1.618 -1.24,0.584 -2.545,1.353 -3.714,1.999 -1.169,0.765 -2.331,1.527 -3.481,2.312 -1.068,0.881 -2.138,1.76 -3.209,2.632 -1.015,0.93 -1.954,1.941 -2.936,2.897 -0.928,1.004 -1.715,2.131 -2.574,3.178 -0.833,1.072 -1.488,2.267 -2.241,3.384 -0.381,0.553 -0.682,1.156 -0.976,1.764 l -0.885,1.799 -0.445,0.897 -0.352,0.917 -0.701,1.831 c -0.51,1.166 -0.826,2.532 -1.201,3.833 l -0.275,0.981 -0.132,0.485 -0.064,0.249 c -0.003,0.006 -0.052,0.158 -0.01,0.042 l -0.02,0.117 -0.297,1.84 c -0.132,0.598 -0.146,1.228 -0.168,1.848 -0.017,0.623 -0.084,1.24 -0.067,1.85 0.08,1.237 0.07,2.371 0.277,3.733 l 0.119,0.982 0.059,0.491 0.016,0.123 c 0.004,0.058 -0.006,-0.064 0.014,0.045 l 0.041,0.229 0.362,1.857 c 0.255,1.233 0.43,2.467 0.739,3.665 0.336,1.195 0.672,2.383 1.004,3.565 0.281,1.198 0.718,2.315 1.108,3.446 0.42,1.13 0.753,2.225 1.224,3.358 0.501,1.14 0.966,2.283 1.431,3.417 l 0.672,1.611 0.756,1.702 c 0.972,2.257 2.06,4.489 2.81,6.681 0.41,1.102 0.813,2.183 1.214,3.262 l 0.601,1.608 c 0.184,0.584 0.361,1.169 0.546,1.75 0.652,2.199 1.386,4.331 1.94,6.469 2.313,8.52 3.702,16.503 4.489,23.601 z m 1.834,-72.641 c 1.496,-4.24 3.859,-7.673 6.863,-10.476 1.508,-1.363 3.109,-2.616 4.856,-3.617 1.737,-1.017 3.556,-1.94 5.493,-2.522 0.953,-0.362 1.953,-0.526 2.941,-0.759 1.012,-0.116 1.971,-0.333 3.063,-0.291 0.516,0.006 1.107,-0.01 1.563,0.025 0.439,0.036 0.875,0.071 1.314,0.107 l 0.319,0.039 0.084,0.006 0.042,0.003 0.178,0.039 0.184,0.039 0.717,0.159 c 0.479,0.113 0.957,0.223 1.422,0.358 3.713,1.169 6.826,3.458 8.883,6.11 2.074,2.671 3.107,5.606 3.623,8.145 0.523,2.558 0.494,4.779 0.439,6.546 -0.021,0.445 -0.045,0.865 -0.064,1.256 -0.031,0.391 -0.104,0.766 -0.133,1.108 -0.07,0.691 -0.154,1.263 -0.252,1.711 -0.174,0.907 -0.262,1.395 -0.262,1.395 l -0.002,0.013 c 0,0 -0.129,0.487 -0.365,1.395 -0.104,0.458 -0.275,1.011 -0.508,1.657 -0.119,0.319 -0.215,0.685 -0.355,1.053 -0.148,0.361 -0.313,0.752 -0.484,1.162 -0.713,1.628 -1.658,3.64 -3.242,5.723 -1.572,2.073 -3.771,4.279 -6.8,5.861 -1.518,0.739 -3.2,1.414 -5.034,1.725 -0.459,0.077 -0.924,0.181 -1.393,0.235 -0.471,0.036 -0.949,0.064 -1.43,0.094 -0.931,0.097 -2.045,0 -3.101,-0.058 -0.533,-0.045 -0.868,-0.126 -1.321,-0.181 l -0.636,-0.1 -0.323,-0.049 -0.265,-0.058 -0.097,-0.022 -0.181,-0.048 c -0.988,-0.274 -1.993,-0.51 -2.955,-0.927 -1.967,-0.72 -3.82,-1.854 -5.532,-3.188 -1.701,-1.347 -3.203,-2.978 -4.492,-4.77 -1.239,-1.834 -2.25,-3.837 -2.957,-5.955 -0.676,-2.131 -0.979,-4.363 -0.969,-6.582 0.075,-2.156 0.556,-4.627 1.169,-6.361 z"
   fill="#ebe0eb" />
	<path
   id="path425"
   d="m 507.654,174.688 c 1.289,1.792 2.791,3.423 4.492,4.77 1.712,1.334 3.565,2.467 5.532,3.188 0.962,0.417 1.967,0.652 2.955,0.927 l 0.181,0.048 0.097,0.022 0.265,0.058 0.323,0.049 0.636,0.1 c 0.453,0.055 0.788,0.136 1.321,0.181 1.056,0.058 2.17,0.155 3.101,0.058 0.48,-0.029 0.959,-0.058 1.43,-0.094 0.469,-0.055 0.934,-0.158 1.393,-0.235 1.834,-0.311 3.517,-0.985 5.034,-1.725 3.029,-1.583 5.229,-3.788 6.8,-5.861 1.584,-2.083 2.529,-4.095 3.242,-5.723 0.172,-0.41 0.336,-0.801 0.484,-1.162 0.141,-0.368 0.236,-0.733 0.355,-1.053 0.232,-0.646 0.404,-1.198 0.508,-1.657 0.236,-0.908 0.365,-1.395 0.365,-1.395 l 0.002,-0.013 c 0,0 0.088,-0.488 0.262,-1.395 0.098,-0.449 0.182,-1.021 0.252,-1.711 0.029,-0.342 0.102,-0.717 0.133,-1.108 0.02,-0.391 0.043,-0.811 0.064,-1.256 0.055,-1.767 0.084,-3.988 -0.439,-6.546 -0.516,-2.539 -1.549,-5.474 -3.623,-8.145 -2.057,-2.651 -5.17,-4.941 -8.883,-6.11 -0.465,-0.136 -0.943,-0.246 -1.422,-0.358 l -0.717,-0.159 -0.184,-0.039 -0.178,-0.039 -0.042,-0.003 -0.084,-0.006 -0.319,-0.039 c -0.439,-0.036 -0.875,-0.071 -1.314,-0.107 -0.455,-0.035 -1.047,-0.019 -1.563,-0.025 -1.092,-0.042 -2.051,0.174 -3.063,0.291 -0.988,0.232 -1.988,0.397 -2.941,0.759 -1.938,0.582 -3.756,1.505 -5.493,2.522 -1.747,1.001 -3.349,2.254 -4.856,3.617 -3.004,2.803 -5.367,6.235 -6.863,10.476 -0.613,1.734 -1.094,4.205 -1.168,6.362 -0.01,2.219 0.293,4.45 0.969,6.582 0.706,2.118 1.717,4.12 2.956,5.954 z"
   fill="#793a8a" />
	<path
   id="path427"
   d="m 226.047,611.582 c -0.118,-0.876 -0.246,-1.75 -0.36,-2.626 -2.545,-19.504 -0.046,-40.188 0.637,-59.794 0.004,-0.104 10e-4,-0.207 -0.008,-0.307 -0.002,-0.036 -0.011,-0.07 -0.017,-0.105 -0.007,-0.063 -0.015,-0.125 -0.03,-0.188 -0.007,-0.04 -0.021,-0.08 -0.031,-0.119 -0.016,-0.055 -0.031,-0.109 -0.05,-0.161 -0.016,-0.043 -0.033,-0.083 -0.05,-0.125 -0.022,-0.049 -0.041,-0.098 -0.065,-0.145 -0.021,-0.043 -0.044,-0.083 -0.067,-0.123 -0.027,-0.046 -0.054,-0.091 -0.083,-0.137 -0.027,-0.04 -0.055,-0.078 -0.084,-0.119 -0.03,-0.041 -0.063,-0.084 -0.097,-0.128 -0.033,-0.036 -0.064,-0.076 -0.098,-0.113 -0.039,-0.04 -0.078,-0.081 -0.117,-0.122 -0.036,-0.036 -0.072,-0.072 -0.11,-0.107 -0.042,-0.04 -0.088,-0.081 -0.136,-0.12 -0.033,-0.028 -0.069,-0.058 -0.103,-0.086 -0.028,-0.021 -0.051,-0.042 -0.077,-0.062 -12.062,-4.091 -24.494,-2.175 -36.206,0.156 -4.335,0.861 -8.726,2.096 -13.087,3.453 -5.384,2.17 -10.558,4.852 -15.381,7.978 5.459,16.201 13.812,31.425 19.881,47.397 1.326,3.489 2.403,7.134 3.324,10.863 9.349,-3.61 20.582,-6.845 30.854,-6.845 4.234,0 8.091,0.584 11.561,1.685 z m -23.183,-48.725 c 6.284,5.178 7.165,14.186 2.006,20.506 -5.088,6.234 -14.28,7.193 -20.487,2.139 l -0.107,-0.09 c -6.118,-5.081 -7.032,-14.524 -2,-20.626 5.089,-6.165 14.293,-7.055 20.522,-1.98 z"
   fill="#ad8bba" />
	<path
   id="path429"
   d="m 205.951,743.13 c 0.022,0.118 0.043,0.236 0.065,0.354 0.008,0.048 0.02,0.098 0.027,0.145 0.049,0.263 0.099,0.521 0.149,0.779 0.008,0.052 0.021,0.1 0.028,0.149 0.051,0.257 0.101,0.509 0.151,0.762 0.01,0.055 0.022,0.105 0.032,0.16 0.051,0.248 0.098,0.491 0.149,0.736 0.012,0.058 0.022,0.118 0.037,0.174 0.047,0.242 0.097,0.48 0.149,0.715 0.013,0.057 0.024,0.112 0.034,0.171 0.055,0.234 0.104,0.466 0.157,0.695 0.011,0.06 0.024,0.116 0.036,0.176 0.052,0.229 0.104,0.458 0.157,0.682 0.012,0.053 0.026,0.104 0.037,0.156 0.052,0.229 0.105,0.455 0.16,0.678 0.01,0.05 0.023,0.097 0.037,0.143 0.053,0.228 0.11,0.453 0.165,0.675 0.009,0.035 0.02,0.07 0.029,0.106 0.057,0.232 0.117,0.46 0.176,0.686 0.006,0.016 0.01,0.03 0.012,0.045 0.323,1.209 0.661,2.332 1.009,3.346 0.021,0.05 0.04,0.105 0.058,0.156 0.047,0.141 0.097,0.274 0.148,0.411 0.027,0.075 0.053,0.151 0.082,0.224 0.046,0.119 0.093,0.237 0.137,0.354 0.034,0.084 0.065,0.167 0.098,0.247 0.046,0.109 0.09,0.21 0.132,0.313 0.036,0.084 0.072,0.171 0.108,0.254 0.043,0.096 0.084,0.188 0.127,0.279 0.04,0.084 0.077,0.17 0.117,0.251 0.042,0.088 0.083,0.17 0.126,0.253 0.041,0.08 0.081,0.161 0.12,0.238 0.042,0.079 0.083,0.152 0.126,0.23 0.042,0.074 0.083,0.149 0.126,0.223 0.043,0.07 0.083,0.137 0.125,0.205 0.043,0.069 0.086,0.14 0.129,0.205 0.042,0.063 0.085,0.124 0.125,0.184 0.045,0.063 0.09,0.124 0.135,0.188 0.041,0.053 0.085,0.104 0.125,0.158 0.047,0.057 0.093,0.111 0.14,0.165 0.041,0.047 0.084,0.093 0.126,0.138 0.047,0.051 0.094,0.097 0.141,0.142 0.045,0.041 0.085,0.079 0.128,0.116 0.043,0.035 0.085,0.07 0.126,0.102 0.074,0.059 0.151,0.111 0.229,0.159 0.033,0.02 0.064,0.043 0.101,0.062 0.11,0.062 0.218,0.113 0.329,0.151 2.431,0.812 4.069,0.791 14.485,0.86 5.712,0.036 6.95,1.512 11.901,-1.4 10.704,-6.297 9.718,-7.648 7.887,-19.336 -0.167,-1.066 -0.336,-2.132 -0.503,-3.198 -7.43,4.856 -16.38,7.317 -26.698,7.317 -4.164,-10e-4 -8.556,-0.39 -13.332,-1.184 z"
   fill="#ad8bba" />
	<path
   id="path431"
   d="m 182.276,564.786 c -5.032,6.102 -4.119,15.545 2,20.626 l 0.107,0.09 c 6.207,5.055 15.398,4.096 20.487,-2.139 5.159,-6.32 4.278,-15.328 -2.006,-20.506 l -0.065,-0.052 c -6.229,-5.074 -15.433,-4.184 -20.523,1.981 z m 19.802,16.3 c -3.843,4.707 -10.86,5.41 -15.501,1.555 -4.612,-3.831 -5.309,-10.968 -1.521,-15.56 3.85,-4.666 10.818,-5.313 15.515,-1.441 4.782,3.938 5.434,10.632 1.507,15.446 z"
   fill="#793a8a" />
	<path
   id="path433"
   d="m 223.137,485.894 c -2.677,-2.182 -5.356,-4.361 -8.034,-6.542 -0.875,-0.394 -1.784,-0.729 -2.623,-1.187 -16.207,-8.861 -32.608,-9.082 -48.771,-0.3 -13.172,7.156 -21.204,18.533 -24.449,33.16 -0.997,4.499 -1.402,9.109 -0.79,13.716 30.93,-14.996 62.871,-22.824 97.423,-15.67 -1.455,-5.683 -3.612,-10.762 -6.788,-15.355 -1.863,-2.695 -3.969,-5.22 -5.968,-7.822 z"
   fill="#ad8bba" />
	<path
   id="path435"
   d="m 187.49,539.982 c 13.477,-2.68 27.091,-4.517 40.701,0.352 4.461,-7.167 7.274,-14.855 7.899,-23.352 0.01,-0.142 0.016,-0.274 0.018,-0.403 0.002,-0.038 0.001,-0.074 0.002,-0.114 -0.001,-1.527 -0.61,-2.139 -2.134,-2.657 -13.048,-4.434 -26.338,-4.644 -39.727,-2.188 -13.454,2.467 -26.429,6.684 -39.221,11.425 -5.094,1.889 -9.993,4.307 -15.105,6.536 0.27,0.729 0.553,1.442 0.846,2.147 0.153,0.371 0.304,0.744 0.464,1.111 0.089,0.202 0.181,0.398 0.27,0.597 0.147,0.326 0.292,0.652 0.44,0.972 0.102,0.214 0.208,0.424 0.312,0.635 0.144,0.301 0.289,0.602 0.438,0.896 0.11,0.217 0.228,0.43 0.339,0.649 0.15,0.28 0.294,0.565 0.447,0.84 0.123,0.223 0.249,0.437 0.372,0.655 0.151,0.268 0.299,0.536 0.455,0.797 0.129,0.219 0.263,0.433 0.398,0.649 0.155,0.255 0.308,0.513 0.47,0.764 0.136,0.217 0.278,0.426 0.418,0.64 0.163,0.245 0.324,0.493 0.488,0.735 0.146,0.214 0.298,0.419 0.447,0.63 0.166,0.234 0.332,0.474 0.504,0.703 0.154,0.209 0.313,0.413 0.471,0.619 0.172,0.226 0.343,0.454 0.519,0.677 0.164,0.204 0.331,0.403 0.496,0.604 0.181,0.217 0.358,0.438 0.54,0.651 0.169,0.2 0.347,0.392 0.52,0.588 0.185,0.21 0.371,0.421 0.559,0.628 0.18,0.193 0.363,0.381 0.545,0.573 0.191,0.201 0.384,0.403 0.58,0.603 0.187,0.188 0.378,0.372 0.568,0.557 0.201,0.194 0.398,0.389 0.601,0.58 0.194,0.182 0.396,0.36 0.593,0.539 0.207,0.186 0.411,0.375 0.624,0.557 0.201,0.177 0.41,0.348 0.617,0.521 0.27,0.227 0.537,0.454 0.812,0.676 3.577,-1.813 6.637,-3.857 10.005,-4.968 7.378,-2.434 14.811,-4.914 22.409,-6.424 z"
   fill="#ad8bba" />
	<path
   id="path437"
   d="m 200.571,565.64 c -4.697,-3.872 -11.666,-3.225 -15.515,1.441 -3.788,4.592 -3.092,11.729 1.521,15.56 4.641,3.855 11.659,3.152 15.501,-1.555 3.927,-4.814 3.275,-11.508 -1.507,-15.446 z"
   fill="#ffffff" />
	<path
   id="path439"
   d="m 273.082,659.973 c -0.725,-0.938 -1.567,-2.047 -2.466,-3.263 C 267,653 265,647 261.483,642.995 l -2.455,-3.288 c -4.385,-2.313 -9.926,-7.074 -14.688,-8.872 l 0.844,5.241 c 0.291,6.519 -1.277,12.131 -4.652,16.737 6.629,3.684 10.015,9.545 11.736,14.782 l 0.148,0.451 0.842,5.102 c 0.342,5.939 -0.831,11.165 -3.487,15.603 6.751,1.291 8.381,8.499 9.107,11.755 0.264,1.184 0.592,2.657 0.912,3.256 l 0.488,0.917 0.725,4.284 c 3.167,0.286 6.653,0.147 10.504,-0.531 0,0 30.439,-10.497 4.007,-45.391 0,0 -0.984,-1.192 -2.432,-3.068 z"
   fill="#ebe0eb" />
	<path
   id="path441"
   d="m 246.563,728.401 c 1.312,-0.939 2.499,-1.933 3.537,-3.042 2.077,-2.222 3.558,-4.918 4.256,-8.18 0.419,-1.957 0.556,-4.117 0.371,-6.499 l -0.674,-3.861 c -1.651,-3.099 -1.586,-8.181 -3.603,-10.527 -0.674,-0.782 -1.579,-1.261 -2.858,-1.253 -11.903,1.693 -22.962,6.798 -35.146,6.131 -1.435,-0.044 -2.879,-0.077 -4.319,-0.11 -8.638,-0.199 -17.001,-0.386 -22.597,6.801 -0.477,0.677 -0.875,1.436 -1.2,2.254 -2.708,6.826 -0.288,17.892 4.697,21.801 0.997,0.781 2.096,1.277 3.277,1.396 17.865,5.102 39.132,8.504 54.259,-4.911 z"
   fill="#ebe0eb" />
	<path
   id="path443"
   d="m 177.845,661.006 c 1.276,-0.054 2.635,-0.087 4.062,-0.109 1.435,-0.039 2.944,-0.068 4.573,-0.128 13.483,-3.166 27.944,-2.315 41.504,-5.825 1.104,-0.517 2.161,-1.107 3.146,-1.781 3.94,-2.693 6.75,-6.685 7.419,-12.674 0.156,-1.289 0.208,-2.662 0.142,-4.122 l -0.704,-4.124 c -8.252,-27.38 -46.532,-12.918 -65.249,-3.585 -1.698,0.874 -2.974,2.292 -3.872,4.072 -3.592,7.12 -1.134,20.037 4.348,25.646 1.37,1.401 2.93,2.347 4.631,2.63 z"
   fill="#ebe0eb" />
	<path
   id="path445"
   d="m 184.65,695.882 c 19.565,3.402 63.799,6.806 62.119,-22.359 l -0.676,-3.897 c -1.451,-4.414 -3.77,-7.596 -6.71,-9.799 -0.982,-0.732 -2.033,-1.356 -3.146,-1.872 -1.246,0.136 -2.494,0.282 -3.746,0.438 -1.256,0.154 -2.514,0.316 -3.795,0.491 -11.722,2.974 -24.481,2.123 -36.861,4.754 -1.272,0.31 -2.556,0.666 -3.826,1.087 -3.807,1.262 -7.43,3.135 -10.771,5.986 -0.542,0.844 -0.937,1.826 -1.211,2.924 -1.909,7.675 2.11,20.944 8.623,22.247 z"
   fill="#ebe0eb" />
</g>
</svg>
