<?xml version="1.0" encoding="utf-8"?>
<!-- Generator: Adobe Illustrator 16.0.0, SVG Export Plug-In . SVG Version: 6.00 Build 0)  -->
<!DOCTYPE svg PUBLIC "-//W3C//DTD SVG 1.1//EN" "http://www.w3.org/Graphics/SVG/1.1/DTD/svg11.dtd">
<svg version="1.1" id="Layer_1" xmlns="http://www.w3.org/2000/svg" xmlns:xlink="http://www.w3.org/1999/xlink" x="0px" y="0px"
	 width="1080px" height="1080px" viewBox="0 0 1080 1080" enable-background="new 0 0 1080 1080" xml:space="preserve">
<g>
	<path fill="none" d="M275.418,467.329c-1.832-1.9-3.574-3.876-5.22-5.925c0.028,3.056,0.172,6.167,0.475,9.356
		C272.157,469.615,273.751,468.452,275.418,467.329z"/>
	<path fill="none" d="M332.187,260.204c-4.36,8.464-8.958,16.805-13.518,25.163c-1.746,3.2-3.494,6.399-5.244,9.597
		c5.586-2.632,11.377-4.656,17.311-6.047c8.484-10.428,17.662-19.892,27.48-28.356c-6.639-1.168-13.285-2.301-19.946-3.363
		C335.184,256.703,333.604,257.446,332.187,260.204z"/>
	<path fill="none" d="M240.133,552.977c-0.183,4.339-0.432,8.715-0.679,12.973l-0.008,0.146c-0.818,14.07-1.663,28.594,0.052,41.731
		c0.555,4.251,1.176,8.533,1.823,12.822c2.946-0.638,5.807-1.053,8.538-1.217l10.108-8.486l1.078,0.097l8.5-7.317
		c-1.593-8.229-3.158-23.781,4.547-34.234c-2.03-4.629-3.943-9.398-5.743-14.283c-8.065,2.773-15.823,5.812-23.157,9.09
		L240.133,552.977z"/>
	<path fill="none" d="M463.725,196.517c9.076,4.016,18.179,8.007,26.805,12.913l2.508-0.173c-0.867-3.191-1.818-6.365-2.884-9.516
		c-0.406-1.195-0.837-2.379-1.287-3.556C480.423,196.139,472.022,196.249,463.725,196.517z"/>
	<path fill="#AD8BBA" d="M930.814,768.389c-4.05,9.892-8.523,20.254-13.333,30.875l30.123,13.641
		c5.758-12.717,11.067-25.102,15.772-36.805L934.275,764.4C933.371,765.702,932.235,767.063,930.814,768.389z"/>
	<path fill="#AD8BBA" d="M538.542,879.241l25.809,20.675c7.04-8.791,14.706-19.002,24.13-32.133l-26.869-19.279
		C552.537,861.15,545.207,870.919,538.542,879.241z"/>
	<path fill="#AD8BBA" d="M451.14,936.682c-8.69,0.188-18.743-0.985-29.942-3.479l-7.188,32.274
		c12.785,2.852,24.672,4.295,35.322,4.295c0.859,0,1.708-0.01,2.49-0.029c2.031-0.038,4.037-0.136,6.023-0.284l-2.474-32.978
		C453.998,936.585,452.605,936.656,451.14,936.682z"/>
	<path fill="#AD8BBA" d="M486.087,927.442l15.468,29.226c11.861-6.278,23.326-14.768,35.042-25.954l-22.838-23.917
		C504.275,915.855,495.223,922.608,486.087,927.442z"/>
	<path fill="#AD8BBA" d="M905.31,611.146c12.998-2.174,24.04-2.268,32.478-0.269l7.641-32.171
		c-12.836-3.052-28.104-3.103-45.588-0.171L905.31,611.146z"/>
	<path fill="#AD8BBA" d="M179.911,761.632l-27.708,18.052c7.166,11,15.49,22.141,24.737,33.107l25.283-21.313
		C193.846,781.541,186.339,771.501,179.911,761.632z"/>
	<path fill="#AD8BBA" d="M852.771,499.998l14.713,29.613c15.311-7.605,27.45-17.735,36.085-30.114l-27.123-18.917
		C870.946,488.463,863.203,494.815,852.771,499.998z"/>
	<path fill="#AD8BBA" d="M728.148,206.771c-12.223-4.918-25.085-9.51-38.223-13.641l-9.92,31.544
		c12.323,3.875,24.365,8.173,35.801,12.775L728.148,206.771z"/>
	<path fill="#AD8BBA" d="M650.968,182.335c-12.82-3.094-26.106-5.865-39.482-8.235l-5.773,32.559
		c12.717,2.254,25.334,4.886,37.499,7.821L650.968,182.335z"/>
	<path fill="#AD8BBA" d="M800.806,244.234c-11.08-7.269-23.032-14.193-35.52-20.587l-15.068,29.432
		c11.438,5.858,22.356,12.185,32.452,18.805L800.806,244.234z"/>
	<path fill="#AD8BBA" d="M885.036,419.93c1.237,7.783,1.863,15.139,1.863,21.859c0,3.452-0.165,6.798-0.49,9.943l32.894,3.403
		c0.442-4.272,0.665-8.764,0.665-13.347c0-8.451-0.766-17.551-2.273-27.068c-0.171-1.065-0.349-2.125-0.529-3.184l-32.597,5.574
		L885.036,419.93z"/>
	<path fill="#AD8BBA" d="M875.261,382.159l31.041-11.393c-4.835-13.169-10.948-26.006-18.175-38.151l-28.418,16.909
		C865.896,359.922,871.128,370.902,875.261,382.159z"/>
	<path fill="#AD8BBA" d="M838.44,320.05l25.079-21.559c-8.839-10.279-18.792-20.184-29.591-29.445l-21.526,25.105
		C821.932,302.32,830.693,311.037,838.44,320.05z"/>
	<path fill="#AD8BBA" d="M956.708,625.267c3.197,6.53,4.818,15.362,4.818,26.216c-0.003,1.411-0.029,2.846-0.081,4.302l33.049,1.169
		c0.065-1.824,0.098-3.627,0.101-5.438c0-15.969-2.755-29.69-8.184-40.786L956.708,625.267z"/>
	<path fill="#AD8BBA" d="M945.964,727.824l31.376,10.443c4.657-13.986,8.419-27.229,11.184-39.358l-32.241-7.351
		C953.753,702.648,950.281,714.849,945.964,727.824z"/>
	<path fill="#AD8BBA" d="M689.765,692.256l0.032,0.065c0.929,2.217,2.153,5.073,3.437,7.994l15.92,16.807
		c9.278-8.79,18.882-17.174,28.551-24.921l-20.681-25.802c-9.351,7.49-18.635,15.535-27.65,23.94
		c0.014,0.063,0.03,0.129,0.043,0.192L689.765,692.256z"/>
	<path fill="#AD8BBA" d="M883.215,868.981l29.265,15.397c6.326-12.025,12.406-23.948,18.067-35.436l-29.664-14.615
		C895.351,845.553,889.405,857.214,883.215,868.981z"/>
	<path fill="#AD8BBA" d="M866.246,949.301l7.714,4.493c6.723-11.542,13.327-23.148,19.621-34.489l-28.909-16.05
		c-3.527,6.353-7.158,12.791-10.848,19.254v0.413C858.982,930.744,863.046,939.812,866.246,949.301z"/>
	<path fill="#AD8BBA" d="M240.242,550.289c-0.031,0.893-0.07,1.79-0.108,2.688l5.059,11.32c7.334-3.278,15.092-6.316,23.157-9.09
		c-3.699-10.044-6.857-20.636-9.33-31.759c-3.469,1.176-6.889,2.399-10.257,3.665c-1.545,7.198-4.383,14.103-8.596,20.915
		C240.244,548.775,240.269,549.529,240.242,550.289z"/>
	<path fill="#AD8BBA" d="M134.432,614.626c-7.6,13.321-12.682,27.553-15.107,42.302l32.629,5.367
		c1.61-9.791,4.846-19.305,9.603-28.338c0.286-1.137,0.658-2.212,1.101-3.229L134.432,614.626z"/>
	<path fill="#AD8BBA" d="M555.565,199.729c4.08,0.412,8.149,0.846,12.186,1.326l2.2-18.494c-0.582,0.978-1.194,1.94-1.828,2.89
		C564.559,190.779,560.323,195.506,555.565,199.729z"/>
	<path fill="#AD8BBA" d="M784.778,621.347c-11.894,6.445-23.636,13.515-34.899,21.013l18.323,27.527
		c10.434-6.946,21.311-13.495,32.329-19.463L784.778,621.347z"/>
	<path fill="#AD8BBA" d="M152.256,695.941l-32.613,5.477c2.259,13.45,6.465,27.346,12.501,41.307l30.352-13.127
		C157.517,718.085,154.073,706.763,152.256,695.941z"/>
	<path fill="#AD8BBA" d="M809.386,541.792c2.412,0.675,4.354,1.569,5.794,2.383l1.455,0.599c3.232-0.519,6.382-1.085,9.46-1.699
		l-6.472-32.429c-10.719,2.138-23.106,3.678-36.814,4.576l0.146,2.23c2.585,5.322,4.037,10.823,4.649,15.376L809.386,541.792z"/>
	<path fill="#AD8BBA" d="M607.427,784.306c-8.445,11.415-16.457,22.686-23.181,32.202l27.011,19.079
		c6.244-8.839,13.613-19.203,21.356-29.717c-0.443-1.244-0.861-2.529-1.247-3.854L607.427,784.306z"/>
	<path fill="#AD8BBA" d="M256.197,844.451c-9.93-8.234-19.436-16.775-28.249-25.385l-23.109,23.651
		c9.454,9.235,19.629,18.384,30.248,27.188L256.197,844.451z"/>
	<path fill="#AD8BBA" d="M860.113,591.347l-0.75-2.245c-0.07,0.023-0.141,0.049-0.211,0.073c-0.029,0.266-0.059,0.522-0.087,0.741
		C859.487,590.457,859.834,590.939,860.113,591.347z"/>
	<path fill="#AD8BBA" d="M377.133,205.776c11.855-2.312,24.491-4.243,37.557-5.738l-2.641-23.047l-1.124-9.808
		c-7.353,0.843-14.583,1.82-21.645,2.917c-6.309,0.979-12.484,2.053-18.477,3.222L377.133,205.776z"/>
	<path fill="#AD8BBA" d="M463.725,196.517c8.297-0.268,16.698-0.377,25.143-0.332c-1.32-3.453-2.807-6.836-4.319-10.21
		c-3.174-7.075-5.373-14.432-6.449-22.137c-0.032-0.229-0.053-0.457-0.081-0.685c-9.043,0.093-18.028,0.338-26.859,0.771
		l1.371,27.828l0.256,5.202C456.406,196.775,460.058,196.635,463.725,196.517z"/>
	<path fill="#AD8BBA" d="M340.002,215.054l-9.92-31.544c-6.998,2.202-13.699,4.589-19.916,7.098l12.381,30.666
		C327.96,219.088,333.831,216.995,340.002,215.054z"/>
	<path fill="#AD8BBA" d="M241.075,350.274c-7.155,18.409-2.955,38.006,9.134,49.029c0.35-13.476,3.19-27.655,8.79-42.063
		c5.59-14.382,12.999-26.761,21.736-36.958C264.438,320.336,248.203,331.935,241.075,350.274z"/>
	<path fill="#AD8BBA" d="M290.116,410.687c-1.456,0.57-2.911,1.121-4.364,1.6c-4.998,1.646-10.036,3.184-15.084,4.641
		c5.727-7.208,13.953-13.216,23.247-17.631c0.479-1.225,0.969-2.449,1.496-3.67c-2.306-1.55-4.575-3.146-6.801-4.792l-6.491-4.805
		l1.932-7.838c0.366-1.484,8.922-35.395,34.292-72.645c-21.223,10.412-39.534,29.882-49.5,55.521
		c-8.164,21.004-9.385,42.731-4.827,62.004c7.986-0.956,15.909-1.882,23.797-2.733C288.446,417.14,289.211,413.918,290.116,410.687z
		"/>
	<path fill="#AD8BBA" d="M271.531,443.564c3.536,6.859,7.958,13.11,13.175,18.564c0.312-0.135,0.624-0.273,0.936-0.398
		c-0.8-10.129-0.796-21.717,0.9-33.85C277.805,430.923,272.924,436.026,271.531,443.564z"/>
	<path fill="#793A8A" d="M934.275,764.4c0.288-0.416,0.563-0.828,0.806-1.228c2.784-4.566,3.669-9.269,3.769-13.228l0.623-0.814
		c9.149-11.961,3.627-26.822-6.629-35.528c-6.518-6.323-9.879-10.192-11.555-12.33l-0.494-13.841
		c-0.081-9.526-3.417-20.636-10.021-33.165c-2.335-4.935-11.559-22.854-25.712-30.481l-4.496-5.735l-2.573-3.281l-6.249-7.964
		l-2.202-3.643l-0.701-0.064l-7.014-8.933l-0.976-1.673c-0.114-0.195-0.364-0.602-0.738-1.146c-0.279-0.407-0.626-0.89-1.048-1.431
		c0.028-0.219,0.058-0.476,0.087-0.741c0.517-4.754,0.855-16.776-6.945-27.051c-4.257-5.606-12.521-12.55-27.724-14.119
		l-7.849-3.231l-1.455-0.599c-1.44-0.813-3.382-1.708-5.794-2.383l-21.782-8.965c-0.612-4.554-2.064-10.055-4.649-15.376
		c-3.442-7.088-8.899-13.856-17.116-17.634c1.324-7.501,2.329-14.807,3.067-21.911c29.69-7.537,50.211-29.929,56.346-59.795
		c16.546-7.839,26.297-28.13,21.483-49.433c-4.797-21.221-22.501-35.255-40.807-35.31c-18.477-24.117-46.738-35.455-76.569-29.786
		c-23.927-34.787-59.26-61.703-104.058-78.91c-34.25-13.162-64.583-17.118-77.527-18.272c1.596-1.429,3.215-2.836,4.889-4.193
		c0.991-0.803,1.954-1.633,2.903-2.476c4.758-4.223,8.993-8.95,12.558-14.278c0.634-0.95,1.246-1.913,1.828-2.89
		c1.523-2.559,2.815-5.233,3.574-8.145c2.508-9.607,2.078-19.134-1.154-28.509c-6.83-19.834-25.229-32.997-46.093-33.023
		c-18.239-0.026-35.438,10.634-43.735,27.072c-3.698,7.333-5.513,14.974-4.524,23.196c0.027,0.229,0.049,0.456,0.081,0.685
		c1.076,7.705,3.275,15.062,6.449,22.137c1.513,3.374,2.999,6.758,4.319,10.21c0.45,1.177,0.881,2.361,1.287,3.556
		c1.066,3.15,2.017,6.325,2.884,9.516l-2.508,0.173c-8.626-4.906-17.729-8.897-26.805-12.913c-3.667,0.119-7.319,0.258-10.938,0.438
		l-0.256-5.202c-13.294-5.479-26.805-10.354-40.481-14.762l2.641,23.047c-13.066,1.495-25.702,3.426-37.557,5.738l-6.33-32.455
		c5.993-1.169,12.168-2.243,18.477-3.222c-0.784-0.223-1.564-0.456-2.349-0.676c-6.3-1.767-6.388-1.828-3.384-7.821
		c12.633-25.225,25.334-50.413,37.993-75.625c6.649-13.247,12.094-27.039,18.278-40.496c0.604-1.311,0.708-3.058,2.48-3.598
		c-0.469-0.817-0.934-1.634-1.398-2.448c-5.251-1.479-10.13-3.875-14.991-6.268c-1.447-0.717-1.385-2.413-1.13-3.801
		c0.4-2.189,0.827-4.402,1.576-6.485c0.972-2.693,0.368-4.208-2.513-4.889c-8.002-1.879-16.014-3.601-24.275-3.888
		c-3.568-0.126-6.494,0.662-9.045,3.526c-2.861,3.22-6.003,6.297-9.901,8.364c-3.09,1.637-4.392,1.017-4.444-2.444
		c-0.045-3.026-1.253-3.969-4.224-4.111c-3.533-0.168-7.24,0.714-10.605-1.13c-3.471,1.986-6.943,3.972-10.411,5.958
		c0.995,1.498-0.174,2.7-0.652,3.92c-14.222,36.084-29.032,71.92-44.752,107.382c-1.382,3.116-2.758,6.249-3.84,9.472
		c-0.843,2.509-2.173,3.071-4.741,2.732c-16.209-2.135-32.18-5.639-48.32-8.161c-14.648-2.287-29.361-3.817-44.186-4.24
		c-4.09-0.116-7.476,0.985-10.319,4.208c-5.262,5.971-9.405,12.617-12.756,19.773c-1.373,2.926-3.226,4.647-6.61,4.864
		c-3.626,0.236-7.214,1.079-10.841,1.308c-3.653,0.233-6.436,1.718-8.865,4.389c-4.087,4.492-6.916,9.746-9.67,15.078
		c-0.54,1.046-0.494,1.825,0.499,2.371c2.865,1.576,2.042,3.429,0.58,5.48c-3.544,4.977-7.067,9.969-10.532,14.997
		c-4.382,6.365-7.09,13.224-6.118,21.162c0.218,1.77,0.769,2.748,2.797,2.78c30.611,0.536,60.891,4.773,91.237,8.273
		c9.456,1.088,18.898,2.325,28.342,3.514c4.011,0.5,4.002,0.52,2.304,4.221c-20.817,45.311-43.974,89.411-68.67,132.713
		c-3.959,6.939-7.923,13.879-11.847,20.839c-0.822,1.459-2.266,2.942-0.257,4.641c0.267,0.223,0.393,0.995,0.215,1.298
		c-1.876,3.213-2.056,7.16-4.402,10.156c0.467,0.817,0.933,1.634,1.402,2.451c3.916-0.823,7.669,0.465,11.271,1.453
		c5.185,1.418,9.11,0.32,12.971-3.313c4.24-3.992,9.9-2.671,15.046-2.887c1.829-0.074,1.264,1.615,0.933,2.684
		c-0.714,2.306,0.229,3.21,2.479,3.42c6.321,0.588,12.622-0.11,18.935-0.188c1.198-0.016,2.556-0.833,3.554,0.536
		c1.836-1.049,3.674-2.102,5.511-3.152c-0.605-1.095,0.284-1.766,0.767-2.502c1.95-2.97,3.879-5.951,5.798-8.939
		c0.708,0.549,1.429,1.083,2.172,1.587c0.331,5.438,1.075,10.737,2.222,15.861c-0.963,0.116-1.926,0.232-2.892,0.349
		c-1.466,3.752-2.795,6.901-3.862,10.079c-0.256,0.762-0.262,2.038,0.692,2.409c13.245,5.161,11.237,13.085,11.854,21.117
		c0.462,6.048,1.61,12.481,4.467,19.512l-4.015,8.845l-1.905,26.377c0.62,3.494,1.333,6.919,2.088,10.313
		c2.473,11.123,5.631,21.715,9.33,31.759c1.8,4.885,3.712,9.654,5.743,14.283c-7.705,10.453-6.14,26.006-4.547,34.234l-8.5,7.317
		l-1.078-0.097l-10.108,8.486c-2.731,0.164-5.592,0.579-8.538,1.217c-0.646-4.289-1.268-8.571-1.823-12.822
		c-1.714-13.138-0.87-27.661-0.052-41.731l0.008-0.146c0.247-4.258,0.496-8.634,0.679-12.973c0.038-0.897,0.077-1.795,0.108-2.688
		c0.027-0.76,0.002-1.514-0.076-2.261c4.213-6.813,7.051-13.717,8.596-20.915c0.597-2.781,1.007-5.604,1.219-8.486
		c0.151-2.075-0.016-4.05-0.497-5.9c0.474-2.103,0.45-4.306-0.091-6.413c-1.926-7.519-4.802-13.979-8.789-19.745
		c-1.542-2.233-3.17-4.294-4.594-6.099l-0.348-0.442c-0.492-0.625-0.965-1.228-1.434-1.839c-0.645-0.84-1.39-1.606-2.215-2.279
		l-8.044-6.553c-0.936-0.758-1.961-1.389-3.009-1.855c-0.342-0.155-0.688-0.303-1.032-0.449l-0.118-0.05
		c-0.217-0.091-0.426-0.176-0.591-0.252c-10.083-5.501-20.45-8.332-30.811-8.414l-0.468-0.001c-10.344,0-20.624,2.735-30.557,8.13
		c-8.285,4.504-15.174,10.475-20.475,17.746c-5.127,7.029-8.764,15.27-10.809,24.49c-1.451,6.538-1.777,12.583-0.997,18.494
		c0.208,1.558,0.688,3.071,1.411,4.469c0.118,1.138,0.379,2.253,0.78,3.331c4.256,11.47,10.476,20.426,18.994,27.364
		c0.169,0.139,0.338,0.274,0.452,0.363c0.285,0.228,0.578,0.443,0.877,0.646c0.014,0.044,0.029,0.089,0.044,0.133
		c3.264,9.688,7.421,18.887,11.442,27.782l0.063,0.14c2.969,6.563,6.039,13.35,8.553,19.97c1.291,3.393,2.335,7.07,3.223,10.908
		c-0.397,0.194-0.806,0.393-1.178,0.578c-2.835,1.459-5.152,3.854-6.701,6.924c-0.149,0.296-0.27,0.617-0.404,0.927
		c-0.442,1.017-0.814,2.092-1.101,3.229c-2.365,9.401,0.504,22.307,7.007,28.96c1.255,1.284,2.635,2.316,4.092,3.085
		c-2.875,3.517-4.129,8.934-3.407,15.449c0.963,8.688,5.31,18.111,12.891,20.474c-1.627,1.551-2.934,3.478-3.852,5.793
		c-3.806,9.595-0.599,23.566,6.729,29.313c1.829,1.434,3.831,2.327,5.961,2.661c0.216,0.062,0.418,0.111,0.633,0.171
		c0.373,2.404,0.777,4.812,1.216,7.141c2.535,13.429,5.309,19.913,10.235,23.925c1.526,1.243,3.22,2.18,5.029,2.781
		c4.42,1.477,7.224,1.495,17.663,1.563l1.074,0.006c0.968,0.007,1.752,0.085,2.695,0.179c1.062,0.106,2.331,0.216,3.689,0.216
		c0,0,0,0,0,0c4.351,0,8.224-1.137,12.558-3.686c5.871-3.454,11.37-7.097,14.143-13.655c2.527-5.981,1.659-11.379,0.652-17.638
		c-0.101-0.623-0.208-1.281-0.317-1.979c-0.721-4.6-1.42-9.062-2.103-13.413c1.181-2.083,2.048-4.339,2.566-6.762
		c0.373-1.741,0.555-3.581,0.577-5.485c0.93,0.065,1.877,0.106,2.853,0.106c0.002,0,0.003,0,0.005,0
		c2.682,0,5.507-0.258,8.397-0.768l0.204-0.04c0.522-0.11,12.833-2.842,17.006-14.041c2.954-7.928,0.907-17.52-6.042-28.569
		c1.474-4.043,2.457-8.749,2.786-14.204l4.883-6.11l3.701-2.486l2.9-5.593c2.089,0.426,4.311,0.646,6.665,0.646
		c5.635,0,10.999-1.247,14.222-2.184c16.089,18.659,31.705,32.223,42.298,40.522l-4.392,10.379l-0.068,0.013l-2.65,5.878
		c-2.907,6.426-4.803,11.219-6.053,14.861l-0.283,0.652h0.061c-0.946,2.835-1.488,4.94-1.779,6.51l-0.581,0.2l-4.67,11.678
		c-6.02,2.661-11.283,6.433-15.717,11.335c-17.103,18.924-14.438,47.381-14.315,48.588l0.193,1.938
		c-4.973,5.181-10.082,11.742-15.172,20.055c-1.973,2.894-26.836,38.797-62.364,66.557l-3.171,2.48l-0.947,0.626
		c-0.545,0.368-1.333,0.962-2.23,1.854l-6.298,8.241l-0.962,6.77c-0.704,3.616-1.047,7.931-0.824,13.072
		c-31.725,28.786-38.716,71.303-39.407,76.037c-5.681,30.582,11.528,38.326,15.934,39.779l-0.007,0.013
		c35.029,11.315,59.582,18.085,73.262,20.21l5.677,0.458l80.991-29.265l4.58,0.686l3.248,0.839l6.875,0.679l10.463-4.986
		l30.586-14.59l0.316-7.285c0.223-5.09,5.128-121.229-5.231-167.784l2.044-2.983c1.053-1.544,23.539-35.064,9.62-66.989l6.13-23.484
		l-0.439-0.503l4.94-15.547c23.349,7.551,49.138,11.394,77.227,11.394c55.754,0,101.155-15.433,104.117-16.47l0.517-0.193
		c2.005-0.82,3.965-1.66,5.906-2.506c0.442,1.388,0.875,2.557,1.221,3.429l0.316,2.073c0.575,3.733,4.144,17.4,5.654,23.104
		l1.702,6.426c0.746,7.221,3.235,15.353,5.658,21.889l0.71,1.925c-4.059,12.38-2.987,24.033-0.187,33.644
		c0.386,1.325,0.804,2.61,1.247,3.854c3.915,10.981,9.706,18.66,11.275,20.616c-23.07,70.31-15.646,139.075-14.936,145.043
		c0.491,5.91,3.934,14.486,23.6,35.587c10.141,10.89,20.029,20.196,20.442,20.591l0.997,0.93l4.302,4.043l7.321,1.021l8.267-1.149
		c4.689-0.51,7.957-1.479,9.682-2.1c18.136,7.441,50.865,25.938,63.779,33.521l8.297,4.889l5.173-0.717l6.481-0.62
		c8.584-1.26,22.337-3.927,31.731-9.029c17.92-3.901,47.094-11.412,55.723-20.493l3.319-3.488l0.016-4.817
		c0.022-7.103-0.387-46.45-11.837-80.396c-3.2-9.489-7.264-18.557-12.422-26.379v-0.413v-21.037l-0.013-0.29l-3.226-10.218
		l-6.827-13.053c-8.464-7.887-22.728-18.679-23.338-19.138l-0.834-0.626l-0.93-0.484c-33.892-17.413-67.583-44.61-83.304-58.024
		c0.833-4.748,4.854-32.203-9.736-50.766c-3.892-4.947-8.771-8.784-14.475-11.438l-0.455-1.11l2.058,0.433l-13.363-23.387
		c-1.338-2.345-3.841-7.805-6.148-13.055c-1.283-2.921-2.508-5.777-3.437-7.994l-0.032-0.065l-0.349-1.724
		c-0.013-0.063-0.029-0.129-0.043-0.192c-1.837-8.756-6.506-18.584-9.254-23.873c31.76-31.408,45.847-65.83,51.214-82.48
		c3.378,1.166,7.104,1.844,11.212,1.844h0.007c5.768,0,11.864-1.365,18.155-4.046c1.928,1.851,4.208,3.813,6.604,5.441
		c1.295,2.993,3.701,7.14,8.025,10.873l1.611,1.389c0.039,0.458,0.064,0.897,0.113,1.356l0.164,1.634l0.591,1.53
		c3.598,9.308,14.907,25.047,34.454,25.047h0.007c0.791,0,1.595-0.032,2.402-0.084l4.814,12.521l1.519-2.138l1.437,4.204
		c-0.552,0.886-0.998,1.705-1.379,2.455l-2.27,1.214c-2.633,1.401-9.453,3.571-13.444,4.656l-0.284,0.078
		c-14.313,4.269-22.932,11.257-25.631,20.784c-2.577,9.087,1.35,17.735,5.493,22.372l0.284,0.311
		c8.899,9.294,18.213,11.251,24.462,11.251c6.64,0,12.536-2.118,17.374-4.779c6.897,12.077,15.865,19.977,19.87,23.135
		c0.507,6.943,1.743,12.161,2.002,13.195l0.151,0.555c9.821,32.636,23.652,39.482,33.53,39.482c0.931,0,1.771-0.064,2.49-0.161
		c6.662-0.388,11.609-2.164,15.288-4.438c3.307,1.666,6.865,2.57,10.453,2.57c1.94,0,3.517-0.258,4.602-0.517
		c7.156-1.347,12.044-4.23,15.374-7.333C932.235,767.063,933.371,765.702,934.275,764.4z M899.92,659.679
		c18.191,34.373,2.422,42.453,2.422,42.453c-15.361,2.021-29.516-23.045-29.516-23.045c-16.173-27.494-8.09-44.48-8.09-44.48
		C882.94,623.287,899.92,659.679,899.92,659.679z M894.799,704.561l-5.525,3.507l-5.532-9.979L894.799,704.561z M834.213,640.471
		l-3.035-8.891c7.889-19.214,31.137-16.935,31.137-16.935l7.68,12.685C855.036,624.908,834.213,640.471,834.213,640.471z
		 M860.693,612.372c-22.438-0.808-30.727,14.958-30.727,14.958c-3.033-4.243-5.458-8.893-5.458-8.893
		c8.894-18.802,28.102-16.38,28.102-16.38L860.693,612.372z M840.268,370.138c4.633,20.497-5.88,40.338-23.481,44.315
		c-7.012,1.584-16.451-13.748-21.082-34.244c-4.633-20.497-2.704-38.397,4.308-39.982
		C817.613,336.25,835.636,349.642,840.268,370.138z M795.308,335.678c-5.988,5.361-7.016,23.728-2.182,45.114
		c4.767,21.097,13.71,37.024,21.422,39.61c-7.044,24.883-24.94,44.405-49.13,49.872c-14.958,3.38-35.094-29.329-44.976-73.056
		c-9.882-43.727-5.768-81.915,9.19-85.295C753.764,306.469,778.254,316.336,795.308,335.678z M723.218,480.557l-25.066-6.471
		c5.658-31.941-12.536-113.621-12.536-113.621c7.279-3.636,20.622-4.447,20.622-4.447c1.063,1.383,2.06,3.132,2.995,5.176
		c0.804,11.283,2.671,23.821,5.709,37.267c1.541,6.819,3.271,13.287,5.147,19.389C722.975,449.432,723.218,480.557,723.218,480.557z
		 M273.457,484.169c2.013-1.734,15.343-12.986,21.567-12.241c0,0,2.426,14.29,5.93,20.219h-5.93c0,0,18.143,20.369,58.041,38.074
		c-5.182,0.006-10.444-0.529-15.694-1.641c-8.341-2.244-16.786-4.495-24.94-7.828C291.517,512.203,278.646,498.276,273.457,484.169z
		 M285.643,461.73c-0.312,0.125-0.624,0.264-0.936,0.398c-5.218-5.454-9.639-11.705-13.175-18.564
		c1.393-7.538,6.273-12.642,15.011-15.684C284.847,440.014,284.842,451.602,285.643,461.73z M303.918,493.901
		c0,0-11.033-32.593-4.686-68.746c0.364-0.043,0.709-0.096,1.081-0.136c19.447-2.089,38.923-3.271,58.112-3.058
		c13.543,0.152,27.355,2.047,40.24,5.732c18.946,5.425,25.247,16.359,21.553,34.809c-1.944,9.717-4.625,19.467-8.539,28.699
		c-8.893,22.795-28.173,35.781-50.006,38.488C357.289,527.869,322.824,513.188,303.918,493.901z M304.457,405.927
		c5.584-0.86,11.159-1.589,16.728-2.214c8.633,3.674,21.445,8.324,38.308,12.317c-19.852-0.131-39.375,1.124-59.021,3.013
		c1.001-4.353,2.271-8.732,3.862-13.091C304.375,405.945,304.416,405.934,304.457,405.927z M429.829,425.701
		c-2.034-0.392-4.057-0.811-6.076-1.239c17.041,0.639,35.898,0.191,56.53-1.857C464.193,427.126,446.917,428.993,429.829,425.701z
		 M422.421,486.002c2.823-8.164,4.428-16.638,6.543-24.979c2.034-7.999,7.974-12.591,16.547-12.756
		c8.583-0.165,14.938,4.085,17.335,12.094c1.443,4.84,2.199,9.92,3.326,14.8c8.852,38.229,37.422,60.632,71.974,72.366
		c-13.34,2.182-27.682,3.899-43.109,4.999c0,0-63.363,0.607-88.436-8.286c0,0-11.318-0.009-37.814-11.406
		C392.863,528.196,413.71,512.304,422.421,486.002z M480.992,490.048c-4.034-10.146-6.775-20.781-8.058-31.257
		c-1.977-16.188,4.075-25.948,20.499-30.346c15.802-4.233,32.549-5.348,48.744-8.141c2.822-0.484,5.839-0.161,8.765-0.219
		c0.006-0.465,0.006-0.94,0.013-1.402c15.22,1.699,30.598,2.161,45.879,6.162c15.698,4.117,23.639,16.508,25.186,38.013
		c1.522,21.169,2.033,42.135,0.541,60.575c-19.979,8.73-44.861,16.854-75.369,22.519
		C518.789,536.548,492.564,520.628,480.992,490.048z M622.179,527.613c-3.801,34.711-26.888,30.836-57.114,23.434
		c-3.13-0.767-6.265-1.592-9.389-2.483C575.143,544.486,598.65,537.969,622.179,527.613z M633.823,495.144
		c0.119-15.426,1.343-30.301,13.072-34.214c-1.602-14.116-3.136-27.656-4.841-42.66c-24.537-3.036-48.553-5.29-72.146-6.246
		c-8.632-0.348-17.327-0.386-26.019-0.053c40.046-9.298,84.927-24.441,134.45-47.864c0,0,19.404,72.779,13.744,111.6
		c0,0-16.623,22.22-59.225,42.974C633.523,511.3,633.757,503.354,633.823,495.144z M718.519,309.134
		c-6.71,7.583-10.153,22.883-9.702,43.264c-4.506-2.487-12.629-2.974-27.241,4.431c0,0-208.963,102.796-347.611,45.651
		c7.917-0.637,15.818-1.052,23.699-1.219c16.848-0.358,33.602,0.895,50.475,1.799c-21.569-5.942-42.614-11.348-63.967-12.991
		c-9.767-0.748-20.236,0.2-30.535,2.553c-6.128-3.459-12.075-7.289-17.805-11.534c0,0,35.045-142.33,180.067-158.502
		c0,0,8.754-0.787,19.871-1.708c1.387,7.001,2.354,14.086,2.953,21.246c0.904,10.783,1.014,21.559-0.594,32.3
		c-0.158,1.034-0.343,2.067-0.521,3.126c1.282,0.297,2.493,0.575,3.791,0.875c0.13-0.417,0.255-0.778,0.358-1.15
		c1.457-5.267,3.469-10.331,5.748-15.291c5.1-11.093,11.371-21.5,18.578-31.344c3.191-4.359,6.559-8.554,10.118-12.571
		c2.051-0.066,3.618-0.074,4.523-0.005C540.725,218.064,657.895,222.287,718.519,309.134z M498.57,204.831
		c-0.555-2.138-1.288-4.27-1.94-6.469c-0.185-0.581-0.362-1.166-0.546-1.75l-0.601-1.608c-0.4-1.079-0.804-2.16-1.214-3.262
		c-0.75-2.192-1.838-4.424-2.81-6.681l-0.756-1.702l-0.672-1.611c-0.465-1.133-0.93-2.277-1.431-3.417
		c-0.471-1.134-0.804-2.229-1.224-3.358c-0.391-1.13-0.827-2.248-1.108-3.446c-0.332-1.182-0.668-2.371-1.004-3.565
		c-0.31-1.198-0.484-2.432-0.739-3.665l-0.362-1.857l-0.041-0.229c-0.02-0.109-0.01,0.013-0.014-0.045l-0.016-0.123l-0.059-0.491
		l-0.119-0.982c-0.207-1.362-0.197-2.496-0.277-3.733c-0.017-0.61,0.051-1.227,0.067-1.85c0.022-0.62,0.036-1.25,0.168-1.848
		l0.297-1.84l0.02-0.117c-0.042,0.117,0.007-0.035,0.01-0.042l0.064-0.249l0.132-0.485l0.275-0.981
		c0.375-1.301,0.691-2.667,1.201-3.833l0.701-1.831l0.352-0.917l0.445-0.897l0.885-1.799c0.294-0.607,0.595-1.211,0.976-1.764
		c0.753-1.117,1.408-2.312,2.241-3.384c0.859-1.046,1.646-2.174,2.574-3.178c0.981-0.956,1.921-1.967,2.936-2.897
		c1.071-0.872,2.141-1.75,3.209-2.632c1.15-0.785,2.313-1.547,3.481-2.312c1.169-0.646,2.474-1.415,3.714-1.999
		c1.266-0.559,2.496-1.188,3.836-1.618c2.616-1.007,5.374-1.563,8.125-2.038c2.784-0.262,5.584-0.429,8.364-0.129l1.044,0.087
		l0.478,0.039l0.536,0.081l2.147,0.313c1.396,0.275,2.709,0.498,4.065,0.885c5.389,1.414,10.459,3.797,14.729,7.14
		c2.168,1.625,4.143,3.481,5.904,5.525c1.795,2.006,3.402,4.172,4.799,6.478c0.729,1.127,1.352,2.329,2.002,3.504l0.121,0.22
		c-0.002-0.003,0.01,0.019,0.023,0.036l0.039,0.094l0.229,0.481l0.453,0.962c0.283,0.633,0.639,1.308,0.82,1.876
		c0.93,2.271,1.643,4.867,2.15,7.379c0.426,2.558,0.732,5.119,0.727,7.702c0.061,1.282-0.043,2.577-0.084,3.856l-0.006,0.242
		l-0.004,0.084c0,0.019,0,0.029,0,0.026l-0.059,0.507l-0.109,1.021l-0.109,1.014l-0.168,0.849c-0.127,0.568-0.188,1.111-0.355,1.692
		l-0.475,1.75c-0.406,1.13-0.75,2.283-1.26,3.372c-0.918,2.219-2.119,4.314-3.498,6.294l-0.506,0.74l-0.129,0.187l-0.064,0.09
		c0.002-0.003-0.018,0.029-0.037,0.049l-0.258,0.333l-1.201,1.524c-0.797,0.988-1.588,2.096-2.383,2.929
		c-0.781,0.891-1.563,1.783-2.336,2.664c-0.816,0.869-1.688,1.706-2.521,2.548c-0.42,0.423-0.832,0.853-1.262,1.259l-1.328,1.172
		c-0.91,0.811-1.818,1.611-2.719,2.406c-1.803,1.608-3.578,3.197-5.322,4.757c-1.711,1.689-3.377,3.423-5.018,5.086
		c-1.647,1.664-3.049,3.411-4.537,5.057c-1.492,1.644-2.797,3.368-4.099,5.031c-0.652,0.83-1.292,1.654-1.925,2.467l-0.475,0.607
		c-0.242,0.303-0.319,0.439-0.484,0.662c-0.291,0.41-0.578,0.814-0.865,1.221c-2.286,3.233-4.47,6.262-6.336,9.375
		c-0.949,1.518-1.867,2.987-2.755,4.411c-0.882,1.428-1.595,2.864-2.351,4.211c-1.473,2.713-2.887,5.157-3.904,7.512
		c-1.085,2.309-2.047,4.376-2.887,6.168c-0.756,1.825-1.398,3.381-1.916,4.641c-0.277,0.701-0.516,1.305-0.723,1.821
		c0.042-0.552,0.097-1.208,0.161-1.96c0.094-1.36,0.214-3.029,0.353-5.002c0.039-1.979,0.077-4.253,0.129-6.801
		c-0.068-5.115-0.213-11.357-1.092-18.439C502.275,221.333,500.886,213.35,498.57,204.831z M358.217,260.561
		c-9.818,8.464-18.996,17.928-27.48,28.356c-5.934,1.391-11.725,3.415-17.311,6.047c1.75-3.198,3.498-6.397,5.244-9.597
		c4.56-8.358,9.158-16.699,13.518-25.163c1.417-2.758,2.997-3.5,6.084-3.006C344.932,258.259,351.578,259.393,358.217,260.561z
		 M250.209,399.303c-12.089-11.023-16.289-30.621-9.134-49.029c7.128-18.339,23.363-29.938,39.66-29.992
		c-8.738,10.197-16.146,22.576-21.736,36.958C253.399,371.648,250.559,385.828,250.209,399.303z M330.082,183.51l9.92,31.544
		c-6.171,1.941-12.042,4.034-17.455,6.22l-12.381-30.666C316.383,188.099,323.083,185.712,330.082,183.51z M268.844,361.067
		c9.966-25.64,28.277-45.11,49.5-55.521c-25.37,37.25-33.927,71.161-34.292,72.645l-1.932,7.838l6.491,4.805
		c2.226,1.647,4.495,3.242,6.801,4.792c-0.527,1.221-1.017,2.445-1.496,3.67c-9.294,4.415-17.521,10.422-23.247,17.631
		c5.048-1.457,10.086-2.994,15.084-4.641c1.453-0.479,2.908-1.029,4.364-1.6c-0.905,3.232-1.67,6.453-2.302,9.651
		c-7.888,0.852-15.811,1.777-23.797,2.733C259.458,403.798,260.68,382.071,268.844,361.067z M275.418,467.329
		c-1.667,1.123-3.261,2.286-4.746,3.431c-0.303-3.189-0.447-6.3-0.475-9.356C271.844,463.453,273.586,465.429,275.418,467.329z
		 M271.107,492.771c13.45,19.04,35.662,32.048,59.665,38.313c10.298,2.888,20.809,3.784,30.924,2.78
		c34.336,13.773,82.738,24.822,147.09,21.362c0,0,15.396-0.719,38.163-4.938c28.311,9.218,55.819,21.097,72.9,5.165
		c7.417-6.914,10.933-18.553,12.581-32.604c22.958-11.263,45.365-26.398,63.431-46.74c0,0,5.665,4.45,25.605,6.336
		c0,0-52.561,118.607-270.369,111.057c0,0-139.094-6.465-182.225-97.042l1.635-4.567
		C270.71,492.186,270.898,492.475,271.107,492.771z M263.887,623.494c19.615,1.814,19.615,16.369,19.615,16.369l-5.664,7.079
		c-1.415-11.929-19.002-19.205-19.002-19.205L263.887,623.494z M274.401,654.628c-0.041,0.718-0.105,1.397-0.171,2.073
		c-0.072-0.098-0.142-0.192-0.214-0.291c-1.365-2.128-2.887-4.273-4.359-6.351c-1.914-2.699-3.892-5.489-5.464-8.158l-0.914-1.552
		l-1.618-0.792c-1.176-0.575-2.809-1.871-4.388-3.125c-2.179-1.729-4.53-3.589-7.137-4.841
		C274.724,629.843,274.401,654.628,274.401,654.628z M138.471,524.742c-0.612-4.607-0.207-9.218,0.79-13.716
		c3.245-14.627,11.277-26.004,24.449-33.16c16.163-8.782,32.564-8.561,48.771,0.3c0.839,0.458,1.748,0.793,2.623,1.187
		c2.677,2.181,5.356,4.36,8.034,6.542c1.999,2.602,4.105,5.127,5.969,7.823c3.176,4.593,5.333,9.672,6.788,15.355
		C201.342,501.917,169.401,509.746,138.471,524.742z M155.075,551.372c-0.275-0.222-0.542-0.449-0.812-0.676
		c-0.207-0.173-0.416-0.344-0.617-0.521c-0.212-0.182-0.417-0.371-0.624-0.557c-0.196-0.179-0.398-0.357-0.593-0.539
		c-0.203-0.191-0.4-0.386-0.601-0.58c-0.19-0.185-0.381-0.369-0.568-0.557c-0.196-0.199-0.389-0.401-0.58-0.603
		c-0.182-0.192-0.366-0.38-0.545-0.573c-0.188-0.207-0.374-0.418-0.559-0.628c-0.173-0.196-0.351-0.388-0.52-0.588
		c-0.182-0.214-0.359-0.435-0.54-0.651c-0.165-0.2-0.332-0.399-0.496-0.604c-0.175-0.223-0.346-0.451-0.519-0.677
		c-0.157-0.206-0.317-0.41-0.471-0.619c-0.173-0.229-0.339-0.469-0.504-0.703c-0.149-0.211-0.301-0.416-0.447-0.63
		c-0.164-0.242-0.326-0.49-0.488-0.735c-0.14-0.213-0.282-0.422-0.418-0.64c-0.162-0.251-0.315-0.509-0.47-0.764
		c-0.135-0.216-0.269-0.431-0.398-0.649c-0.156-0.261-0.304-0.529-0.455-0.797c-0.123-0.219-0.249-0.433-0.372-0.655
		c-0.153-0.275-0.297-0.561-0.447-0.84c-0.112-0.219-0.229-0.432-0.339-0.649c-0.149-0.295-0.294-0.596-0.438-0.896
		c-0.103-0.211-0.209-0.421-0.312-0.635c-0.149-0.32-0.293-0.646-0.44-0.972c-0.088-0.198-0.181-0.395-0.27-0.597
		c-0.16-0.367-0.311-0.74-0.464-1.111c-0.293-0.705-0.577-1.418-0.846-2.147c5.112-2.229,10.011-4.647,15.105-6.536
		c12.792-4.741,25.767-8.958,39.221-11.425c13.389-2.455,26.679-2.245,39.727,2.188c1.524,0.518,2.133,1.129,2.134,2.657
		c-0.001,0.04,0,0.076-0.002,0.114c-0.002,0.129-0.007,0.261-0.018,0.403c-0.625,8.497-3.438,16.185-7.899,23.352
		c-13.609-4.869-27.224-3.032-40.701-0.352c-7.599,1.51-15.031,3.99-22.41,6.422C161.712,547.515,158.652,549.559,155.075,551.372z
		 M180.311,605.879c-6.069-15.973-14.422-31.196-19.881-47.397c4.823-3.126,9.998-5.808,15.381-7.978
		c4.361-1.357,8.752-2.592,13.087-3.453c11.711-2.331,24.144-4.247,36.206-0.156c0.026,0.02,0.049,0.041,0.077,0.062
		c0.034,0.028,0.07,0.058,0.103,0.086c0.047,0.039,0.093,0.08,0.136,0.12c0.038,0.035,0.074,0.071,0.11,0.107
		c0.04,0.041,0.079,0.082,0.117,0.122c0.034,0.037,0.065,0.077,0.098,0.113c0.034,0.044,0.066,0.087,0.097,0.128
		c0.029,0.041,0.057,0.079,0.084,0.119c0.029,0.046,0.056,0.091,0.083,0.137c0.022,0.04,0.046,0.08,0.067,0.123
		c0.024,0.047,0.043,0.096,0.065,0.145c0.017,0.042,0.034,0.082,0.05,0.125c0.019,0.052,0.034,0.106,0.05,0.161
		c0.01,0.039,0.023,0.079,0.031,0.119c0.015,0.063,0.023,0.126,0.03,0.188c0.005,0.035,0.014,0.069,0.017,0.105
		c0.009,0.1,0.012,0.202,0.008,0.307c-0.683,19.605-3.182,40.29-0.637,59.794c0.114,0.876,0.242,1.75,0.36,2.626
		c-3.47-1.101-7.327-1.685-11.559-1.685c-10.271,0-21.505,3.234-30.854,6.845C182.714,613.013,181.637,609.368,180.311,605.879z
		 M168.866,632.729c0.898-1.78,2.174-3.198,3.872-4.072c18.717-9.333,56.997-23.795,65.249,3.585l0.704,4.124
		c0.065,1.46,0.014,2.833-0.142,4.122c-0.669,5.989-3.479,9.98-7.419,12.674c-0.985,0.674-2.041,1.265-3.146,1.781
		c-13.561,3.51-28.021,2.659-41.504,5.825c-1.628,0.06-3.138,0.089-4.573,0.128c-1.426,0.022-2.786,0.056-4.062,0.109
		c-1.701-0.283-3.261-1.229-4.631-2.631C167.732,652.767,165.274,639.85,168.866,632.729z M176.027,673.634
		c0.274-1.098,0.669-2.08,1.211-2.924c3.342-2.852,6.964-4.725,10.771-5.986c1.27-0.421,2.554-0.777,3.826-1.087
		c12.379-2.631,25.139-1.78,36.861-4.754c1.281-0.175,2.539-0.337,3.795-0.491c1.251-0.155,2.5-0.302,3.746-0.438
		c1.112,0.516,2.164,1.14,3.146,1.872c2.94,2.203,5.26,5.385,6.71,9.799l0.676,3.897c1.68,29.165-42.554,25.762-62.119,22.359
		C178.137,694.579,174.118,681.31,176.027,673.634z M189.028,731.915c-4.985-3.909-7.405-14.975-4.697-21.801
		c0.325-0.818,0.724-1.577,1.2-2.254c5.596-7.187,13.959-7,22.597-6.801c1.439,0.033,2.884,0.066,4.319,0.11
		c12.184,0.667,23.242-4.438,35.146-6.131c1.279-0.008,2.184,0.471,2.858,1.253c2.017,2.347,1.952,7.429,3.603,10.527l0.674,3.861
		c0.186,2.382,0.048,4.542-0.371,6.499c-0.698,3.262-2.18,5.958-4.256,8.18c-1.038,1.109-2.225,2.103-3.537,3.042
		c-15.128,13.415-36.394,10.013-54.258,4.909C191.125,733.192,190.025,732.696,189.028,731.915z M246.488,740.193
		c1.831,11.688,2.817,13.039-7.887,19.336c-4.952,2.912-6.189,1.437-11.901,1.4c-10.416-0.069-12.054-0.049-14.485-0.86
		c-0.111-0.038-0.219-0.09-0.329-0.151c-0.036-0.019-0.067-0.042-0.101-0.062c-0.078-0.048-0.155-0.101-0.229-0.159
		c-0.042-0.031-0.083-0.066-0.126-0.102c-0.043-0.037-0.083-0.075-0.128-0.116c-0.046-0.045-0.094-0.091-0.141-0.142
		c-0.042-0.045-0.085-0.091-0.126-0.138c-0.047-0.054-0.093-0.108-0.14-0.165c-0.04-0.054-0.084-0.105-0.125-0.158
		c-0.045-0.064-0.09-0.125-0.135-0.188c-0.041-0.06-0.083-0.12-0.125-0.184c-0.042-0.065-0.086-0.136-0.129-0.205
		c-0.042-0.068-0.083-0.135-0.125-0.205c-0.042-0.073-0.083-0.148-0.126-0.223c-0.043-0.078-0.085-0.151-0.126-0.23
		c-0.039-0.077-0.079-0.158-0.12-0.238c-0.043-0.083-0.085-0.165-0.126-0.253c-0.04-0.081-0.078-0.167-0.117-0.251
		c-0.043-0.091-0.084-0.184-0.127-0.279c-0.037-0.083-0.072-0.17-0.108-0.254c-0.042-0.104-0.086-0.204-0.132-0.313
		c-0.033-0.08-0.064-0.163-0.098-0.247c-0.044-0.116-0.091-0.234-0.137-0.354c-0.028-0.072-0.055-0.148-0.082-0.224
		c-0.051-0.137-0.102-0.271-0.148-0.411c-0.019-0.051-0.037-0.106-0.058-0.156c-0.348-1.014-0.687-2.137-1.009-3.346
		c-0.002-0.015-0.006-0.029-0.012-0.045c-0.059-0.226-0.119-0.453-0.176-0.686c-0.009-0.036-0.02-0.071-0.029-0.106
		c-0.055-0.222-0.112-0.447-0.165-0.675c-0.014-0.046-0.026-0.093-0.037-0.143c-0.055-0.223-0.108-0.449-0.16-0.678
		c-0.011-0.052-0.025-0.104-0.037-0.156c-0.053-0.224-0.104-0.453-0.157-0.682c-0.012-0.06-0.025-0.116-0.036-0.176
		c-0.053-0.229-0.103-0.461-0.157-0.695c-0.01-0.059-0.021-0.114-0.034-0.171c-0.052-0.234-0.103-0.473-0.149-0.715
		c-0.015-0.056-0.025-0.116-0.037-0.174c-0.052-0.245-0.099-0.488-0.149-0.736c-0.01-0.055-0.022-0.105-0.032-0.16
		c-0.051-0.253-0.1-0.505-0.151-0.762c-0.007-0.05-0.02-0.098-0.028-0.149c-0.05-0.259-0.1-0.517-0.149-0.779
		c-0.007-0.047-0.019-0.097-0.027-0.145c-0.021-0.117-0.043-0.235-0.065-0.354c4.776,0.794,9.168,1.183,13.336,1.183
		c10.318,0,19.269-2.461,26.698-7.317C246.152,738.062,246.321,739.127,246.488,740.193z M271.507,708.432
		c-3.851,0.679-7.338,0.817-10.504,0.531l-0.725-4.284l-0.488-0.917c-0.319-0.599-0.648-2.072-0.912-3.256
		c-0.726-3.256-2.355-10.464-9.107-11.755c2.657-4.438,3.829-9.663,3.487-15.603l-0.842-5.102l-0.148-0.451
		c-1.721-5.237-5.106-11.099-11.736-14.782c3.375-4.606,4.942-10.219,4.652-16.737l-0.844-5.241
		c4.763,1.798,10.304,6.56,14.688,8.872l2.455,3.288C265,647,267,653,270.616,656.71c0.899,1.216,1.741,2.325,2.466,3.263
		c1.449,1.876,2.433,3.068,2.433,3.068C301.946,697.935,271.507,708.432,271.507,708.432z M284.916,636.428
		c-3.442-12.333-17.387-14.962-17.387-14.962l7.275-6.265c14.354,4.043,16.576,12.536,16.576,12.536L284.916,636.428z
		 M292.395,625.51c-5.053-9.501-14.557-11.322-14.557-11.322c8.086-9.501,14.557-4.65,14.557-4.65
		C298.447,613.535,292.395,625.51,292.395,625.51z M295.561,627.466c0,0,14.286-22.102-13.209-22.102c0,0-5.393-19.683,1.621-28.844
		c0,0,22.373,38.552,33.691,50.945C317.664,627.466,303.11,632.862,295.561,627.466z M371.311,738.255c0,0-24.53,13.751-23.99,42.86
		c0,0-13.48-1.88-24.531,8.086C322.789,789.201,317.125,733.404,371.311,738.255z M199.193,1016.307c0,0-12.129-2.828-7.683-26.286
		c0,0,6.046-45.379,39.469-72.376c0,0,83.853,3.236,105.69,11.729c0,0-34.773,17.794-57.818,106.749
		C278.852,1036.122,278.044,1041.78,199.193,1016.307z M348.395,1009.028l-64.693,27.094c0,0,16.98-78.854,57.418-104.327
		C341.119,931.795,351.627,952.825,348.395,1009.028z M369.014,1009.028l-16.172-2.422c3.236-69.547-8.894-78.854-8.894-78.854
		c-30.323-11.723-112.813-14.551-112.813-14.551c-1.208-16.986,4.854-21.029,4.854-21.029
		c36.795,0.807,125.347,14.558,125.347,14.558C375.086,937.46,369.014,1009.028,369.014,1009.028z M399.341,994.063l-26.283,12.536
		c3.64-52.153-6.065-100.678-6.065-100.678c-5.254-7.272-126.15-17.387-126.15-17.387c38.816-30.323,65.098-69.547,65.098-69.547
		c24.665-40.438,47.038-32.693,47.038-32.693c39.76,2.073,40.435,39.165,40.435,39.165
		C404.873,867.105,399.341,994.063,399.341,994.063z M398.263,816.967c-9.97-37.731-48.518-35.852-48.518-35.852
		c1.347-31.545,26.684-41.781,26.684-41.781c19.408,3.771,26.688,15.63,26.688,15.63
		C421.717,782.729,398.263,816.967,398.263,816.967z M406.623,752.006c0,0-13.479-21.023-53.646-19.415l1.618-4.043l3.229-1.072
		l6.211-6.472c0,0,28.838-4.851,46.631,15.501L406.623,752.006z M410.932,732.591c-35.581-26.409-53.101-10.509-53.101-10.509
		c-0.271-3.771,7.276-20.486,7.276-20.486c33.158-5.658,50.681,15.739,50.681,15.739L410.932,732.591z M416.596,714.261
		c0,0-18.059-20.216-49.604-16.572l7.015-16.58c0,0,24.259,16.45,45.821,25.608L416.596,714.261z M626.044,697.817
		c0,0,15.364-7.272,41.513-29.109c0,0,7.812,13.751,9.973,24.259c0,0-29.109-4.308-48.247,16.715
		C629.282,709.682,626.719,703.973,626.044,697.817z M645.72,765.75c0,0,13.208-21.837,41.514-20.48
		c0,0,14.558,11.586,12.129,44.203c0,0-28.573-2.429-45.821,29.651C653.541,819.124,631.701,793.244,645.72,765.75z
		 M702.598,1017.114c0,0,6.476-66.311,14.555-88.548c0,0,52.164,57.011,57.015,125.344
		C774.167,1053.91,724.125,1024.426,702.598,1017.114z M865.951,1029.65c-7.677,8.087-51.347,17.387-51.347,17.387
		c-10.922,6.879-35.587,9.295-35.587,9.295c-4.447-71.162-58.219-132.616-58.219-132.616c21.83-19.008,97.438-13.344,97.438-13.344
		C866.357,920.48,865.951,1029.65,865.951,1029.65z M841.692,901.479v16.166c0,0-4.854-18.459-63.351-12.529
		c0,0-60.107-0.808-65.771,23.987c0,0-9.165,42.052-12.669,89.769c0,0-4.847,2.15-14.286,1.88c0,0-8.083-120.08,29.52-125.337
		c0,0,44.878-11.729,100.681-7.279C815.815,888.135,840.481,888.942,841.692,901.479z M813.109,868.455
		c0,0,14.28,10.779,22.373,18.33c0,0-99.187-11.858-135.846,12.943c0,0-21.565,18.859-18.336,119.143
		c0,0-39.579-37.201-40.273-48.523c0,0-9.594-77.355,18.308-151.217c0,0,21.427-41.252,58.628-18.602
		C717.963,800.529,764.856,843.654,813.109,868.455z M723.354,797.83c-9.701-8.894-21.563-8.357-21.563-8.357
		c2.965-27.76-9.168-44.203-9.168-44.203C732.789,747.42,723.354,797.83,723.354,797.83z M642.22,762.249
		c0,0-6.682-18.078-4.854-24.536c0,0,21.023-24.253,53.914-13.474c0,0,4.851,8.629,8.083,16.444
		C699.362,740.684,659.471,732.055,642.22,762.249z M688.851,719.383c0,0-32.348-6.736-53.639,15.643c0,0-4.857-18.329-5.394-21.837
		c0,0,17.255-22.915,48.792-16.179C678.61,697.01,685.615,713.725,688.851,719.383z M605.824,700.788
		c0,0-132.619,46.903-224.813-21.022c0,0-92.725-59.307-112.139-168.749c0,0,60.11,104.592,250.153,85.184
		c0,0,147.181-5.665,206.216-112.41c0,0,1.492-22.266,0.44-49.919c9.131,23.065,20.426,38.494,31.119,43.302
		c-0.909,8.642-2.233,17.595-4.065,26.836c0,0-30.459-1.079-41.241,33.963c0,0,0.003,22.641,10.782,33.42
		C722.277,571.392,702.866,661.436,605.824,700.788z M716.346,548.083c0-35.588,35.674-39.224,35.674-39.224
		c21.928,0.807,23.765,27.494,23.765,27.494c-40.03-3.232-17.383,33.156-17.383,33.156
		C724.441,586.086,716.346,548.083,716.346,548.083z M756.78,545.454c10.915-10.312,19.001-1.415,19.001-1.415
		c-13.744,4.851-14.555,19.405-14.555,19.405C752.13,554.548,756.78,545.454,756.78,545.454z M775.781,578.206
		c-5.047-2.629-11.115-9.907-11.115-9.907c-2.829-18.602,18.798-24.059,18.798-24.059l13.754,5.66
		C772.346,561.02,775.781,578.206,775.781,578.206z M783.261,588.921c-4.444-3.843-5.454-8.293-5.454-8.293
		c0.406-22.444,18.904-27.288,18.904-27.288c8.783-1.837,13.443,2.019,13.443,2.019C786.906,565.47,783.261,588.921,783.261,588.921
		z M818.237,616.209c-20.819,4.856-29.109-16.573-29.109-16.573c-4.04-40.438,33.563-39.627,33.563-39.627
		c29.109,2.629,24.259,28.912,24.259,28.912C807.93,580.628,818.237,616.209,818.237,616.209z M826.33,593.843
		c15.969-9.017,24.052,4.779,24.052,4.779c-16.376,1.414-27.694,17.387-27.694,17.387
		C816.623,600.243,826.33,593.843,826.33,593.843z M793.985,687.044c0,0-13.482-15.101,14.551-23.458c0,0,10.919-2.964,15.97-5.664
		c0,0,19.347,1.35,6.675,25.338C831.181,683.26,812.037,705.903,793.985,687.044z M855.84,702.248v14.318
		c0,0-15.769-10.792-22.641-30.2c0,0,14.965-15.365-2.021-33.159c0,0,3.643-13.26,29.519-20.784c0,0-10.918,26.849,19.81,62.437
		C880.506,694.859,866.361,691.042,855.84,702.248z M883.744,766.021c0,0-12.668,3.772-23.051-30.73c0,0-4.176-16.708,0-29.651
		c0,0,6.823-11.69,18.466-7.55c0,0,7.55,5.128,11.861,31.809c0,0,0.271,6.472,7.818,15.907
		C898.839,745.805,905.307,765.214,883.744,766.021z M912.86,763.863c0,0-5.128,1.615-10.519-3.507c0,0,4.854-12.394-5.929-25.337
		c0,0-7.932-11.949-5.933-23.452c0,0,5.129-9.972,10.515-2.15c0,0,5.394,16.709,25.073,34.767
		C926.068,744.184,931.189,760.628,912.86,763.863z M916.774,728.818c0,0-9.582-11.586-11.732-20.751l-3.507-3.236l6.904-1.75
		c0,0-0.707,3.101,16.279,19.544c0,0,12.129,9.973,5.121,19.131C929.84,741.756,919.888,731.512,916.774,728.818z"/>
	<path fill="#AD8BBA" d="M536.201,218.069c-3.559,4.017-6.926,8.211-10.118,12.571c-7.207,9.843-13.479,20.251-18.578,31.344
		c-2.279,4.96-4.291,10.024-5.748,15.291c-0.104,0.372-0.229,0.733-0.358,1.15c-1.298-0.3-2.509-0.578-3.791-0.875
		c0.178-1.059,0.362-2.092,0.521-3.126c1.607-10.741,1.498-21.517,0.594-32.3c-0.598-7.159-1.566-14.245-2.953-21.246
		c-11.117,0.92-19.871,1.708-19.871,1.708c-145.022,16.173-180.067,158.502-180.067,158.502c5.729,4.245,11.677,8.075,17.805,11.534
		c10.299-2.353,20.769-3.301,30.535-2.553c21.353,1.644,42.397,7.049,63.967,12.991c-16.873-0.904-33.627-2.157-50.475-1.799
		c-7.881,0.167-15.782,0.582-23.699,1.219c138.648,57.145,347.611-45.651,347.611-45.651c14.612-7.405,22.735-6.917,27.241-4.431
		c-0.451-20.381,2.992-35.681,9.702-43.264c-60.624-86.847-177.794-91.07-177.794-91.07
		C539.819,217.995,538.252,218.002,536.201,218.069z M533.571,348.788c15.686-14.606,32.062-28.997,50.188-45.378
		c10.631-9.604,19.411-14.816,26.864-1.486c2.213,3.956,5.329,6.465,9.928,12.255c-5.303,2.183-8.329,4.453-10.887,4.075
		c-22.473-3.323-40.247,16.796-58.78,30.711c-18.808,14.119-38.061,24.233-57.844,33.127c-0.652,0.294-1.582,0-2.377-0.026
		c-0.739-0.75-1.463-1.508-2.198-2.261c1.301-0.323,2.786-0.355,3.881-1.03C506.497,370.046,520.545,360.917,533.571,348.788z"/>
	<path fill="#AD8BBA" d="M711.495,537.972c10.782-35.042,41.241-33.963,41.241-33.963c1.832-9.241,3.156-18.194,4.065-26.836
		c-10.693-4.808-21.988-20.237-31.119-43.302c1.052,27.654-0.44,49.919-0.44,49.919C666.207,590.535,519.026,596.2,519.026,596.2
		c-190.043,19.408-250.153-85.184-250.153-85.184c19.414,109.442,112.139,168.749,112.139,168.749
		c92.193,67.926,224.813,21.022,224.813,21.022c97.042-39.353,116.453-129.396,116.453-129.396
		C711.498,560.612,711.495,537.972,711.495,537.972z"/>
	<path fill="#FFFFFF" d="M495.036,552.526c15.427-1.1,29.769-2.817,43.109-4.999c-34.551-11.734-63.122-34.138-71.974-72.366
		c-1.127-4.88-1.883-9.959-3.326-14.8c-2.396-8.009-8.752-12.259-17.335-12.094c-8.573,0.165-14.513,4.757-16.547,12.756
		c-2.115,8.341-3.72,16.815-6.543,24.979c-8.71,26.302-29.558,42.194-53.635,46.833c26.496,11.397,37.814,11.406,37.814,11.406
		C431.673,553.134,495.036,552.526,495.036,552.526z"/>
	<path fill="#FFFFFF" d="M692.084,475.707c5.66-38.82-13.744-111.6-13.744-111.6c-49.523,23.423-94.404,38.566-134.45,47.864
		c8.691-0.333,17.387-0.295,26.019,0.053c23.594,0.956,47.609,3.21,72.146,6.246c1.705,15.003,3.239,28.544,4.841,42.66
		c-11.729,3.914-12.953,18.788-13.072,34.214c-0.066,8.21-0.3,16.156-0.964,23.537C675.461,497.927,692.084,475.707,692.084,475.707
		z"/>
	<path fill="#FFFFFF" d="M423.753,424.461c2.019,0.428,4.042,0.847,6.076,1.239c17.087,3.292,34.364,1.426,50.454-3.096
		C459.651,424.653,440.794,425.1,423.753,424.461z"/>
	<path fill="#FFFFFF" d="M411.68,491.201c3.914-9.232,6.595-18.982,8.539-28.699c3.694-18.449-2.606-29.384-21.553-34.809
		c-12.885-3.685-26.697-5.581-40.24-5.732c-19.189-0.213-38.665,0.969-58.112,3.058c-0.372,0.04-0.717,0.092-1.081,0.136
		c-6.347,36.153,4.686,68.746,4.686,68.746c18.906,19.288,53.371,33.968,57.755,35.788
		C383.507,526.982,402.787,513.997,411.68,491.201z M352.842,484.193c-2.422-4.043,3.236-4.447,3.236-4.447
		c-11.322-33.963,7.278-38.813,7.278-38.813c16.979-3.243,10.512,30.724,10.512,30.724
		C372.25,487.025,352.842,484.193,352.842,484.193z"/>
	<path fill="#FFFFFF" d="M622.561,523.433c1.492-18.44,0.981-39.406-0.541-60.575c-1.547-21.504-9.487-33.896-25.186-38.013
		c-15.281-4.001-30.659-4.463-45.879-6.162c-0.007,0.462-0.007,0.937-0.013,1.402c-2.926,0.058-5.942-0.265-8.765,0.219
		c-16.195,2.793-32.942,3.908-48.744,8.141c-16.424,4.398-22.476,14.158-20.499,30.346c1.282,10.476,4.023,21.11,8.058,31.257
		c11.572,30.58,37.797,46.5,66.199,55.903C577.699,540.286,602.582,532.163,622.561,523.433z M576.037,484.4l-23.451,4.644
		c0,0-12.533-2.357-11.322-28.874c0,0,0.814-19.676,14.562-19.457c0,0,21.229,6.278,9.097,42.876L576.037,484.4z"/>
	<path fill="#FFFFFF" d="M359.493,416.03c-16.862-3.994-29.675-8.644-38.308-12.317c-5.569,0.625-11.144,1.354-16.728,2.214
		c-0.041,0.006-0.083,0.018-0.124,0.025c-1.59,4.358-2.86,8.738-3.862,13.091C320.117,417.154,339.641,415.899,359.493,416.03z"/>
	<path fill="#793A8A" d="M363.356,440.934c0,0-18.601,4.85-7.278,38.813c0,0-5.658,0.404-3.236,4.447
		c0,0,19.408,2.832,21.026-12.536C373.868,471.657,380.336,437.691,363.356,440.934z M357.699,476.107
		c-5.122-7.563-2.832-20.62-2.832-20.62c7.275-21.433,15.361-5.661,15.361-5.661C354.867,451.441,357.699,476.107,357.699,476.107z"
		/>
	<path fill="#FFFFFF" d="M354.867,455.488c0,0-2.29,13.056,2.832,20.62c0,0-2.832-24.666,12.529-26.28
		C370.229,449.827,362.143,434.055,354.867,455.488z"/>
	<path fill="#793A8A" d="M555.825,440.714c-13.747-0.22-14.562,19.457-14.562,19.457c-1.211,26.516,11.322,28.874,11.322,28.874
		l23.451-4.644l-11.115-0.811C577.055,446.992,555.825,440.714,555.825,440.714z M550.16,480.557
		c-8.764-7.237-5.454-25.473-5.454-25.473c7.279-23.658,17.584-5.461,17.584-5.461C544.706,453.06,550.16,480.557,550.16,480.557z"
		/>
	<path fill="#FFFFFF" d="M544.706,455.084c0,0-3.31,18.236,5.454,25.473c0,0-5.454-27.498,12.13-30.934
		C562.29,449.624,551.985,431.426,544.706,455.084z"/>
	<path fill="#9564A2" d="M622.179,527.613c-23.528,10.356-47.036,16.873-66.503,20.95c3.124,0.892,6.259,1.717,9.389,2.483
		C595.291,558.449,618.378,562.324,622.179,527.613z"/>
	<path fill="#9564A2" d="M451.098,593.5c217.809,7.551,270.369-111.057,270.369-111.057c-19.94-1.886-25.605-6.336-25.605-6.336
		c-18.065,20.342-40.473,35.477-63.431,46.74c-1.648,14.052-5.164,25.69-12.581,32.604c-17.081,15.932-44.59,4.053-72.9-5.165
		c-22.767,4.22-38.163,4.938-38.163,4.938c-64.352,3.46-112.754-7.589-147.09-21.362c-10.115,1.004-20.626,0.108-30.924-2.78
		c-24.003-6.265-46.215-19.273-59.665-38.313c-0.209-0.296-0.397-0.585-0.599-0.879l-1.635,4.567
		C312.004,587.035,451.098,593.5,451.098,593.5z"/>
	<path fill="#9564A2" d="M353.064,530.222c-39.898-17.705-58.041-38.074-58.041-38.074h5.93c-3.504-5.929-5.93-20.219-5.93-20.219
		c-6.224-0.746-19.554,10.506-21.567,12.241c5.189,14.107,18.06,28.034,38.973,36.583c8.154,3.333,16.6,5.583,24.94,7.828
		C342.62,529.692,347.882,530.228,353.064,530.222z"/>
	<path fill="#9564A2" d="M709.232,361.194c-0.936-2.044-1.932-3.793-2.995-5.176c0,0-13.343,0.811-20.622,4.447
		c0,0,18.194,81.68,12.536,113.621l25.066,6.471c0,0-0.243-31.125-3.129-62.707c-1.876-6.102-3.606-12.57-5.147-19.389
		C711.903,385.015,710.036,372.477,709.232,361.194z"/>
	<path fill="#AD8BBA" d="M775.784,536.354c0,0-1.837-26.687-23.765-27.494c0,0-35.674,3.636-35.674,39.224
		c0,0,8.096,38.003,42.056,21.427C758.401,569.51,735.754,533.121,775.784,536.354z"/>
	<path fill="#EBE0EB" d="M775.781,544.039c0,0-8.086-8.896-19.001,1.415c0,0-4.65,9.094,4.446,17.99
		C761.227,563.444,762.037,548.89,775.781,544.039z"/>
	<path fill="#EBE0EB" d="M797.218,549.9l-13.754-5.66c0,0-21.627,5.457-18.798,24.059c0,0,6.068,7.278,11.115,9.907
		C775.781,578.206,772.346,561.02,797.218,549.9z"/>
	<path fill="#EBE0EB" d="M810.154,555.358c0,0-4.66-3.855-13.443-2.019c0,0-18.498,4.844-18.904,27.288c0,0,1.01,4.45,5.454,8.293
		C783.261,588.921,786.906,565.47,810.154,555.358z"/>
	<path fill="#AD8BBA" d="M846.949,588.921c0,0,4.851-26.283-24.259-28.912c0,0-37.603-0.811-33.563,39.627
		c0,0,8.29,21.43,29.109,16.573C818.237,616.209,807.93,580.628,846.949,588.921z"/>
	<path fill="#EBE0EB" d="M850.382,598.622c0,0-8.083-13.796-24.052-4.779c0,0-9.707,6.4-3.643,22.166
		C822.688,616.009,834.006,600.036,850.382,598.622z"/>
	<path fill="#EBE0EB" d="M824.509,618.438c0,0,2.425,4.649,5.458,8.893c0,0,8.289-15.766,30.727-14.958l-8.083-10.314
		C852.61,602.058,833.402,599.636,824.509,618.438z"/>
	<path fill="#EBE0EB" d="M862.314,614.646c0,0-23.248-2.279-31.137,16.935l3.035,8.891c0,0,20.823-15.563,35.781-13.141
		L862.314,614.646z"/>
	<path fill="#AD8BBA" d="M872.826,679.087c0,0,14.154,25.066,29.516,23.045c0,0,15.77-8.08-2.422-42.453
		c0,0-16.979-36.392-35.184-25.072C864.736,634.606,856.653,651.593,872.826,679.087z"/>
	<path fill="#AD8BBA" d="M880.506,694.859c-30.728-35.588-19.81-62.437-19.81-62.437c-25.876,7.524-29.519,20.784-29.519,20.784
		c16.986,17.794,2.021,33.159,2.021,33.159c6.872,19.408,22.641,30.2,22.641,30.2v-14.318
		C866.361,691.042,880.506,694.859,880.506,694.859z"/>
	<polygon fill="#EBE0EB" points="889.273,708.067 894.799,704.561 883.741,698.089 	"/>
	<path fill="#EBE0EB" d="M824.506,657.922c-5.051,2.7-15.97,5.664-15.97,5.664c-28.033,8.357-14.551,23.458-14.551,23.458
		c18.052,18.859,37.195-3.784,37.195-3.784C843.853,659.271,824.506,657.922,824.506,657.922z"/>
	<path fill="#EBE0EB" d="M891.021,729.897c-4.312-26.681-11.861-31.809-11.861-31.809c-11.643-4.141-18.466,7.55-18.466,7.55
		c-4.176,12.943,0,29.651,0,29.651c10.383,34.503,23.051,30.73,23.051,30.73c21.563-0.807,15.095-20.216,15.095-20.216
		C891.291,736.369,891.021,729.897,891.021,729.897z"/>
	<path fill="#EBE0EB" d="M900.995,709.417c-5.386-7.821-10.515,2.15-10.515,2.15c-1.999,11.503,5.933,23.452,5.933,23.452
		c10.783,12.943,5.929,25.337,5.929,25.337c5.391,5.122,10.519,3.507,10.519,3.507c18.329-3.235,13.208-19.68,13.208-19.68
		C906.389,726.126,900.995,709.417,900.995,709.417z"/>
	<path fill="#EBE0EB" d="M924.719,722.625c-16.986-16.443-16.279-19.544-16.279-19.544l-6.904,1.75l3.507,3.236
		c2.15,9.165,11.732,20.751,11.732,20.751c3.113,2.693,13.065,12.938,13.065,12.938
		C936.848,732.598,924.719,722.625,924.719,722.625z"/>
	<path fill="#AD8BBA" d="M282.352,605.364c27.495,0,13.209,22.102,13.209,22.102c7.55,5.396,22.104,0,22.104,0
		c-11.318-12.394-33.691-50.945-33.691-50.945C276.959,585.682,282.352,605.364,282.352,605.364z"/>
	<path fill="#EBE0EB" d="M292.395,609.537c0,0-6.471-4.851-14.557,4.65c0,0,9.504,1.821,14.557,11.322
		C292.395,625.51,298.447,613.535,292.395,609.537z"/>
	<path fill="#EBE0EB" d="M274.805,615.201l-7.275,6.265c0,0,13.944,2.629,17.387,14.962l6.465-8.69
		C291.381,627.737,289.159,619.244,274.805,615.201z"/>
	<path fill="#EBE0EB" d="M277.838,646.942l5.664-7.079c0,0,0-14.555-19.615-16.369l-5.051,4.243
		C258.836,627.737,276.423,635.014,277.838,646.942z"/>
	<path fill="#AD8BBA" d="M257.273,636.433c1.579,1.254,3.211,2.55,4.388,3.125l1.618,0.792l0.914,1.552
		c1.572,2.669,3.551,5.459,5.464,8.158c1.473,2.077,2.995,4.223,4.359,6.351c0.072,0.099,0.142,0.193,0.214,0.291
		c0.066-0.676,0.13-1.355,0.171-2.073c0,0,0.322-24.785-24.266-23.036C252.743,632.844,255.094,634.703,257.273,636.433z"/>
	<path fill="#EBE0EB" d="M366.992,697.688c31.545-3.644,49.604,16.572,49.604,16.572l3.232-7.544
		c-21.563-9.158-45.821-25.608-45.821-25.608L366.992,697.688z"/>
	<path fill="#EBE0EB" d="M365.107,701.596c0,0-7.547,16.715-7.276,20.486c0,0,17.52-15.9,53.101,10.509l4.856-15.256
		C415.788,717.335,398.266,695.938,365.107,701.596z"/>
	<path fill="#EBE0EB" d="M364.035,721.004l-6.211,6.472l-3.229,1.072l-1.618,4.043c40.167-1.608,53.646,19.415,53.646,19.415
		l4.043-15.501C392.873,716.153,364.035,721.004,364.035,721.004z"/>
	<path fill="#AD8BBA" d="M347.32,781.115c-0.54-29.109,23.99-42.86,23.99-42.86c-54.186-4.851-48.521,50.946-48.521,50.946
		C333.84,779.235,347.32,781.115,347.32,781.115z"/>
	<path fill="#AD8BBA" d="M376.429,739.334c0,0-25.337,10.236-26.684,41.781c0,0,38.548-1.88,48.518,35.852
		c0,0,23.454-34.237,4.854-62.003C403.116,754.964,395.837,743.105,376.429,739.334z"/>
	<path fill="#AD8BBA" d="M352.978,786.295c0,0-22.373-7.744-47.038,32.693c0,0-26.281,39.224-65.098,69.547
		c0,0,120.896,10.114,126.15,17.387c0,0,9.705,48.524,6.065,100.678l26.283-12.536c0,0,5.532-126.958-5.929-168.604
		C393.412,825.46,392.737,788.368,352.978,786.295z"/>
	<path fill="#9564A2" d="M361.335,906.729c0,0-88.552-13.751-125.347-14.558c0,0-6.062,4.043-4.854,21.029
		c0,0,82.49,2.828,112.813,14.551c0,0,12.13,9.308,8.894,78.854l16.172,2.422C369.014,1009.028,375.086,937.46,361.335,906.729z"/>
	<path fill="#A882B4" d="M341.119,931.795c-40.438,25.474-57.418,104.327-57.418,104.327l64.693-27.094
		C351.627,952.825,341.119,931.795,341.119,931.795z"/>
	<path fill="#EBE0EB" d="M336.67,929.373c-21.838-8.492-105.69-11.729-105.69-11.729c-33.423,26.997-39.469,72.376-39.469,72.376
		c-4.446,23.458,7.683,26.286,7.683,26.286c78.851,25.474,79.658,19.815,79.658,19.815
		C301.896,947.167,336.67,929.373,336.67,929.373z"/>
	<path fill="#EBE0EB" d="M677.529,692.967c-2.161-10.508-9.973-24.259-9.973-24.259c-26.148,21.837-41.513,29.109-41.513,29.109
		c0.675,6.155,3.238,11.864,3.238,11.864C648.42,688.659,677.529,692.967,677.529,692.967z"/>
	<path fill="#EBE0EB" d="M629.818,713.188c0.536,3.508,5.394,21.837,5.394,21.837c21.291-22.379,53.639-15.643,53.639-15.643
		c-3.235-5.658-10.24-22.373-10.24-22.373C647.073,690.273,629.818,713.188,629.818,713.188z"/>
	<path fill="#EBE0EB" d="M637.365,737.713c-1.827,6.458,4.854,24.536,4.854,24.536c17.251-30.194,57.143-21.565,57.143-21.565
		c-3.232-7.815-8.083-16.444-8.083-16.444C658.389,713.46,637.365,737.713,637.365,737.713z"/>
	<path fill="#AD8BBA" d="M701.791,789.473c0,0,11.861-0.536,21.563,8.357c0,0,9.436-50.41-30.73-52.561
		C692.623,745.27,704.756,761.713,701.791,789.473z"/>
	<path fill="#AD8BBA" d="M699.362,789.473c2.429-32.617-12.129-44.203-12.129-44.203c-28.306-1.356-41.514,20.48-41.514,20.48
		c-14.019,27.494,7.821,53.374,7.821,53.374C670.789,787.044,699.362,789.473,699.362,789.473z"/>
	<path fill="#AD8BBA" d="M659.335,819.131c-27.901,73.861-18.308,151.217-18.308,151.217c0.694,11.322,40.273,48.523,40.273,48.523
		c-3.229-100.283,18.336-119.143,18.336-119.143c36.659-24.802,135.846-12.943,135.846-12.943
		c-8.093-7.551-22.373-18.33-22.373-18.33c-48.253-24.801-95.146-67.926-95.146-67.926
		C680.762,777.879,659.335,819.131,659.335,819.131z"/>
	<path fill="#9564A2" d="M715.135,895.414c-37.603,5.257-29.52,125.337-29.52,125.337c9.439,0.271,14.286-1.88,14.286-1.88
		c3.504-47.717,12.669-89.769,12.669-89.769c5.664-24.795,65.771-23.987,65.771-23.987c58.497-5.93,63.351,12.529,63.351,12.529
		v-16.166c-1.211-12.536-25.877-13.344-25.877-13.344C760.013,883.685,715.135,895.414,715.135,895.414z"/>
	<path fill="#A882B4" d="M702.598,1017.114c21.527,7.312,71.569,36.796,71.569,36.796c-4.851-68.333-57.015-125.344-57.015-125.344
		C709.073,950.804,702.598,1017.114,702.598,1017.114z"/>
	<path fill="#EBE0EB" d="M818.237,910.372c0,0-75.608-5.664-97.438,13.344c0,0,53.771,61.454,58.219,132.616
		c0,0,24.665-2.416,35.587-9.295c0,0,43.67-9.3,51.347-17.387C865.951,1029.65,866.357,920.48,818.237,910.372z"/>
	<path fill="#793A8A" d="M488.465,379.805c0.735,0.752,1.459,1.511,2.198,2.261c0.795,0.026,1.725,0.32,2.377,0.026
		c19.783-8.894,39.036-19.008,57.844-33.127c18.533-13.915,36.308-34.034,58.78-30.711c2.558,0.378,5.584-1.892,10.887-4.075
		c-4.599-5.79-7.715-8.299-9.928-12.255c-7.453-13.331-16.233-8.119-26.864,1.486c-18.126,16.382-34.502,30.772-50.188,45.378
		c-13.026,12.129-27.074,21.259-41.226,29.988C491.251,379.45,489.766,379.482,488.465,379.805z"/>
	<path fill="#AD8BBA" d="M720.442,397.217c9.882,43.728,30.018,76.437,44.976,73.056c24.189-5.467,42.086-24.988,49.13-49.872
		c-7.712-2.585-16.655-18.513-21.422-39.61c-4.834-21.386-3.807-39.753,2.182-45.114c-17.054-19.342-41.544-29.209-65.675-23.756
		C714.675,315.302,710.561,353.491,720.442,397.217z"/>
	<path fill="#AD8BBA" d="M800.012,340.228c-7.012,1.584-8.94,19.485-4.308,39.982c4.631,20.497,14.07,35.829,21.082,34.244
		c17.602-3.978,28.114-23.818,23.481-44.315C835.636,349.642,817.613,336.25,800.012,340.228z"/>
	<path fill="#EBE0EB" d="M503.062,228.431c0.879,7.082,1.023,13.324,1.092,18.439c-0.052,2.548-0.09,4.822-0.129,6.801
		c-0.139,1.973-0.259,3.643-0.353,5.002c-0.064,0.752-0.119,1.408-0.161,1.96c0.207-0.517,0.445-1.121,0.723-1.821
		c0.518-1.26,1.16-2.816,1.916-4.641c0.84-1.792,1.802-3.859,2.887-6.168c1.018-2.354,2.432-4.799,3.904-7.512
		c0.756-1.347,1.469-2.783,2.351-4.211c0.888-1.424,1.806-2.894,2.755-4.411c1.866-3.113,4.05-6.142,6.336-9.375
		c0.287-0.407,0.574-0.811,0.865-1.221c0.165-0.223,0.242-0.358,0.484-0.662l0.475-0.607c0.633-0.813,1.272-1.637,1.925-2.467
		c1.302-1.663,2.606-3.387,4.099-5.031c1.488-1.646,2.89-3.394,4.537-5.057c1.641-1.663,3.307-3.397,5.018-5.086
		c1.744-1.56,3.52-3.149,5.322-4.757c0.9-0.794,1.809-1.595,2.719-2.406l1.328-1.172c0.43-0.407,0.842-0.836,1.262-1.259
		c0.834-0.843,1.705-1.68,2.521-2.548c0.773-0.881,1.555-1.773,2.336-2.664c0.795-0.833,1.586-1.941,2.383-2.929l1.201-1.524
		l0.258-0.333c0.02-0.02,0.039-0.052,0.037-0.049l0.064-0.09l0.129-0.187l0.506-0.74c1.379-1.979,2.58-4.075,3.498-6.294
		c0.51-1.088,0.854-2.241,1.26-3.372l0.475-1.75c0.168-0.582,0.229-1.124,0.355-1.692l0.168-0.849l0.109-1.014l0.109-1.021
		l0.059-0.507c0,0.003,0-0.007,0-0.026l0.004-0.084l0.006-0.242c0.041-1.279,0.145-2.574,0.084-3.856
		c0.006-2.583-0.301-5.145-0.727-7.702c-0.508-2.512-1.221-5.108-2.15-7.379c-0.182-0.568-0.537-1.243-0.82-1.876l-0.453-0.962
		l-0.229-0.481l-0.039-0.094c-0.014-0.017-0.025-0.039-0.023-0.036l-0.121-0.22c-0.65-1.175-1.273-2.376-2.002-3.504
		c-1.396-2.306-3.004-4.472-4.799-6.478c-1.762-2.044-3.736-3.901-5.904-5.525c-4.27-3.342-9.34-5.726-14.729-7.14
		c-1.356-0.388-2.67-0.61-4.065-0.885l-2.147-0.313l-0.536-0.081l-0.478-0.039l-1.044-0.087c-2.78-0.3-5.58-0.132-8.364,0.129
		c-2.751,0.475-5.509,1.03-8.125,2.038c-1.34,0.43-2.57,1.06-3.836,1.618c-1.24,0.584-2.545,1.353-3.714,1.999
		c-1.169,0.765-2.331,1.527-3.481,2.312c-1.068,0.881-2.138,1.76-3.209,2.632c-1.015,0.93-1.954,1.941-2.936,2.897
		c-0.928,1.004-1.715,2.131-2.574,3.178c-0.833,1.072-1.488,2.267-2.241,3.384c-0.381,0.553-0.682,1.156-0.976,1.764l-0.885,1.799
		l-0.445,0.897l-0.352,0.917l-0.701,1.831c-0.51,1.166-0.826,2.532-1.201,3.833l-0.275,0.981l-0.132,0.485l-0.064,0.249
		c-0.003,0.006-0.052,0.158-0.01,0.042l-0.02,0.117l-0.297,1.84c-0.132,0.598-0.146,1.228-0.168,1.848
		c-0.017,0.623-0.084,1.24-0.067,1.85c0.08,1.237,0.07,2.371,0.277,3.733l0.119,0.982l0.059,0.491l0.016,0.123
		c0.004,0.058-0.006-0.064,0.014,0.045l0.041,0.229l0.362,1.857c0.255,1.233,0.43,2.467,0.739,3.665
		c0.336,1.195,0.672,2.383,1.004,3.565c0.281,1.198,0.718,2.315,1.108,3.446c0.42,1.13,0.753,2.225,1.224,3.358
		c0.501,1.14,0.966,2.283,1.431,3.417l0.672,1.611l0.756,1.702c0.972,2.257,2.06,4.489,2.81,6.681
		c0.41,1.102,0.813,2.183,1.214,3.262l0.601,1.608c0.184,0.584,0.361,1.169,0.546,1.75c0.652,2.199,1.386,4.331,1.94,6.469
		C500.886,213.35,502.275,221.333,503.062,228.431z M504.896,155.79c1.496-4.24,3.859-7.673,6.863-10.476
		c1.508-1.363,3.109-2.616,4.856-3.617c1.737-1.017,3.556-1.94,5.493-2.522c0.953-0.362,1.953-0.526,2.941-0.759
		c1.012-0.116,1.971-0.333,3.063-0.291c0.516,0.006,1.107-0.01,1.563,0.025c0.439,0.036,0.875,0.071,1.314,0.107l0.319,0.039
		l0.084,0.006l0.042,0.003l0.178,0.039l0.184,0.039l0.717,0.159c0.479,0.113,0.957,0.223,1.422,0.358
		c3.713,1.169,6.826,3.458,8.883,6.11c2.074,2.671,3.107,5.606,3.623,8.145c0.523,2.558,0.494,4.779,0.439,6.546
		c-0.021,0.445-0.045,0.865-0.064,1.256c-0.031,0.391-0.104,0.766-0.133,1.108c-0.07,0.691-0.154,1.263-0.252,1.711
		c-0.174,0.907-0.262,1.395-0.262,1.395l-0.002,0.013c0,0-0.129,0.487-0.365,1.395c-0.104,0.458-0.275,1.011-0.508,1.657
		c-0.119,0.319-0.215,0.685-0.355,1.053c-0.148,0.361-0.313,0.752-0.484,1.162c-0.713,1.628-1.658,3.64-3.242,5.723
		c-1.572,2.073-3.771,4.279-6.8,5.861c-1.518,0.739-3.2,1.414-5.034,1.725c-0.459,0.077-0.924,0.181-1.393,0.235
		c-0.471,0.036-0.949,0.064-1.43,0.094c-0.931,0.097-2.045,0-3.101-0.058c-0.533-0.045-0.868-0.126-1.321-0.181l-0.636-0.1
		l-0.323-0.049l-0.265-0.058l-0.097-0.022l-0.181-0.048c-0.988-0.274-1.993-0.51-2.955-0.927c-1.967-0.72-3.82-1.854-5.532-3.188
		c-1.701-1.347-3.203-2.978-4.492-4.77c-1.239-1.834-2.25-3.837-2.957-5.955c-0.676-2.131-0.979-4.363-0.969-6.582
		C503.802,159.995,504.283,157.524,504.896,155.79z"/>
	<path fill="#793A8A" d="M507.654,174.688c1.289,1.792,2.791,3.423,4.492,4.77c1.712,1.334,3.565,2.467,5.532,3.188
		c0.962,0.417,1.967,0.652,2.955,0.927l0.181,0.048l0.097,0.022l0.265,0.058l0.323,0.049l0.636,0.1
		c0.453,0.055,0.788,0.136,1.321,0.181c1.056,0.058,2.17,0.155,3.101,0.058c0.48-0.029,0.959-0.058,1.43-0.094
		c0.469-0.055,0.934-0.158,1.393-0.235c1.834-0.311,3.517-0.985,5.034-1.725c3.029-1.583,5.229-3.788,6.8-5.861
		c1.584-2.083,2.529-4.095,3.242-5.723c0.172-0.41,0.336-0.801,0.484-1.162c0.141-0.368,0.236-0.733,0.355-1.053
		c0.232-0.646,0.404-1.198,0.508-1.657c0.236-0.908,0.365-1.395,0.365-1.395l0.002-0.013c0,0,0.088-0.488,0.262-1.395
		c0.098-0.449,0.182-1.021,0.252-1.711c0.029-0.342,0.102-0.717,0.133-1.108c0.02-0.391,0.043-0.811,0.064-1.256
		c0.055-1.767,0.084-3.988-0.439-6.546c-0.516-2.539-1.549-5.474-3.623-8.145c-2.057-2.651-5.17-4.941-8.883-6.11
		c-0.465-0.136-0.943-0.246-1.422-0.358l-0.717-0.159l-0.184-0.039l-0.178-0.039l-0.042-0.003l-0.084-0.006l-0.319-0.039
		c-0.439-0.036-0.875-0.071-1.314-0.107c-0.455-0.035-1.047-0.019-1.563-0.025c-1.092-0.042-2.051,0.174-3.063,0.291
		c-0.988,0.232-1.988,0.397-2.941,0.759c-1.938,0.582-3.756,1.505-5.493,2.522c-1.747,1.001-3.349,2.254-4.856,3.617
		c-3.004,2.803-5.367,6.235-6.863,10.476c-0.613,1.734-1.094,4.205-1.168,6.362c-0.01,2.219,0.293,4.45,0.969,6.582
		C505.404,170.852,506.415,172.854,507.654,174.688z"/>
	<path fill="#AD8BBA" d="M226.047,611.582c-0.118-0.876-0.246-1.75-0.36-2.626c-2.545-19.504-0.046-40.188,0.637-59.794
		c0.004-0.104,0.001-0.207-0.008-0.307c-0.002-0.036-0.011-0.07-0.017-0.105c-0.007-0.063-0.015-0.125-0.03-0.188
		c-0.007-0.04-0.021-0.08-0.031-0.119c-0.016-0.055-0.031-0.109-0.05-0.161c-0.016-0.043-0.033-0.083-0.05-0.125
		c-0.022-0.049-0.041-0.098-0.065-0.145c-0.021-0.043-0.044-0.083-0.067-0.123c-0.027-0.046-0.054-0.091-0.083-0.137
		c-0.027-0.04-0.055-0.078-0.084-0.119c-0.03-0.041-0.063-0.084-0.097-0.128c-0.033-0.036-0.064-0.076-0.098-0.113
		c-0.039-0.04-0.078-0.081-0.117-0.122c-0.036-0.036-0.072-0.072-0.11-0.107c-0.042-0.04-0.088-0.081-0.136-0.12
		c-0.033-0.028-0.069-0.058-0.103-0.086c-0.028-0.021-0.051-0.042-0.077-0.062c-12.062-4.091-24.494-2.175-36.206,0.156
		c-4.335,0.861-8.726,2.096-13.087,3.453c-5.384,2.17-10.558,4.852-15.381,7.978c5.459,16.201,13.812,31.425,19.881,47.397
		c1.326,3.489,2.403,7.134,3.324,10.863c9.349-3.61,20.582-6.845,30.854-6.845C218.72,609.897,222.577,610.481,226.047,611.582z
		 M202.864,562.857c6.284,5.178,7.165,14.186,2.006,20.506c-5.088,6.234-14.28,7.193-20.487,2.139l-0.107-0.09
		c-6.118-5.081-7.032-14.524-2-20.626c5.089-6.165,14.293-7.055,20.522-1.98L202.864,562.857z"/>
	<path fill="#AD8BBA" d="M205.951,743.13c0.022,0.118,0.043,0.236,0.065,0.354c0.008,0.048,0.02,0.098,0.027,0.145
		c0.049,0.263,0.099,0.521,0.149,0.779c0.008,0.052,0.021,0.1,0.028,0.149c0.051,0.257,0.101,0.509,0.151,0.762
		c0.01,0.055,0.022,0.105,0.032,0.16c0.051,0.248,0.098,0.491,0.149,0.736c0.012,0.058,0.022,0.118,0.037,0.174
		c0.047,0.242,0.097,0.48,0.149,0.715c0.013,0.057,0.024,0.112,0.034,0.171c0.055,0.234,0.104,0.466,0.157,0.695
		c0.011,0.06,0.024,0.116,0.036,0.176c0.052,0.229,0.104,0.458,0.157,0.682c0.012,0.053,0.026,0.104,0.037,0.156
		c0.052,0.229,0.105,0.455,0.16,0.678c0.01,0.05,0.023,0.097,0.037,0.143c0.053,0.228,0.11,0.453,0.165,0.675
		c0.009,0.035,0.02,0.07,0.029,0.106c0.057,0.232,0.117,0.46,0.176,0.686c0.006,0.016,0.01,0.03,0.012,0.045
		c0.323,1.209,0.661,2.332,1.009,3.346c0.021,0.05,0.04,0.105,0.058,0.156c0.047,0.141,0.097,0.274,0.148,0.411
		c0.027,0.075,0.053,0.151,0.082,0.224c0.046,0.119,0.093,0.237,0.137,0.354c0.034,0.084,0.065,0.167,0.098,0.247
		c0.046,0.109,0.09,0.21,0.132,0.313c0.036,0.084,0.072,0.171,0.108,0.254c0.043,0.096,0.084,0.188,0.127,0.279
		c0.04,0.084,0.077,0.17,0.117,0.251c0.042,0.088,0.083,0.17,0.126,0.253c0.041,0.08,0.081,0.161,0.12,0.238
		c0.042,0.079,0.083,0.152,0.126,0.23c0.042,0.074,0.083,0.149,0.126,0.223c0.043,0.07,0.083,0.137,0.125,0.205
		c0.043,0.069,0.086,0.14,0.129,0.205c0.042,0.063,0.085,0.124,0.125,0.184c0.045,0.063,0.09,0.124,0.135,0.188
		c0.041,0.053,0.085,0.104,0.125,0.158c0.047,0.057,0.093,0.111,0.14,0.165c0.041,0.047,0.084,0.093,0.126,0.138
		c0.047,0.051,0.094,0.097,0.141,0.142c0.045,0.041,0.085,0.079,0.128,0.116c0.043,0.035,0.085,0.07,0.126,0.102
		c0.074,0.059,0.151,0.111,0.229,0.159c0.033,0.02,0.064,0.043,0.101,0.062c0.11,0.062,0.218,0.113,0.329,0.151
		c2.431,0.812,4.069,0.791,14.485,0.86c5.712,0.036,6.95,1.512,11.901-1.4c10.704-6.297,9.718-7.648,7.887-19.336
		c-0.167-1.066-0.336-2.132-0.503-3.198c-7.43,4.856-16.38,7.317-26.698,7.317C215.119,744.313,210.727,743.924,205.951,743.13z"/>
	<path fill="#793A8A" d="M182.276,564.786c-5.032,6.102-4.119,15.545,2,20.626l0.107,0.09c6.207,5.055,15.398,4.096,20.487-2.139
		c5.159-6.32,4.278-15.328-2.006-20.506l-0.065-0.052C196.57,557.731,187.366,558.621,182.276,564.786z M202.078,581.086
		c-3.843,4.707-10.86,5.41-15.501,1.555c-4.612-3.831-5.309-10.968-1.521-15.56c3.85-4.666,10.818-5.313,15.515-1.441
		C205.353,569.578,206.005,576.272,202.078,581.086z"/>
	<path fill="#AD8BBA" d="M223.137,485.894c-2.677-2.182-5.356-4.361-8.034-6.542c-0.875-0.394-1.784-0.729-2.623-1.187
		c-16.207-8.861-32.608-9.082-48.771-0.3c-13.172,7.156-21.204,18.533-24.449,33.16c-0.997,4.499-1.402,9.109-0.79,13.716
		c30.93-14.996,62.871-22.824,97.423-15.67c-1.455-5.683-3.612-10.762-6.788-15.355
		C227.242,491.021,225.136,488.496,223.137,485.894z"/>
	<path fill="#AD8BBA" d="M187.49,539.982c13.477-2.68,27.091-4.517,40.701,0.352c4.461-7.167,7.274-14.855,7.899-23.352
		c0.01-0.142,0.016-0.274,0.018-0.403c0.002-0.038,0.001-0.074,0.002-0.114c-0.001-1.527-0.61-2.139-2.134-2.657
		c-13.048-4.434-26.338-4.644-39.727-2.188c-13.454,2.467-26.429,6.684-39.221,11.425c-5.094,1.889-9.993,4.307-15.105,6.536
		c0.27,0.729,0.553,1.442,0.846,2.147c0.153,0.371,0.304,0.744,0.464,1.111c0.089,0.202,0.181,0.398,0.27,0.597
		c0.147,0.326,0.292,0.652,0.44,0.972c0.102,0.214,0.208,0.424,0.312,0.635c0.144,0.301,0.289,0.602,0.438,0.896
		c0.11,0.217,0.228,0.43,0.339,0.649c0.15,0.28,0.294,0.565,0.447,0.84c0.123,0.223,0.249,0.437,0.372,0.655
		c0.151,0.268,0.299,0.536,0.455,0.797c0.129,0.219,0.263,0.433,0.398,0.649c0.155,0.255,0.308,0.513,0.47,0.764
		c0.136,0.217,0.278,0.426,0.418,0.64c0.163,0.245,0.324,0.493,0.488,0.735c0.146,0.214,0.298,0.419,0.447,0.63
		c0.166,0.234,0.332,0.474,0.504,0.703c0.154,0.209,0.313,0.413,0.471,0.619c0.172,0.226,0.343,0.454,0.519,0.677
		c0.164,0.204,0.331,0.403,0.496,0.604c0.181,0.217,0.358,0.438,0.54,0.651c0.169,0.2,0.347,0.392,0.52,0.588
		c0.185,0.21,0.371,0.421,0.559,0.628c0.18,0.193,0.363,0.381,0.545,0.573c0.191,0.201,0.384,0.403,0.58,0.603
		c0.187,0.188,0.378,0.372,0.568,0.557c0.201,0.194,0.398,0.389,0.601,0.58c0.194,0.182,0.396,0.36,0.593,0.539
		c0.207,0.186,0.411,0.375,0.624,0.557c0.201,0.177,0.41,0.348,0.617,0.521c0.27,0.227,0.537,0.454,0.812,0.676
		c3.577-1.813,6.637-3.857,10.005-4.968C172.459,543.972,179.892,541.492,187.49,539.982z"/>
	<path fill="#FFFFFF" d="M200.571,565.64c-4.697-3.872-11.666-3.225-15.515,1.441c-3.788,4.592-3.092,11.729,1.521,15.56
		c4.641,3.855,11.659,3.152,15.501-1.555C206.005,576.272,205.353,569.578,200.571,565.64z"/>
	<path fill="#EBE0EB" d="M273.082,659.973c-0.725-0.938-1.567-2.047-2.466-3.263C267,653,265,647,261.483,642.995l-2.455-3.288
		c-4.385-2.313-9.926-7.074-14.688-8.872l0.844,5.241c0.291,6.519-1.277,12.131-4.652,16.737
		c6.629,3.684,10.015,9.545,11.736,14.782l0.148,0.451l0.842,5.102c0.342,5.939-0.831,11.165-3.487,15.603
		c6.751,1.291,8.381,8.499,9.107,11.755c0.264,1.184,0.592,2.657,0.912,3.256l0.488,0.917l0.725,4.284
		c3.167,0.286,6.653,0.147,10.504-0.531c0,0,30.439-10.497,4.007-45.391C275.514,663.041,274.53,661.849,273.082,659.973z"/>
	<path fill="#EBE0EB" d="M246.563,728.401c1.312-0.939,2.499-1.933,3.537-3.042c2.077-2.222,3.558-4.918,4.256-8.18
		c0.419-1.957,0.556-4.117,0.371-6.499l-0.674-3.861c-1.651-3.099-1.586-8.181-3.603-10.527c-0.674-0.782-1.579-1.261-2.858-1.253
		c-11.903,1.693-22.962,6.798-35.146,6.131c-1.435-0.044-2.879-0.077-4.319-0.11c-8.638-0.199-17.001-0.386-22.597,6.801
		c-0.477,0.677-0.875,1.436-1.2,2.254c-2.708,6.826-0.288,17.892,4.697,21.801c0.997,0.781,2.096,1.277,3.277,1.396
		C210.169,738.414,231.436,741.816,246.563,728.401z"/>
	<path fill="#EBE0EB" d="M177.845,661.006c1.276-0.054,2.635-0.087,4.062-0.109c1.435-0.039,2.944-0.068,4.573-0.128
		c13.483-3.166,27.944-2.315,41.504-5.825c1.104-0.517,2.161-1.107,3.146-1.781c3.94-2.693,6.75-6.685,7.419-12.674
		c0.156-1.289,0.208-2.662,0.142-4.122l-0.704-4.124c-8.252-27.38-46.532-12.918-65.249-3.585c-1.698,0.874-2.974,2.292-3.872,4.072
		c-3.592,7.12-1.134,20.037,4.348,25.646C174.584,659.777,176.144,660.723,177.845,661.006z"/>
	<path fill="#EBE0EB" d="M184.65,695.882c19.565,3.402,63.799,6.806,62.119-22.359l-0.676-3.897c-1.451-4.414-3.77-7.596-6.71-9.799
		c-0.982-0.732-2.033-1.356-3.146-1.872c-1.246,0.136-2.494,0.282-3.746,0.438c-1.256,0.154-2.514,0.316-3.795,0.491
		c-11.722,2.974-24.481,2.123-36.861,4.754c-1.272,0.31-2.556,0.666-3.826,1.087c-3.807,1.262-7.43,3.135-10.771,5.986
		c-0.542,0.844-0.937,1.826-1.211,2.924C174.118,681.31,178.137,694.579,184.65,695.882z"/>
</g>
</svg>
